<?xml version="1.0" standalone="no"?>
<!DOCTYPE svg PUBLIC "-//W3C//DTD SVG 1.1//EN" "http://www.w3.org/Graphics/SVG/1.1/DTD/svg11.dtd" >
<svg xmlns="http://www.w3.org/2000/svg" xmlns:xlink="http://www.w3.org/1999/xlink" version="1.1">
<metadata>
Created by FontForge 20161116 at Wed Sep 25 05:41:38 2013
 By Jimmy Warting
Raleway is an elegant sans-serif typeface family. Initially designed by Matt McInerney as a single thin weight, it was expanded into a 9 weight family by Pablo Impallari and Rodrigo Fuenzalida in 2012 and iKerned by Igino Marini. It is a display face and the download features both old style and lining numerals, standard and discretionary ligatures, a pretty complete set of diacritics, as well as a stylistic alternate inspired by more geometric sans-serif typefaces than its neo-grotesque inspired default character set.
</metadata>
<defs>
<font id="Raleway-ExtraBoldItalic" horiz-adv-x="591" >
  <font-face 
    font-family="Raleway"
    font-weight="800"
    font-style="italic"
    font-stretch="normal"
    units-per-em="1000"
    panose-1="2 11 9 3 3 1 1 6 0 3"
    ascent="800"
    descent="-200"
    x-height="525"
    cap-height="710"
    bbox="-233 -231 1339 930"
    underline-thickness="50"
    underline-position="-100"
    slope="-12"
    stemh="136"
    stemv="160"
    unicode-range="U+000D-FB06"
  />
<missing-glyph horiz-adv-x="0" 
 />
    <glyph glyph-name="f_f" unicode="ff" horiz-adv-x="645" 
d="M22 0l76 361h-63l26 121h63l4 17c27 120 112 206 223 206c41 0 82 -11 124 -29c40 39 90 64 150 64c44 0 83 -14 124 -31l-55 -120c-17 8 -41 16 -63 16c-39 0 -63 -32 -72 -74l-10 -49h117l-25 -121h-118l-77 -361h-160l77 361h-105l-76 -361h-160zM284 482h105
c5 24 12 53 19 76c-16 8 -37 12 -53 12c-37 0 -58 -26 -66 -66z" />
    <glyph glyph-name="f_f_i" unicode="ffi" horiz-adv-x="843" 
d="M22 0l76 361h-63l26 121h63l4 17c26 118 112 206 223 206c41 0 82 -11 124 -29c46 39 111 64 184 64c65 0 128 -26 192 -72l-87 -121c-30 34 -77 58 -116 58c-51 0 -80 -32 -89 -74l-10 -49h278l-103 -482h-160l77 361h-118l-77 -361h-160l77 361h-105l-76 -361h-160z
M284 482h105c5 24 12 53 19 76c-16 8 -37 12 -53 12c-37 0 -57 -26 -66 -66z" />
    <glyph glyph-name="f_f_l" unicode="ffl" horiz-adv-x="925" 
d="M727 -8c-79 0 -120 41 -120 95c0 10 1 18 4 31l82 386c4 16 7 32 7 46c0 32 -14 55 -56 55c-52 0 -79 -47 -91 -102l-4 -21h72l-26 -121h-72l-77 -361h-160l77 361h-105l-76 -361h-160l76 361h-63l26 121h63l4 17c27 120 114 206 222 206c43 0 84 -11 126 -29
c48 43 117 64 195 64c135 0 194 -59 194 -153c0 -18 -2 -38 -6 -59l-72 -336c-1 -5 -2 -12 -2 -18c0 -21 8 -40 33 -40c21 0 57 15 58 15l-8 -129c-3 -2 -78 -28 -141 -28zM284 482h105c5 25 12 54 18 77c-16 8 -36 11 -50 11c-36 0 -61 -27 -68 -65z" />
    <glyph glyph-name="f_i" unicode="fi" horiz-adv-x="577" 
d="M22 0l76 361h-63l26 121h63l9 43c26 124 133 215 264 215c72 0 130 -27 189 -72l-87 -121c-32 35 -76 58 -120 58c-45 0 -76 -32 -85 -74l-11 -49h279l-103 -482h-160l76 361h-117l-76 -361h-160z" />
    <glyph glyph-name="f_l" unicode="fl" horiz-adv-x="661" 
d="M462 -8c-78 0 -120 41 -120 95c0 9 2 18 4 29l82 381c4 21 7 40 7 55c0 32 -13 53 -51 53c-55 0 -83 -41 -95 -100l-5 -23h72l-25 -121h-73l-76 -361h-160l76 361h-63l26 121h63l13 58c29 134 133 200 269 200c135 0 195 -59 195 -153c0 -18 -2 -38 -7 -59l-71 -336
c-1 -6 -2 -12 -2 -19c0 -20 8 -39 32 -39c22 0 57 15 59 15l-8 -129c-4 -2 -77 -28 -142 -28z" />
    <glyph glyph-name=".notdef" horiz-adv-x="0" 
 />
    <glyph glyph-name="A" unicode="A" horiz-adv-x="641" 
d="M-57 0l394 710h149l92 -710h-168l-15 159h-202l-81 -159h-169zM242 272h150l-20 251z" />
    <glyph glyph-name="A.sc" horiz-adv-x="576" 
d="M-61 0l350 563h116l109 -563h-151l-20 118h-181l-69 -118h-154zM219 243h118l-27 146z" />
    <glyph glyph-name="AE" unicode="&#xc6;" horiz-adv-x="932" 
d="M-80 0l564 710h494l-31 -144h-287l-28 -133h235l-30 -143h-235l-31 -146h294l-30 -144h-458l34 159h-201l-116 -159h-174zM310 303h119l47 224z" />
    <glyph glyph-name="AEacute" unicode="&#x1fc;" horiz-adv-x="932" 
d="M782 916l-115 -144l-106 14l77 130h144zM-80 0l564 710h494l-31 -144h-287l-28 -133h235l-30 -143h-235l-31 -146h294l-30 -144h-458l34 159h-201l-116 -159h-174zM310 303h119l47 224z" />
    <glyph glyph-name="acute" unicode="&#xb4;" horiz-adv-x="259" 
d="M240 730l-115 -144l-106 14l77 130h144z" />
    <glyph glyph-name="Aacute" unicode="&#xc1;" horiz-adv-x="641" 
d="M-57 0l394 710h149l92 -710h-168l-15 159h-202l-81 -159h-169zM242 272h150l-20 251zM566 916l-115 -144l-106 14l77 130h144z" />
    <glyph glyph-name="Abreve" unicode="&#x102;" horiz-adv-x="641" 
d="M-57 0l394 710h149l92 -710h-168l-15 159h-202l-81 -159h-169zM242 272h150l-20 251zM428 839c28 0 59 32 73 77h84c-18 -86 -90 -147 -172 -147c-71 0 -115 44 -115 110c0 12 2 24 5 37h84c-2 -7 -3 -15 -3 -21c0 -32 18 -56 44 -56z" />
    <glyph glyph-name="breve" unicode="&#x2d8;" horiz-adv-x="335" 
d="M163 653c28 0 59 32 73 77h84c-18 -86 -90 -147 -172 -147c-71 0 -115 44 -115 110c0 12 2 24 5 37h84c-2 -7 -3 -15 -3 -21c0 -32 18 -56 44 -56z" />
    <glyph glyph-name="Acircumflex" unicode="&#xc2;" horiz-adv-x="641" 
d="M-57 0l394 710h149l92 -710h-168l-15 159h-202l-81 -159h-169zM242 272h150l-20 251zM345 772l-74 36l128 108h114l82 -108l-89 -36l-67 63z" />
    <glyph glyph-name="circumflex" unicode="&#x2c6;" horiz-adv-x="370" 
d="M105 586l-74 36l128 108h114l82 -108l-89 -36l-67 63z" />
    <glyph glyph-name="Adieresis" unicode="&#xc4;" horiz-adv-x="641" 
d="M-57 0l394 710h149l92 -710h-168l-15 159h-202l-81 -159h-169zM242 272h150l-20 251zM383 780h-132l28 129h132zM588 780h-132l28 129h131z" />
    <glyph glyph-name="dieresis" unicode="&#xa8;" horiz-adv-x="497" 
d="M205 593h-132l28 129h132zM410 593h-132l28 129h131z" />
    <glyph glyph-name="Agrave" unicode="&#xc0;" horiz-adv-x="641" 
d="M-57 0l394 710h149l92 -710h-168l-15 159h-202l-81 -159h-169zM242 272h150l-20 251zM369 771l-55 146h144l22 -130z" />
    <glyph glyph-name="grave" unicode="`" horiz-adv-x="260" 
d="M108 584l-55 146h144l22 -130z" />
    <glyph glyph-name="Amacron" unicode="&#x100;" horiz-adv-x="641" 
d="M-57 0l394 710h149l92 -710h-168l-15 159h-202l-81 -159h-169zM242 272h150l-20 251zM573 806h-290l20 97h291z" />
    <glyph glyph-name="macron" unicode="&#xaf;" horiz-adv-x="410" 
d="M350 620h-290l20 97h291z" />
    <glyph glyph-name="Aogonek" unicode="&#x104;" horiz-adv-x="641" 
d="M496 -205c-76 10 -112 43 -112 82c0 41 36 84 106 123h-80l-15 159h-202l-81 -159h-169l394 710h149l92 -710c-59 -34 -89 -62 -89 -88c0 -19 18 -32 56 -33zM242 272h150l-20 251z" />
    <glyph glyph-name="ogonek" unicode="&#x2db;" horiz-adv-x="300" 
d="M154 -204c-76 10 -112 43 -112 82c0 48 51 101 151 145l43 -22c-59 -34 -89 -62 -89 -88c0 -19 18 -32 56 -33z" />
    <glyph glyph-name="Aring" unicode="&#xc5;" horiz-adv-x="641" 
d="M-57 0l394 710h149l92 -710h-168l-15 159h-202l-81 -159h-169zM242 272h150l-20 251zM326 818c0 63 51 98 124 98c55 0 88 -23 88 -66c0 -62 -51 -97 -123 -97c-55 0 -89 23 -89 65zM439 869c-24 0 -45 -17 -45 -40c0 -17 12 -29 31 -29c23 0 46 17 46 41
c0 16 -13 28 -32 28z" />
    <glyph glyph-name="ring" unicode="&#x2da;" horiz-adv-x="256" 
d="M31 632c0 63 51 98 124 98c55 0 88 -23 88 -66c0 -62 -51 -97 -123 -97c-55 0 -89 23 -89 65zM144 683c-24 0 -45 -17 -45 -40c0 -17 12 -29 31 -29c23 0 46 17 46 41c0 16 -13 28 -32 28z" />
    <glyph glyph-name="Aringacute" unicode="&#x1fa;" horiz-adv-x="641" 
d="M596 924l-97 -116c15 -11 23 -28 23 -49c0 -31 -12 -54 -33 -71l89 -688h-168l-15 159h-202l-81 -159h-169l381 687c-9 10 -14 23 -14 40c0 48 30 80 76 92l66 105h144zM242 272h150l-20 251zM423 778c-24 0 -45 -17 -45 -40c0 -17 12 -29 31 -29c23 0 46 17 46 41
c0 16 -13 28 -32 28z" />
    <glyph glyph-name="Atilde" unicode="&#xc3;" horiz-adv-x="641" 
d="M-57 0l394 710h149l92 -710h-168l-15 159h-202l-81 -159h-169zM242 272h150l-20 251zM486 774c-58 0 -75 46 -117 46c-43 0 -54 -45 -54 -48h-87c6 30 63 142 154 142c61 0 73 -48 117 -48c43 0 59 47 60 50h85c-4 -21 -64 -142 -158 -142z" />
    <glyph glyph-name="tilde" unicode="&#x2dc;" horiz-adv-x="431" 
d="M271 588c-58 0 -75 46 -117 46c-43 0 -54 -45 -54 -48h-87c6 30 63 142 154 142c61 0 73 -48 117 -48c43 0 59 47 60 50h85c-4 -21 -64 -142 -158 -142z" />
    <glyph glyph-name="B" unicode="B" horiz-adv-x="661" 
d="M4 0l151 710h379c79 0 120 -71 120 -146c0 -80 -51 -164 -137 -200c59 -19 93 -69 93 -140c0 -151 -132 -224 -277 -224h-329zM198 139h165c43 0 85 40 85 95c0 34 -18 60 -46 60h-172zM258 423h145c38 0 80 31 80 93c0 34 -18 54 -43 54h-151z" />
    <glyph glyph-name="B.sc" horiz-adv-x="583" 
d="M-2 0l120 563h331c71 0 107 -58 107 -119c0 -62 -43 -128 -115 -155c52 -16 83 -55 83 -113c0 -122 -114 -176 -238 -176h-288zM167 121h144c37 0 70 25 70 63c0 25 -16 44 -41 44h-150zM214 341h127c33 0 65 16 65 61c0 26 -17 38 -40 38h-131z" />
    <glyph glyph-name="C" unicode="C" horiz-adv-x="661" 
d="M297 -6c-168 0 -264 148 -264 303c0 196 180 417 423 417c127 0 212 -63 238 -155l-145 -88c-12 75 -74 97 -128 97c-138 0 -221 -146 -221 -261c0 -90 46 -167 132 -167c55 0 126 27 167 98l118 -79c-63 -105 -207 -165 -320 -165z" />
    <glyph glyph-name="C.sc" horiz-adv-x="570" 
d="M248 -5c-145 0 -229 119 -229 243c0 155 149 328 355 328c107 0 180 -49 202 -123l-126 -78c-12 57 -63 73 -106 73c-111 0 -178 -104 -178 -189c0 -68 40 -126 113 -126c44 0 102 20 134 73l102 -70c-53 -84 -172 -131 -267 -131z" />
    <glyph glyph-name="CR" unicode="&#xd;" horiz-adv-x="0" 
 />
    <glyph glyph-name="Cacute" unicode="&#x106;" horiz-adv-x="661" 
d="M628 916l-115 -144l-106 14l77 130h144zM297 -6c-168 0 -264 148 -264 303c0 196 180 417 423 417c127 0 212 -63 238 -155l-145 -88c-12 75 -74 97 -128 97c-138 0 -221 -146 -221 -261c0 -90 46 -167 132 -167c55 0 126 27 167 98l118 -79
c-63 -105 -207 -165 -320 -165z" />
    <glyph glyph-name="Ccaron" unicode="&#x10c;" horiz-adv-x="661" 
d="M410 772l-82 107l89 37l67 -63l94 63l75 -37l-128 -107h-115zM297 -6c-168 0 -264 148 -264 303c0 196 180 417 423 417c127 0 212 -63 238 -155l-145 -88c-12 75 -74 97 -128 97c-138 0 -221 -146 -221 -261c0 -90 46 -167 132 -167c55 0 126 27 167 98l118 -79
c-63 -105 -207 -165 -320 -165z" />
    <glyph glyph-name="caron" unicode="&#x2c7;" horiz-adv-x="370" 
d="M117 586l-82 107l89 37l67 -63l94 63l75 -37l-128 -107h-115z" />
    <glyph glyph-name="Ccedilla" unicode="&#xc7;" horiz-adv-x="660" 
d="M148 -183l42 56c12 -9 47 -20 82 -20c34 0 60 10 60 38c0 19 -17 26 -45 26c-26 0 -62 -7 -78 -11l61 89c-152 14 -238 155 -238 302c0 196 180 417 423 417c127 0 212 -63 238 -155l-145 -88c-12 75 -74 97 -128 97c-138 0 -221 -146 -221 -261c0 -90 46 -167 132 -167
c55 0 126 27 167 98l118 -79c-56 -93 -174 -150 -279 -162l-30 -35c8 2 18 3 28 3c39 0 72 -18 72 -60c0 -58 -52 -109 -158 -109c-44 0 -78 10 -101 21z" />
    <glyph glyph-name="cedilla" unicode="&#xb8;" horiz-adv-x="330" 
d="M-20 -183l42 56c12 -9 47 -20 82 -20c34 0 60 10 60 38c0 19 -17 26 -45 26c-26 0 -62 -7 -78 -11l87 126l56 -18l-45 -52c8 2 18 3 28 3c39 0 72 -18 72 -60c0 -58 -52 -109 -158 -109c-44 0 -78 10 -101 21z" />
    <glyph glyph-name="Ccircumflex" unicode="&#x108;" horiz-adv-x="661" 
d="M390 772l-74 36l128 108h114l82 -108l-89 -36l-67 63zM297 -6c-168 0 -264 148 -264 303c0 196 180 417 423 417c127 0 212 -63 238 -155l-145 -88c-12 75 -74 97 -128 97c-138 0 -221 -146 -221 -261c0 -90 46 -167 132 -167c55 0 126 27 167 98l118 -79
c-63 -105 -207 -165 -320 -165z" />
    <glyph glyph-name="Cdotaccent" unicode="&#x10a;" horiz-adv-x="661" 
d="M297 -6c-168 0 -264 148 -264 303c0 196 180 417 423 417c127 0 212 -63 238 -155l-145 -88c-12 75 -74 97 -128 97c-138 0 -221 -146 -221 -261c0 -90 46 -167 132 -167c55 0 126 27 167 98l118 -79c-63 -105 -207 -165 -320 -165zM545 779h-144l29 137h144z" />
    <glyph glyph-name="dotaccent" unicode="&#x2d9;" horiz-adv-x="238" 
d="M183 593h-144l29 137h144z" />
    <glyph glyph-name="D" unicode="D" horiz-adv-x="693" 
d="M4 0l151 710h254c185 0 272 -121 272 -276c0 -250 -182 -434 -423 -434h-254zM198 144h90c134 0 223 125 223 266c0 93 -46 156 -133 156h-90z" />
    <glyph glyph-name="D.sc" horiz-adv-x="619" 
d="M-2 0l120 563h225c168 0 247 -99 247 -225c0 -197 -157 -338 -367 -338h-225zM168 125h81c118 0 193 88 193 191c0 73 -44 122 -126 122h-82z" />
    <glyph glyph-name="Dcaron" unicode="&#x10e;" horiz-adv-x="693" 
d="M350 772l-82 107l89 37l67 -63l94 63l75 -37l-128 -107h-115zM4 0l151 710h254c185 0 272 -121 272 -276c0 -250 -182 -434 -423 -434h-254zM198 144h90c134 0 223 125 223 266c0 93 -46 156 -133 156h-90z" />
    <glyph glyph-name="Dcroat" unicode="&#x110;" horiz-adv-x="697" 
d="M32 298l25 118h39l63 294h254c185 0 272 -121 272 -276c0 -250 -182 -434 -423 -434h-254l63 298h-39zM202 144h90c134 0 224 125 224 266c0 93 -46 156 -133 156h-90l-33 -150h119l-26 -118h-118z" />
    <glyph glyph-name="E" unicode="E" horiz-adv-x="576" 
d="M4 0l151 710h467l-31 -144h-303l-29 -138h260l-28 -133h-260l-33 -151h312l-30 -144h-476z" />
    <glyph glyph-name="E.sc" horiz-adv-x="519" 
d="M-2 0l120 563h415l-27 -125h-272l-19 -93h233l-24 -117h-234l-22 -103h279l-27 -125h-422z" />
    <glyph glyph-name="Eacute" unicode="&#xc9;" horiz-adv-x="576" 
d="M546 916l-115 -144l-106 14l77 130h144zM4 0l151 710h467l-31 -144h-303l-29 -138h260l-28 -133h-260l-33 -151h312l-30 -144h-476z" />
    <glyph glyph-name="Ebreve" unicode="&#x114;" horiz-adv-x="576" 
d="M4 0l151 710h467l-31 -144h-303l-29 -138h260l-28 -133h-260l-33 -151h312l-30 -144h-476zM405 839c28 0 59 32 73 77h84c-18 -86 -90 -147 -172 -147c-71 0 -115 44 -115 110c0 12 2 24 5 37h84c-2 -7 -3 -15 -3 -21c0 -32 18 -56 44 -56z" />
    <glyph glyph-name="Ecaron" unicode="&#x11a;" horiz-adv-x="576" 
d="M336 772l-82 107l89 37l67 -63l94 63l75 -37l-128 -107h-115zM4 0l151 710h467l-31 -144h-303l-29 -138h260l-28 -133h-260l-33 -151h312l-30 -144h-476z" />
    <glyph glyph-name="Ecircumflex" unicode="&#xca;" horiz-adv-x="576" 
d="M316 772l-74 36l128 108h114l82 -108l-89 -36l-67 63zM4 0l151 710h467l-31 -144h-303l-29 -138h260l-28 -133h-260l-33 -151h312l-30 -144h-476z" />
    <glyph glyph-name="Edieresis" unicode="&#xcb;" horiz-adv-x="576" 
d="M365 780h-132l28 129h132zM570 780h-132l28 129h131zM4 0l151 710h467l-31 -144h-303l-29 -138h260l-28 -133h-260l-33 -151h312l-30 -144h-476z" />
    <glyph glyph-name="Edotaccent" unicode="&#x116;" horiz-adv-x="576" 
d="M4 0l151 710h467l-31 -144h-303l-29 -138h260l-28 -133h-260l-33 -151h312l-30 -144h-476zM472 779h-144l29 137h144z" />
    <glyph glyph-name="Egrave" unicode="&#xc8;" horiz-adv-x="576" 
d="M4 0l151 710h467l-31 -144h-303l-29 -138h260l-28 -133h-260l-33 -151h312l-30 -144h-476zM365 771l-55 146h144l22 -130z" />
    <glyph glyph-name="Emacron" unicode="&#x112;" horiz-adv-x="576" 
d="M4 0l151 710h467l-31 -144h-303l-29 -138h260l-28 -133h-260l-33 -151h312l-30 -144h-476zM552 806h-290l20 97h291z" />
    <glyph glyph-name="Eng" unicode="&#x14a;" horiz-adv-x="713" 
d="M351 -202c-50 0 -94 17 -125 50l90 109c9 -14 26 -21 45 -21c27 0 51 22 58 55l10 44l-176 366l-85 -401h-164l151 710h126l200 -409l87 408h164l-152 -711c-26 -121 -125 -200 -229 -200z" />
    <glyph glyph-name="Eogonek" unicode="&#x118;" horiz-adv-x="576" 
d="M4 0l151 710h467l-31 -144h-303l-29 -138h260l-28 -133h-260l-33 -151h312l-30 -144h-188c-58 -33 -87 -61 -87 -87c0 -19 18 -32 56 -33l-49 -84c-76 10 -112 43 -112 82c0 40 35 83 105 122h-201z" />
    <glyph glyph-name="Eth" unicode="&#xd0;" horiz-adv-x="697" 
d="M32 298l25 118h39l63 294h254c185 0 272 -121 272 -276c0 -250 -182 -434 -423 -434h-254l63 298h-39zM202 144h90c134 0 224 125 224 266c0 93 -46 156 -133 156h-90l-33 -150h119l-26 -118h-118z" />
    <glyph glyph-name="Etilde" unicode="&#x1ebc;" horiz-adv-x="576" 
d="M4 0l151 710h467l-31 -144h-303l-29 -138h260l-28 -133h-260l-33 -151h312l-30 -144h-476zM459 774c-58 0 -75 46 -117 46c-43 0 -54 -45 -54 -48h-87c6 30 63 142 154 142c61 0 73 -48 117 -48c43 0 59 47 60 50h85c-4 -21 -64 -142 -158 -142z" />
    <glyph glyph-name="Euro" unicode="&#x20ac;" horiz-adv-x="765" 
d="M106 452h39c63 142 208 262 388 262c127 0 212 -63 238 -155l-145 -88c-13 75 -74 97 -128 97c-82 0 -144 -51 -181 -116h207l-53 -86h-187c-4 -16 -7 -33 -7 -48h190l-53 -86h-125c19 -54 59 -92 120 -92c54 0 126 27 167 98l118 -79c-63 -105 -207 -165 -320 -165
c-144 0 -235 109 -258 238h-96l53 86h38c1 16 3 32 6 48h-64z" />
    <glyph glyph-name="F" unicode="F" horiz-adv-x="552" 
d="M4 0l151 710h458l-30 -144h-295l-32 -153h242l-28 -133h-243l-59 -280h-164z" />
    <glyph glyph-name="F.sc" horiz-adv-x="494" 
d="M-2 0l120 563h407l-26 -125h-265l-22 -106h218l-25 -117h-218l-46 -215h-143z" />
    <glyph glyph-name="G" unicode="G" horiz-adv-x="704" 
d="M466 0l15 70c-63 -51 -123 -75 -190 -75c-151 0 -258 117 -258 290c0 235 206 430 425 430c123 0 211 -60 238 -155l-141 -92c-17 63 -70 101 -134 101c-117 0 -219 -124 -219 -265c0 -94 50 -163 134 -163c59 0 120 30 179 88l5 23h-129l25 119h265l-79 -371h-136z" />
    <glyph glyph-name="G.alt" horiz-adv-x="688" 
d="M302 -5c-170 0 -268 140 -268 299c0 205 179 421 416 421c115 0 195 -54 226 -147l-152 -102c-5 27 -29 103 -115 103c-125 0 -209 -146 -209 -271c0 -78 33 -157 117 -157c66 0 130 49 159 101h-122l31 144h299l-17 -77c-38 -171 -186 -314 -365 -314z" />
    <glyph glyph-name="G.sc" horiz-adv-x="599" 
d="M378 0l10 49c-50 -37 -98 -53 -150 -53c-129 0 -218 110 -218 240c0 180 168 331 351 331c103 0 176 -48 198 -123l-124 -81c-13 47 -56 76 -106 76c-93 0 -172 -88 -172 -193c0 -72 42 -122 110 -122c46 0 94 23 141 64l1 6h-113l21 103h233l-63 -297h-119z" />
    <glyph glyph-name="Gbreve" unicode="&#x11e;" horiz-adv-x="704" 
d="M466 0l15 70c-63 -51 -123 -75 -190 -75c-151 0 -258 117 -258 290c0 235 206 430 425 430c123 0 211 -60 238 -155l-141 -92c-17 63 -70 101 -134 101c-117 0 -219 -124 -219 -265c0 -94 50 -163 134 -163c59 0 120 30 179 88l5 23h-129l25 119h265l-79 -371h-136z
M477 839c28 0 59 32 73 77h84c-18 -86 -90 -147 -172 -147c-71 0 -115 44 -115 110c0 12 2 24 5 37h84c-2 -7 -3 -15 -3 -21c0 -32 18 -56 44 -56z" />
    <glyph glyph-name="Gcircumflex" unicode="&#x11c;" horiz-adv-x="704" 
d="M389 772l-74 36l128 108h114l82 -108l-89 -36l-67 63zM466 0l15 70c-63 -51 -123 -75 -190 -75c-151 0 -258 117 -258 290c0 235 206 430 425 430c123 0 211 -60 238 -155l-141 -92c-17 63 -70 101 -134 101c-117 0 -219 -124 -219 -265c0 -94 50 -163 134 -163
c59 0 120 30 179 88l5 23h-129l25 119h265l-79 -371h-136z" />
    <glyph glyph-name="Gcommaaccent" unicode="&#x122;" horiz-adv-x="704" 
d="M279 -213h-70l45 67h-47l21 99h133l-21 -99zM466 0l15 70c-63 -51 -123 -75 -190 -75c-151 0 -258 117 -258 290c0 235 206 430 425 430c123 0 211 -60 238 -155l-141 -92c-17 63 -70 101 -134 101c-117 0 -219 -124 -219 -265c0 -94 50 -163 134 -163
c59 0 120 30 179 88l5 23h-129l25 119h265l-79 -371h-136z" />
    <glyph glyph-name="commaaccent" unicode="&#xf6c3;" horiz-adv-x="215" 
d="M101 -213h-70l45 67h-47l21 99h133l-21 -99z" />
    <glyph glyph-name="Gdotaccent" unicode="&#x120;" horiz-adv-x="704" 
d="M466 0l15 70c-63 -51 -123 -75 -190 -75c-151 0 -258 117 -258 290c0 235 206 430 425 430c123 0 211 -60 238 -155l-141 -92c-17 63 -70 101 -134 101c-117 0 -219 -124 -219 -265c0 -94 50 -163 134 -163c59 0 120 30 179 88l5 23h-129l25 119h265l-79 -371h-136z
M544 779h-144l29 137h144z" />
    <glyph glyph-name="H" unicode="H" horiz-adv-x="721" 
d="M4 0l151 710h164l-59 -275h257l59 275h164l-151 -710h-164l62 291h-257l-62 -291h-164z" />
    <glyph glyph-name="H.sc" horiz-adv-x="643" 
d="M-2 0l120 563h143l-46 -212h233l45 212h144l-120 -563h-144l48 225h-232l-48 -225h-143z" />
    <glyph glyph-name="Hbar" unicode="&#x126;" horiz-adv-x="727" 
d="M75 541l17 76h47l20 93h164l-20 -93h257l20 93h164l-20 -93h47l-16 -76h-47l-115 -541h-164l62 291h-257l-62 -291h-164l115 541h-48zM264 435h257l22 106h-257z" />
    <glyph glyph-name="Hcircumflex" unicode="&#x124;" horiz-adv-x="721" 
d="M380 772l-74 36l128 108h114l82 -108l-89 -36l-67 63zM4 0l151 710h164l-59 -275h257l59 275h164l-151 -710h-164l62 291h-257l-62 -291h-164z" />
    <glyph glyph-name="I" unicode="I" horiz-adv-x="300" 
d="M4 0l151 710h164l-151 -710h-164z" />
    <glyph glyph-name="I.sc" horiz-adv-x="267" 
d="M-2 0l120 563h143l-120 -563h-143z" />
    <glyph glyph-name="IJ" unicode="&#x132;" horiz-adv-x="783" 
d="M4 0l151 710h164l-151 -710h-164zM392 -11c-58 0 -103 15 -137 44l63 134c9 -10 51 -32 105 -32c89 0 114 65 146 214l77 361h165l-77 -361c-46 -216 -106 -360 -342 -360z" />
    <glyph glyph-name="J" unicode="J" horiz-adv-x="483" 
d="M92 -11c-58 0 -103 15 -137 44l63 134c9 -10 51 -32 105 -32c89 0 114 65 146 214l77 361h165l-77 -361c-46 -216 -106 -360 -342 -360z" />
    <glyph glyph-name="Iacute" unicode="&#xcd;" horiz-adv-x="300" 
d="M4 0l151 710h164l-151 -710h-164zM387 916l-115 -144l-106 14l77 130h144z" />
    <glyph glyph-name="Ibreve" unicode="&#x12c;" horiz-adv-x="300" 
d="M4 0l151 710h164l-151 -710h-164zM261 839c28 0 59 32 73 77h84c-18 -86 -90 -147 -172 -147c-71 0 -115 44 -115 110c0 12 2 24 5 37h84c-2 -7 -3 -15 -3 -21c0 -32 18 -56 44 -56z" />
    <glyph glyph-name="Icircumflex" unicode="&#xce;" horiz-adv-x="300" 
d="M4 0l151 710h164l-151 -710h-164zM172 772l-74 36l128 108h114l82 -108l-89 -36l-67 63z" />
    <glyph glyph-name="Idieresis" unicode="&#xcf;" horiz-adv-x="300" 
d="M4 0l151 710h164l-151 -710h-164zM216 780h-132l28 129h132zM421 780h-132l28 129h131z" />
    <glyph glyph-name="Idotaccent" unicode="&#x130;" horiz-adv-x="300" 
d="M4 0l151 710h164l-151 -710h-164zM325 779h-144l29 137h144z" />
    <glyph glyph-name="Igrave" unicode="&#xcc;" horiz-adv-x="300" 
d="M4 0l151 710h164l-151 -710h-164zM213 771l-55 146h144l22 -130z" />
    <glyph glyph-name="Imacron" unicode="&#x12a;" horiz-adv-x="300" 
d="M4 0l151 710h164l-151 -710h-164zM403 806h-290l20 97h291z" />
    <glyph glyph-name="Iogonek" unicode="&#x12e;" horiz-adv-x="300" 
d="M4 0l151 710h164l-151 -710c-59 -34 -89 -62 -89 -88c0 -19 18 -32 56 -33l-49 -84c-76 10 -112 43 -112 82c0 41 36 84 106 123h-76z" />
    <glyph glyph-name="Itilde" unicode="&#x128;" horiz-adv-x="300" 
d="M4 0l151 710h164l-151 -710h-164zM319 774c-58 0 -75 46 -117 46c-43 0 -54 -45 -54 -48h-87c6 30 63 142 154 142c61 0 73 -48 117 -48c43 0 59 47 60 50h85c-4 -21 -64 -142 -158 -142z" />
    <glyph glyph-name="J.sc" horiz-adv-x="434" 
d="M78 -9c-51 0 -92 12 -123 35l56 117c10 -10 46 -24 94 -24c82 0 101 46 125 158l61 286h144l-61 -286c-37 -172 -86 -286 -296 -286z" />
    <glyph glyph-name="Jcircumflex" unicode="&#x134;" horiz-adv-x="483" 
d="M360 772l-74 36l128 108h114l82 -108l-89 -36l-67 63zM92 -11c-58 0 -103 15 -137 44l63 134c9 -10 51 -32 105 -32c89 0 114 65 146 214l77 361h165l-77 -361c-46 -216 -106 -360 -342 -360z" />
    <glyph glyph-name="K" unicode="K" horiz-adv-x="653" 
d="M4 0l151 710h164l-65 -306l300 306h185l-319 -317l184 -393h-188l-123 286l-81 -77l-44 -209h-164z" />
    <glyph glyph-name="K.sc" horiz-adv-x="587" 
d="M-2 0l120 563h143l-52 -241l277 241h149l-277 -251l172 -312h-151l-123 231l-79 -63l-36 -168h-143z" />
    <glyph glyph-name="Kcommaaccent" unicode="&#x136;" horiz-adv-x="653" 
d="M272 -213h-70l45 67h-47l21 99h133l-21 -99zM4 0l151 710h164l-65 -306l300 306h185l-319 -317l184 -393h-188l-123 286l-81 -77l-44 -209h-164z" />
    <glyph glyph-name="L" unicode="L" horiz-adv-x="563" 
d="M4 0l151 710h164l-121 -566h321l-30 -144h-485z" />
    <glyph glyph-name="L.sc" horiz-adv-x="463" 
d="M-2 0l120 563h143l-93 -438h250l-27 -125h-393z" />
    <glyph glyph-name="Lacute" unicode="&#x139;" horiz-adv-x="563" 
d="M395 916l-115 -144l-106 14l77 130h144zM4 0l151 710h164l-121 -566h321l-30 -144h-485z" />
    <glyph glyph-name="Lcaron" unicode="&#x13d;" horiz-adv-x="563" 
d="M453 572l-96 28l77 130h144zM4 0l151 710h164l-121 -566h321l-30 -144h-485z" />
    <glyph glyph-name="caron.alt" horiz-adv-x="259" 
d="M124 572l-96 28l77 130h144z" />
    <glyph glyph-name="Lcommaaccent" unicode="&#x13b;" horiz-adv-x="563" 
d="M226 -213h-70l45 67h-47l21 99h133l-21 -99zM4 0l151 710h164l-121 -566h321l-30 -144h-485z" />
    <glyph glyph-name="Ldot" unicode="&#x13f;" horiz-adv-x="563" 
d="M4 0l151 710h164l-121 -566h321l-30 -144h-485zM472 338h-131l35 166h131z" />
    <glyph glyph-name="periodcentered" unicode="&#xb7;" horiz-adv-x="238" 
d="M171 240h-131l35 166h131z" />
    <glyph glyph-name="Lslash" unicode="&#x141;" horiz-adv-x="571" 
d="M19 246l-19 86l94 49l70 329h164l-50 -233l93 49l19 -86l-135 -71l-48 -225h321l-30 -144h-485l58 273z" />
    <glyph glyph-name="M" unicode="M" horiz-adv-x="825" 
d="M4 0l151 710h178l88 -371l246 371h178l-151 -710h-165l91 425l-203 -309h-88l-70 309l-91 -425h-164z" />
    <glyph glyph-name="M.sc" horiz-adv-x="736" 
d="M-2 0l120 563h156l91 -278l210 278h155l-120 -563h-143l67 314l-172 -224h-77l-77 224l-67 -314h-143z" />
    <glyph glyph-name="N" unicode="N" horiz-adv-x="729" 
d="M4 0l151 710h128l213 -417l88 417h164l-151 -710h-130l-213 406l-86 -406h-164z" />
    <glyph glyph-name="N.sc" horiz-adv-x="652" 
d="M-2 0l120 563h112l207 -306l65 306h143l-119 -563h-115l-207 297l-63 -297h-143z" />
    <glyph glyph-name="NULL" horiz-adv-x="0" 
 />
    <glyph glyph-name="NULL" horiz-adv-x="0" 
 />
    <glyph glyph-name="Nacute" unicode="&#x143;" horiz-adv-x="729" 
d="M608 916l-115 -144l-106 14l77 130h144zM4 0l151 710h128l213 -417l88 417h164l-151 -710h-130l-213 406l-86 -406h-164z" />
    <glyph glyph-name="Ncaron" unicode="&#x147;" horiz-adv-x="729" 
d="M392 772l-82 107l89 37l67 -63l94 63l75 -37l-128 -107h-115zM4 0l151 710h128l213 -417l88 417h164l-151 -710h-130l-213 406l-86 -406h-164z" />
    <glyph glyph-name="Ncommaaccent" unicode="&#x145;" horiz-adv-x="729" 
d="M283 -213h-70l45 67h-47l21 99h133l-21 -99zM4 0l151 710h128l213 -417l88 417h164l-151 -710h-130l-213 406l-86 -406h-164z" />
    <glyph glyph-name="Ndotaccent" unicode="&#x1e44;" horiz-adv-x="729" 
d="M531 779h-144l29 137h144zM4 0l151 710h128l213 -417l88 417h164l-151 -710h-130l-213 406l-86 -406h-164z" />
    <glyph glyph-name="Ntilde" unicode="&#xd1;" horiz-adv-x="729" 
d="M4 0l151 710h128l213 -417l88 417h164l-151 -710h-130l-213 406l-86 -406h-164zM528 774c-58 0 -75 46 -117 46c-43 0 -54 -45 -54 -48h-87c6 30 63 142 154 142c61 0 73 -48 117 -48c43 0 59 47 60 50h85c-4 -21 -64 -142 -158 -142z" />
    <glyph glyph-name="O" unicode="O" horiz-adv-x="733" 
d="M301 -6c-173 0 -268 142 -268 297c0 215 200 423 424 423c172 0 266 -144 266 -297c0 -213 -199 -423 -422 -423zM333 140c138 0 222 147 222 266c0 87 -41 162 -132 162c-137 0 -222 -144 -222 -264c0 -87 41 -164 132 -164z" />
    <glyph glyph-name="O.sc" horiz-adv-x="631" 
d="M250 -5c-147 0 -231 115 -231 239c0 170 167 332 355 332c149 0 230 -116 230 -239c0 -167 -165 -332 -354 -332zM279 123c110 0 178 105 178 192c0 66 -37 123 -112 123c-110 0 -178 -102 -178 -190c0 -66 35 -125 112 -125z" />
    <glyph glyph-name="OE" unicode="&#x152;" horiz-adv-x="1006" 
d="M286 -5c-163 0 -253 140 -253 293c0 217 195 427 410 427c63 0 111 -33 144 -79l15 74h451l-31 -144h-286l-29 -133h236l-31 -143h-235l-32 -146h296l-31 -144h-459l16 75c-53 -47 -117 -80 -181 -80zM318 141c128 0 209 150 209 269c0 85 -38 159 -118 159
c-126 0 -209 -149 -209 -269c0 -85 38 -159 118 -159z" />
    <glyph glyph-name="Oacute" unicode="&#xd3;" horiz-adv-x="733" 
d="M620 916l-115 -144l-106 14l77 130h144zM301 -6c-173 0 -268 142 -268 297c0 215 200 423 424 423c172 0 266 -144 266 -297c0 -213 -199 -423 -422 -423zM333 140c138 0 222 147 222 266c0 87 -41 162 -132 162c-137 0 -222 -144 -222 -264c0 -87 41 -164 132 -164z" />
    <glyph glyph-name="Obreve" unicode="&#x14e;" horiz-adv-x="733" 
d="M301 -6c-173 0 -268 142 -268 297c0 215 200 423 424 423c172 0 266 -144 266 -297c0 -213 -199 -423 -422 -423zM333 140c138 0 222 147 222 266c0 87 -41 162 -132 162c-137 0 -222 -144 -222 -264c0 -87 41 -164 132 -164zM481 839c28 0 59 32 73 77h84
c-18 -86 -90 -147 -172 -147c-71 0 -115 44 -115 110c0 12 2 24 5 37h84c-2 -7 -3 -15 -3 -21c0 -32 18 -56 44 -56z" />
    <glyph glyph-name="Ocircumflex" unicode="&#xd4;" horiz-adv-x="733" 
d="M390 772l-74 36l128 108h114l82 -108l-89 -36l-67 63zM301 -6c-173 0 -268 142 -268 297c0 215 200 423 424 423c172 0 266 -144 266 -297c0 -213 -199 -423 -422 -423zM333 140c138 0 222 147 222 266c0 87 -41 162 -132 162c-137 0 -222 -144 -222 -264
c0 -87 41 -164 132 -164z" />
    <glyph glyph-name="Odieresis" unicode="&#xd6;" horiz-adv-x="733" 
d="M433 780h-132l28 129h132zM638 780h-132l28 129h131zM301 -6c-173 0 -268 142 -268 297c0 215 200 423 424 423c172 0 266 -144 266 -297c0 -213 -199 -423 -422 -423zM333 140c138 0 222 147 222 266c0 87 -41 162 -132 162c-137 0 -222 -144 -222 -264
c0 -87 41 -164 132 -164z" />
    <glyph glyph-name="Ograve" unicode="&#xd2;" horiz-adv-x="733" 
d="M301 -6c-173 0 -268 142 -268 297c0 215 200 423 424 423c172 0 266 -144 266 -297c0 -213 -199 -423 -422 -423zM333 140c138 0 222 147 222 266c0 87 -41 162 -132 162c-137 0 -222 -144 -222 -264c0 -87 41 -164 132 -164zM433 771l-55 146h144l22 -130z" />
    <glyph glyph-name="Ohungarumlaut" unicode="&#x150;" horiz-adv-x="733" 
d="M504 899l-106 -142l-81 12l68 130h119zM674 899l-106 -142l-81 12l67 130h120zM301 -6c-173 0 -268 142 -268 297c0 215 200 423 424 423c172 0 266 -144 266 -297c0 -213 -199 -423 -422 -423zM333 140c138 0 222 147 222 266c0 87 -41 162 -132 162
c-137 0 -222 -144 -222 -264c0 -87 41 -164 132 -164z" />
    <glyph glyph-name="hungarumlaut" unicode="&#x2dd;" horiz-adv-x="366" 
d="M198 730l-106 -142l-81 12l68 130h119zM368 730l-106 -142l-81 12l67 130h120z" />
    <glyph glyph-name="Omacron" unicode="&#x14c;" horiz-adv-x="733" 
d="M620 806h-290l20 97h291zM301 -6c-173 0 -268 142 -268 297c0 215 200 423 424 423c172 0 266 -144 266 -297c0 -213 -199 -423 -422 -423zM333 140c138 0 222 147 222 266c0 87 -41 162 -132 162c-137 0 -222 -144 -222 -264c0 -87 41 -164 132 -164z" />
    <glyph glyph-name="Oogonek" unicode="&#x1ea;" horiz-adv-x="733" 
d="M277 -204c-76 10 -112 43 -112 82s33 81 98 119c-149 18 -230 150 -230 294c0 215 200 423 424 423c172 0 266 -144 266 -297c0 -196 -169 -390 -370 -419c-55 -32 -83 -60 -83 -85c0 -19 18 -32 56 -33zM333 140c138 0 222 147 222 266c0 87 -41 162 -132 162
c-137 0 -222 -144 -222 -264c0 -87 41 -164 132 -164z" />
    <glyph glyph-name="Oslash" unicode="&#xd8;" horiz-adv-x="733" 
d="M607 710h176l-106 -119c30 -51 46 -112 46 -174c0 -213 -199 -423 -422 -423c-49 0 -92 11 -128 31l-23 -25h-176l104 117c-30 50 -45 111 -45 174c0 215 200 423 424 423c48 0 90 -12 126 -31zM333 140c138 0 222 147 222 266c0 15 -2 30 -4 44l-268 -301
c14 -6 31 -9 50 -9zM201 304c0 -15 1 -30 4 -45l267 300c-14 5 -31 9 -49 9c-137 0 -222 -144 -222 -264z" />
    <glyph glyph-name="slash" unicode="/" horiz-adv-x="729" 
d="M606 710h176l-633 -710h-176z" />
    <glyph glyph-name="Oslashacute" unicode="&#x1fe;" horiz-adv-x="733" 
d="M605 710h176l-105 -118c31 -50 47 -112 47 -175c0 -213 -199 -423 -422 -423c-50 0 -93 12 -130 32l-23 -26h-176l106 119c-30 49 -45 109 -45 172c0 215 200 423 424 423c47 0 89 -12 124 -31zM333 140c138 0 222 147 222 266c0 16 -1 31 -4 46l-270 -302
c15 -7 32 -10 52 -10zM201 304c0 -15 1 -29 3 -43l267 298c-14 6 -30 9 -48 9c-137 0 -222 -144 -222 -264zM623 916l-115 -144l-106 14l77 130h144z" />
    <glyph glyph-name="Otilde" unicode="&#xd5;" horiz-adv-x="733" 
d="M301 -6c-173 0 -268 142 -268 297c0 215 200 423 424 423c172 0 266 -144 266 -297c0 -213 -199 -423 -422 -423zM333 140c138 0 222 147 222 266c0 87 -41 162 -132 162c-137 0 -222 -144 -222 -264c0 -87 41 -164 132 -164zM535 774c-58 0 -75 46 -117 46
c-43 0 -54 -45 -54 -48h-87c6 30 63 142 154 142c61 0 73 -48 117 -48c43 0 59 47 60 50h85c-4 -21 -64 -142 -158 -142z" />
    <glyph glyph-name="P" unicode="P" horiz-adv-x="602" 
d="M4 0l151 710h289c110 0 176 -98 176 -200c0 -136 -125 -281 -274 -281h-130l-48 -229h-164zM247 372h119c41 0 86 48 86 124c0 48 -24 70 -50 70h-114z" />
    <glyph glyph-name="P.sc" horiz-adv-x="539" 
d="M-2 0l120 563h256c100 0 160 -80 160 -163c0 -109 -107 -224 -238 -224h-117l-38 -176h-143zM205 302h109c36 0 73 27 73 84c0 37 -23 52 -48 52h-105z" />
    <glyph glyph-name="Q" unicode="Q" horiz-adv-x="732" 
d="M497 0l-25 36c-53 -26 -112 -41 -172 -41c-172 0 -268 141 -268 296c0 215 201 424 424 424c173 0 266 -145 266 -298c0 -114 -57 -227 -144 -307l74 -110h-155zM333 141c22 0 43 4 63 11l-85 128h153l33 -50c37 51 58 117 58 176c0 87 -42 163 -132 163
c-137 0 -223 -145 -223 -265c0 -86 42 -163 133 -163z" />
    <glyph glyph-name="Q.sc" horiz-adv-x="633" 
d="M426 0l-24 32c-47 -23 -99 -36 -153 -36c-147 0 -231 114 -231 238c0 169 168 333 355 333c149 0 230 -117 230 -240c0 -86 -43 -171 -111 -233l69 -94h-135zM279 124c18 0 35 3 50 8l-72 99h135l24 -34c26 35 40 78 40 118c0 66 -36 124 -111 124
c-110 0 -179 -103 -179 -191c0 -66 36 -124 113 -124z" />
    <glyph glyph-name="R" unicode="R" horiz-adv-x="647" 
d="M168 0h-164l151 710h305c111 0 176 -98 176 -200c0 -98 -64 -198 -155 -246l91 -264h-185l-78 229h-93zM247 372h136c39 0 84 55 84 121c0 44 -22 73 -48 73h-131z" />
    <glyph glyph-name="R.sc" horiz-adv-x="586" 
d="M-2 0l120 563h270c101 0 161 -80 161 -163c0 -78 -55 -152 -134 -192l94 -208h-164l-81 176h-85l-38 -176h-143zM205 302h124c35 0 72 34 72 82c0 33 -22 54 -48 54h-119z" />
    <glyph glyph-name="Racute" unicode="&#x154;" horiz-adv-x="647" 
d="M566 918l-115 -144l-106 14l77 130h144zM168 0h-164l151 710h305c111 0 176 -98 176 -200c0 -98 -64 -198 -155 -246l91 -264h-185l-78 229h-93zM247 372h136c39 0 84 55 84 121c0 44 -22 73 -48 73h-131z" />
    <glyph glyph-name="Rcaron" unicode="&#x158;" horiz-adv-x="647" 
d="M351 774l-82 107l89 37l67 -63l94 63l75 -37l-128 -107h-115zM168 0h-164l151 710h305c111 0 176 -98 176 -200c0 -98 -64 -198 -155 -246l91 -264h-185l-78 229h-93zM247 372h136c39 0 84 55 84 121c0 44 -22 73 -48 73h-131z" />
    <glyph glyph-name="Rcommaaccent" unicode="&#x156;" horiz-adv-x="647" 
d="M238 -213h-70l45 67h-47l21 99h133l-21 -99zM168 0h-164l151 710h305c111 0 176 -98 176 -200c0 -98 -64 -198 -155 -246l91 -264h-185l-78 229h-93zM247 372h136c39 0 84 55 84 121c0 44 -22 73 -48 73h-131z" />
    <glyph glyph-name="S" unicode="S" horiz-adv-x="594" 
d="M244 -8c-99 0 -202 33 -271 88l102 143c6 -14 99 -83 203 -83c63 0 88 26 88 63c0 45 -64 59 -141 86c-95 34 -143 77 -143 155c0 172 150 272 305 272c96 0 177 -41 229 -78l-100 -136c-4 11 -84 68 -165 68c-56 0 -89 -26 -89 -70c0 -39 44 -52 119 -76
c102 -33 170 -73 170 -172c0 -189 -159 -260 -307 -260z" />
    <glyph glyph-name="S.sc" horiz-adv-x="519" 
d="M205 -7c-85 0 -175 27 -235 68l90 125c11 -20 86 -64 175 -64c47 0 68 16 68 40c0 31 -54 41 -120 62c-83 27 -124 64 -124 129c0 136 127 215 259 215c82 0 152 -33 197 -62l-87 -119c-10 14 -74 53 -142 53c-45 0 -70 -15 -70 -42c0 -28 39 -39 103 -57
c88 -25 146 -59 146 -139c0 -154 -135 -209 -260 -209z" />
    <glyph glyph-name="Sacute" unicode="&#x15a;" horiz-adv-x="594" 
d="M557 930l-115 -144l-106 14l77 130h144zM244 -8c-99 0 -202 33 -271 88l102 143c6 -14 99 -83 203 -83c63 0 88 26 88 63c0 45 -64 59 -141 86c-95 34 -143 77 -143 155c0 172 150 272 305 272c96 0 177 -41 229 -78l-100 -136c-4 11 -84 68 -165 68
c-56 0 -89 -26 -89 -70c0 -39 44 -52 119 -76c102 -33 170 -73 170 -172c0 -189 -159 -260 -307 -260z" />
    <glyph glyph-name="Scaron" unicode="&#x160;" horiz-adv-x="594" 
d="M345 786l-82 107l89 37l67 -63l94 63l75 -37l-128 -107h-115zM244 -8c-99 0 -202 33 -271 88l102 143c6 -14 99 -83 203 -83c63 0 88 26 88 63c0 45 -64 59 -141 86c-95 34 -143 77 -143 155c0 172 150 272 305 272c96 0 177 -41 229 -78l-100 -136c-4 11 -84 68 -165 68
c-56 0 -89 -26 -89 -70c0 -39 44 -52 119 -76c102 -33 170 -73 170 -172c0 -189 -159 -260 -307 -260z" />
    <glyph glyph-name="Scircumflex" unicode="&#x15c;" horiz-adv-x="594" 
d="M330 786l-74 36l128 108h114l82 -108l-89 -36l-67 63zM244 -8c-99 0 -202 33 -271 88l102 143c6 -14 99 -83 203 -83c63 0 88 26 88 63c0 45 -64 59 -141 86c-95 34 -143 77 -143 155c0 172 150 272 305 272c96 0 177 -41 229 -78l-100 -136c-4 11 -84 68 -165 68
c-56 0 -89 -26 -89 -70c0 -39 44 -52 119 -76c102 -33 170 -73 170 -172c0 -189 -159 -260 -307 -260z" />
    <glyph glyph-name="T" unicode="T" horiz-adv-x="596" 
d="M152 0l121 566h-203l30 144h569l-30 -144h-202l-121 -566h-164z" />
    <glyph glyph-name="T.sc" horiz-adv-x="536" 
d="M132 0l94 438h-182l26 125h506l-27 -125h-179l-94 -438h-144z" />
    <glyph glyph-name="Tbar" unicode="&#x166;" horiz-adv-x="619" 
d="M59 292l17 76h165l42 198h-202l30 144h569l-31 -144h-202l-42 -198h166l-16 -76h-166l-61 -292h-165l62 292h-166z" />
    <glyph glyph-name="Tcaron" unicode="&#x164;" horiz-adv-x="596" 
d="M334 772l-82 107l89 37l67 -63l94 63l75 -37l-128 -107h-115zM152 0l121 566h-203l30 144h569l-30 -144h-202l-121 -566h-164z" />
    <glyph glyph-name="Thorn" unicode="&#xde;" horiz-adv-x="584" 
d="M4 0l151 710h164l-26 -124h109c111 0 177 -97 177 -199c0 -137 -125 -281 -274 -281h-115l-22 -106h-164zM221 250h106c41 0 86 56 86 120c0 44 -22 73 -50 73h-101z" />
    <glyph glyph-name="U" unicode="U" horiz-adv-x="717" 
d="M293 -6c-172 0 -238 105 -238 242c0 35 4 73 12 111l78 363h164l-78 -363c-6 -29 -9 -56 -9 -81c0 -72 28 -126 102 -126c102 0 158 102 181 207l77 363h164l-77 -363c-42 -196 -168 -353 -376 -353z" />
    <glyph glyph-name="U.sc" horiz-adv-x="629" 
d="M250 -5c-153 0 -212 86 -212 198c0 26 3 53 9 81l62 289h143l-61 -289c-4 -18 -6 -35 -6 -52c0 -56 25 -99 91 -99c90 0 135 74 151 151l61 289h144l-61 -289c-33 -156 -141 -279 -321 -279z" />
    <glyph glyph-name="Uacute" unicode="&#xda;" horiz-adv-x="716" 
d="M605 916l-115 -144l-106 14l77 130h144zM292 -6c-172 0 -238 105 -238 242c0 35 4 73 12 111l78 363h164l-78 -363c-6 -29 -9 -56 -9 -81c0 -72 28 -126 102 -126c102 0 158 102 181 207l77 363h164l-77 -363c-42 -196 -168 -353 -376 -353z" />
    <glyph glyph-name="Ubreve" unicode="&#x16c;" horiz-adv-x="716" 
d="M292 -6c-172 0 -238 105 -238 242c0 35 4 73 12 111l78 363h164l-78 -363c-6 -29 -9 -56 -9 -81c0 -72 28 -126 102 -126c102 0 158 102 181 207l77 363h164l-77 -363c-42 -196 -168 -353 -376 -353zM456 839c28 0 59 32 73 77h84c-18 -86 -90 -147 -172 -147
c-71 0 -115 44 -115 110c0 12 2 24 5 37h84c-2 -7 -3 -15 -3 -21c0 -32 18 -56 44 -56z" />
    <glyph glyph-name="Ucircumflex" unicode="&#xdb;" horiz-adv-x="716" 
d="M375 772l-74 36l128 108h114l82 -108l-89 -36l-67 63zM292 -6c-172 0 -238 105 -238 242c0 35 4 73 12 111l78 363h164l-78 -363c-6 -29 -9 -56 -9 -81c0 -72 28 -126 102 -126c102 0 158 102 181 207l77 363h164l-77 -363c-42 -196 -168 -353 -376 -353z" />
    <glyph glyph-name="Udieresis" unicode="&#xdc;" horiz-adv-x="716" 
d="M419 780h-132l28 129h132zM624 780h-132l28 129h131zM292 -6c-172 0 -238 105 -238 242c0 35 4 73 12 111l78 363h164l-78 -363c-6 -29 -9 -56 -9 -81c0 -72 28 -126 102 -126c102 0 158 102 181 207l77 363h164l-77 -363c-42 -196 -168 -353 -376 -353z" />
    <glyph glyph-name="Ugrave" unicode="&#xd9;" horiz-adv-x="716" 
d="M292 -6c-172 0 -238 105 -238 242c0 35 4 73 12 111l78 363h164l-78 -363c-6 -29 -9 -56 -9 -81c0 -72 28 -126 102 -126c102 0 158 102 181 207l77 363h164l-77 -363c-42 -196 -168 -353 -376 -353zM420 771l-55 146h144l22 -130z" />
    <glyph glyph-name="Uhungarumlaut" unicode="&#x170;" horiz-adv-x="716" 
d="M292 -6c-172 0 -238 105 -238 242c0 35 4 73 12 111l78 363h164l-78 -363c-6 -29 -9 -56 -9 -81c0 -72 28 -126 102 -126c102 0 158 102 181 207l77 363h164l-77 -363c-42 -196 -168 -353 -376 -353zM486 917l-106 -142l-81 12l68 130h119zM656 917l-106 -142l-81 12
l67 130h120z" />
    <glyph glyph-name="Umacron" unicode="&#x16a;" horiz-adv-x="716" 
d="M292 -6c-172 0 -238 105 -238 242c0 35 4 73 12 111l78 363h164l-78 -363c-6 -29 -9 -56 -9 -81c0 -72 28 -126 102 -126c102 0 158 102 181 207l77 363h164l-77 -363c-42 -196 -168 -353 -376 -353zM606 806h-290l20 97h291z" />
    <glyph glyph-name="Uogonek" unicode="&#x172;" horiz-adv-x="716" 
d="M271 -204c-76 10 -112 43 -112 82s32 80 97 118c-146 13 -202 113 -202 240c0 35 4 73 12 111l78 363h164l-78 -363c-6 -29 -9 -56 -9 -81c0 -72 28 -126 102 -126c102 0 158 102 181 207l77 363h164l-77 -363c-38 -178 -146 -324 -321 -349c-55 -32 -83 -60 -83 -85
c0 -19 18 -32 56 -33z" />
    <glyph glyph-name="Uring" unicode="&#x16e;" horiz-adv-x="716" 
d="M362 818c0 63 51 98 124 98c55 0 88 -23 88 -66c0 -62 -51 -97 -123 -97c-55 0 -89 23 -89 65zM475 869c-24 0 -45 -17 -45 -40c0 -17 12 -29 31 -29c23 0 46 17 46 41c0 16 -13 28 -32 28zM292 -6c-172 0 -238 105 -238 242c0 35 4 73 12 111l78 363h164l-78 -363
c-6 -29 -9 -56 -9 -81c0 -72 28 -126 102 -126c102 0 158 102 181 207l77 363h164l-77 -363c-42 -196 -168 -353 -376 -353z" />
    <glyph glyph-name="Utilde" unicode="&#x168;" horiz-adv-x="716" 
d="M292 -6c-172 0 -238 105 -238 242c0 35 4 73 12 111l78 363h164l-78 -363c-6 -29 -9 -56 -9 -81c0 -72 28 -126 102 -126c102 0 158 102 181 207l77 363h164l-77 -363c-42 -196 -168 -353 -376 -353zM519 774c-58 0 -75 46 -117 46c-43 0 -54 -45 -54 -48h-87
c6 30 63 142 154 142c61 0 73 -48 117 -48c43 0 59 47 60 50h85c-4 -21 -64 -142 -158 -142z" />
    <glyph glyph-name="V" unicode="V" horiz-adv-x="644" 
d="M187 0l-105 710h173l44 -504l257 504h172l-404 -710h-137z" />
    <glyph glyph-name="V.sc" horiz-adv-x="576" 
d="M162 0l-110 563h152l61 -360l211 360h152l-347 -563h-119z" />
    <glyph glyph-name="W" unicode="W" horiz-adv-x="1002" 
d="M193 0l-117 710h178l52 -522l102 191l-40 330h150l18 -227l114 227h151l-183 -330l23 -191l273 522h180l-420 -710h-136l-46 278l-162 -278h-137z" />
    <glyph glyph-name="W.alt" horiz-adv-x="1078" 
d="M147 0l-59 710h186l26 -463l233 463h178l37 -462l223 463h187l-361 -710h-170l-62 441l-248 -442h-170z" />
    <glyph glyph-name="W.sc" horiz-adv-x="900" 
d="M170 0l-119 563h155l72 -390l75 124l-42 265h132l22 -176l97 176h133l-157 -265l24 -124l236 390h158l-360 -563h-119l-50 210l-137 -210h-120z" />
    <glyph glyph-name="Wacute" unicode="&#x1e82;" horiz-adv-x="1002" 
d="M744 916l-115 -144l-106 14l77 130h144zM193 0l-117 710h178l52 -522l102 191l-40 330h150l18 -227l114 227h151l-183 -330l23 -191l273 522h180l-420 -710h-136l-46 278l-162 -278h-137z" />
    <glyph glyph-name="Wcircumflex" unicode="&#x174;" horiz-adv-x="1002" 
d="M516 772l-74 36l128 108h114l82 -108l-89 -36l-67 63zM193 0l-117 710h178l52 -522l102 191l-40 330h150l18 -227l114 227h151l-183 -330l23 -191l273 522h180l-420 -710h-136l-46 278l-162 -278h-137z" />
    <glyph glyph-name="Wdieresis" unicode="&#x1e84;" horiz-adv-x="1002" 
d="M560 780h-132l28 129h132zM765 780h-132l28 129h131zM193 0l-117 710h178l52 -522l102 191l-40 330h150l18 -227l114 227h151l-183 -330l23 -191l273 522h180l-420 -710h-136l-46 278l-162 -278h-137z" />
    <glyph glyph-name="Wgrave" unicode="&#x1e80;" horiz-adv-x="1002" 
d="M193 0l-117 710h178l52 -522l102 191l-40 330h150l18 -227l114 227h151l-183 -330l23 -191l273 522h180l-420 -710h-136l-46 278l-162 -278h-137zM559 771l-55 146h144l22 -130z" />
    <glyph glyph-name="X" unicode="X" horiz-adv-x="625" 
d="M-62 0l298 350l-155 360h178l89 -245l192 245h177l-308 -360l149 -350h-177l-83 235l-182 -235h-178z" />
    <glyph glyph-name="X.sc" horiz-adv-x="565" 
d="M-58 0l259 278l-146 285h156l88 -185l165 185h156l-267 -285l141 -278h-156l-82 177l-157 -177h-157z" />
    <glyph glyph-name="Y" unicode="Y" horiz-adv-x="623" 
d="M160 0l53 244l-136 466h178l69 -326l211 326h178l-338 -468l-51 -242h-164z" />
    <glyph glyph-name="Y.sc" horiz-adv-x="556" 
d="M138 0l41 190l-130 373h155l73 -250l179 250h157l-291 -374l-41 -189h-143z" />
    <glyph glyph-name="Yacute" unicode="&#xdd;" horiz-adv-x="623" 
d="M160 0l53 244l-136 466h178l69 -326l211 326h178l-338 -468l-51 -242h-164zM549 916l-115 -144l-106 14l77 130h144z" />
    <glyph glyph-name="Ycircumflex" unicode="&#x176;" horiz-adv-x="623" 
d="M160 0l53 244l-136 466h178l69 -326l211 326h178l-338 -468l-51 -242h-164zM323 772l-74 36l128 108h114l82 -108l-89 -36l-67 63z" />
    <glyph glyph-name="Ydieresis" unicode="&#x178;" horiz-adv-x="623" 
d="M160 0l53 244l-136 466h178l69 -326l211 326h178l-338 -468l-51 -242h-164zM370 780h-132l28 129h132zM575 780h-132l28 129h131z" />
    <glyph glyph-name="Ygrave" unicode="&#x1ef2;" horiz-adv-x="623" 
d="M160 0l53 244l-136 466h178l69 -326l211 326h178l-338 -468l-51 -242h-164zM370 771l-55 146h144l22 -130z" />
    <glyph glyph-name="Ytilde" unicode="&#x1ef8;" horiz-adv-x="623" 
d="M160 0l53 244l-136 466h178l69 -326l211 326h178l-338 -468l-51 -242h-164zM469 774c-58 0 -75 46 -117 46c-43 0 -54 -45 -54 -48h-87c6 30 63 142 154 142c61 0 73 -48 117 -48c43 0 59 47 60 50h85c-4 -21 -64 -142 -158 -142z" />
    <glyph glyph-name="Z" unicode="Z" horiz-adv-x="595" 
d="M-36 0l26 123l435 443h-327l30 144h518l-27 -123l-419 -443h329l-30 -144h-535z" />
    <glyph glyph-name="Z.sc" horiz-adv-x="542" 
d="M-33 0l23 107l376 331h-295l27 125h461l-22 -107l-363 -331h296l-27 -125h-476z" />
    <glyph glyph-name="Zacute" unicode="&#x179;" horiz-adv-x="595" 
d="M537 916l-115 -144l-106 14l77 130h144zM-36 0l26 123l435 443h-327l30 144h518l-27 -123l-419 -443h329l-30 -144h-535z" />
    <glyph glyph-name="Zcaron" unicode="&#x17d;" horiz-adv-x="595" 
d="M330 772l-82 107l89 37l67 -63l94 63l75 -37l-128 -107h-115zM-36 0l26 123l435 443h-327l30 144h518l-27 -123l-419 -443h329l-30 -144h-535z" />
    <glyph glyph-name="Zdotaccent" unicode="&#x17b;" horiz-adv-x="595" 
d="M-36 0l26 123l435 443h-327l30 144h518l-27 -123l-419 -443h329l-30 -144h-535zM467 779h-144l29 137h144z" />
    <glyph glyph-name="a" unicode="a" horiz-adv-x="634" 
d="M197 -10c-116 0 -186 91 -186 213c0 177 134 332 286 332c68 0 119 -38 137 -96l18 83h161l-74 -342c-1 -9 -2 -15 -2 -21c0 -16 7 -23 25 -24l-28 -135c-30 -6 -52 -8 -68 -8c-52 0 -85 19 -85 67c0 7 1 16 3 28c-49 -65 -120 -97 -187 -97zM269 125c40 0 84 28 115 73
l23 110c-7 53 -44 91 -87 91c-73 0 -140 -83 -140 -170c0 -60 33 -104 89 -104z" />
    <glyph glyph-name="a.alt" horiz-adv-x="620" 
d="M197 -10c-115 0 -186 90 -186 214c0 178 137 331 286 331c69 0 120 -38 137 -96l17 79h160l-110 -518h-159l17 78c-42 -57 -94 -88 -162 -88zM268 125c44 0 82 28 116 73l23 109c-8 55 -43 92 -88 92c-71 0 -139 -85 -139 -169c0 -60 33 -105 88 -105z" />
    <glyph glyph-name="a.alt2" horiz-adv-x="554" 
d="M130 -10c-86 0 -142 58 -142 138c0 122 119 204 256 204c44 0 81 -9 104 -22l5 24c2 9 3 18 3 27c0 41 -25 64 -80 64c-54 0 -106 -20 -168 -58l-25 100c74 44 150 68 232 68c131 0 201 -57 201 -160c0 -19 -2 -39 -7 -60l-67 -315h-154l14 69c-45 -52 -105 -79 -172 -79
zM202 105c28 0 62 12 87 33c15 12 27 25 30 38l10 50c-22 11 -52 17 -77 17c-54 0 -107 -32 -107 -84c0 -32 22 -54 57 -54z" />
    <glyph glyph-name="aacute" unicode="&#xe1;" horiz-adv-x="634" 
d="M197 -10c-116 0 -186 91 -186 213c0 177 134 332 286 332c68 0 119 -38 137 -96l18 83h161l-74 -342c-1 -9 -2 -15 -2 -21c0 -16 7 -23 25 -24l-28 -135c-30 -6 -52 -8 -68 -8c-52 0 -85 19 -85 67c0 7 1 16 3 28c-49 -65 -120 -97 -187 -97zM269 125c40 0 84 28 115 73
l23 110c-7 53 -44 91 -87 91c-73 0 -140 -83 -140 -170c0 -60 33 -104 89 -104zM482 730l-115 -144l-106 14l77 130h144z" />
    <glyph glyph-name="abreve" unicode="&#x103;" horiz-adv-x="634" 
d="M197 -10c-116 0 -186 91 -186 213c0 177 134 332 286 332c68 0 119 -38 137 -96l18 83h161l-74 -342c-1 -9 -2 -15 -2 -21c0 -16 7 -23 25 -24l-28 -135c-30 -6 -52 -8 -68 -8c-52 0 -85 19 -85 67c0 7 1 16 3 28c-49 -65 -120 -97 -187 -97zM269 125c40 0 84 28 115 73
l23 110c-7 53 -44 91 -87 91c-73 0 -140 -83 -140 -170c0 -60 33 -104 89 -104zM335 653c28 0 59 32 73 77h84c-18 -86 -90 -147 -172 -147c-71 0 -115 44 -115 110c0 12 2 24 5 37h84c-2 -7 -3 -15 -3 -21c0 -32 18 -56 44 -56z" />
    <glyph glyph-name="acircumflex" unicode="&#xe2;" horiz-adv-x="634" 
d="M197 -10c-116 0 -186 91 -186 213c0 177 134 332 286 332c68 0 119 -38 137 -96l18 83h161l-74 -342c-1 -9 -2 -15 -2 -21c0 -16 7 -23 25 -24l-28 -135c-30 -6 -52 -8 -68 -8c-52 0 -85 19 -85 67c0 7 1 16 3 28c-49 -65 -120 -97 -187 -97zM269 125c40 0 84 28 115 73
l23 110c-7 53 -44 91 -87 91c-73 0 -140 -83 -140 -170c0 -60 33 -104 89 -104zM247 586l-74 36l128 108h114l82 -108l-89 -36l-67 63z" />
    <glyph glyph-name="adieresis" unicode="&#xe4;" horiz-adv-x="634" 
d="M197 -10c-116 0 -186 91 -186 213c0 177 134 332 286 332c68 0 119 -38 137 -96l18 83h161l-74 -342c-1 -9 -2 -15 -2 -21c0 -16 7 -23 25 -24l-28 -135c-30 -6 -52 -8 -68 -8c-52 0 -85 19 -85 67c0 7 1 16 3 28c-49 -65 -120 -97 -187 -97zM269 125c40 0 84 28 115 73
l23 110c-7 53 -44 91 -87 91c-73 0 -140 -83 -140 -170c0 -60 33 -104 89 -104zM294 593h-132l28 129h132zM499 593h-132l28 129h131z" />
    <glyph glyph-name="ae" unicode="&#xe6;" horiz-adv-x="898" 
d="M131 -10c-87 0 -143 58 -143 138c0 116 114 204 256 204c40 0 76 -8 101 -20c4 19 11 36 11 53c0 38 -26 60 -80 60s-106 -20 -167 -58l-26 100c75 45 152 68 232 68c76 0 130 -23 162 -64c50 39 113 64 184 64c145 0 218 -100 218 -219c0 -51 -13 -83 -22 -103h-365
c-1 -8 -2 -14 -2 -23c0 -55 38 -85 86 -85c42 0 92 25 113 63l128 -38c-56 -82 -155 -140 -271 -140c-99 0 -165 42 -196 105c-64 -75 -157 -105 -219 -105zM204 105c41 0 96 25 120 53c-1 6 -2 13 -2 21c0 15 2 31 5 49c-22 9 -52 15 -76 15c-57 0 -107 -36 -107 -84
c0 -30 21 -54 60 -54zM509 310h203c1 7 1 12 1 21c0 53 -29 89 -80 89c-56 0 -105 -44 -124 -110z" />
    <glyph glyph-name="aeacute" unicode="&#x1fd;" horiz-adv-x="897" 
d="M646 730l-115 -144l-106 14l77 130h144zM130 -10c-87 0 -143 58 -143 138c0 116 114 204 256 204c40 0 76 -8 101 -20c4 19 11 36 11 53c0 38 -26 60 -80 60s-106 -20 -167 -58l-26 100c75 45 152 68 232 68c76 0 130 -23 162 -64c50 39 113 64 184 64
c145 0 218 -100 218 -219c0 -51 -13 -83 -22 -103h-365c-1 -8 -2 -14 -2 -23c0 -55 38 -85 86 -85c42 0 92 25 113 63l128 -38c-56 -82 -155 -140 -271 -140c-99 0 -165 42 -196 105c-64 -75 -157 -105 -219 -105zM203 105c41 0 96 25 120 53c-1 6 -2 13 -2 21
c0 15 2 31 5 49c-22 9 -52 15 -76 15c-57 0 -107 -36 -107 -84c0 -30 21 -54 60 -54zM508 310h203c1 7 1 12 1 21c0 53 -29 89 -80 89c-56 0 -105 -44 -124 -110z" />
    <glyph glyph-name="agrave" unicode="&#xe0;" horiz-adv-x="634" 
d="M197 -10c-116 0 -186 91 -186 213c0 177 134 332 286 332c68 0 119 -38 137 -96l18 83h161l-74 -342c-1 -9 -2 -15 -2 -21c0 -16 7 -23 25 -24l-28 -135c-30 -6 -52 -8 -68 -8c-52 0 -85 19 -85 67c0 7 1 16 3 28c-49 -65 -120 -97 -187 -97zM269 125c40 0 84 28 115 73
l23 110c-7 53 -44 91 -87 91c-73 0 -140 -83 -140 -170c0 -60 33 -104 89 -104zM278 584l-55 146h144l22 -130z" />
    <glyph glyph-name="amacron" unicode="&#x101;" horiz-adv-x="634" 
d="M197 -10c-116 0 -186 91 -186 213c0 177 134 332 286 332c68 0 119 -38 137 -96l18 83h161l-74 -342c-1 -9 -2 -15 -2 -21c0 -16 7 -23 25 -24l-28 -135c-30 -6 -52 -8 -68 -8c-52 0 -85 19 -85 67c0 7 1 16 3 28c-49 -65 -120 -97 -187 -97zM269 125c40 0 84 28 115 73
l23 110c-7 53 -44 91 -87 91c-73 0 -140 -83 -140 -170c0 -60 33 -104 89 -104zM482 620h-290l20 97h291z" />
    <glyph glyph-name="ampersand" unicode="&#x26;" horiz-adv-x="712" 
d="M431 0l-36 52c-63 -41 -131 -62 -193 -62c-126 0 -189 85 -189 180c0 100 72 163 159 216c-31 50 -45 87 -45 129c0 119 110 204 229 204c83 0 157 -44 179 -140l-112 -51c-13 50 -46 75 -79 75s-67 -25 -67 -61c0 -27 19 -47 63 -111l111 -162c22 42 39 91 47 147h184
l-15 -111h-71c-21 -51 -47 -96 -76 -135l118 -170h-207zM246 112c29 0 61 9 91 28l-97 144c-50 -31 -71 -59 -71 -98c0 -49 34 -74 77 -74z" />
    <glyph glyph-name="aogonek" unicode="&#x105;" horiz-adv-x="634" 
d="M452 -205c-76 10 -112 43 -112 82s32 80 97 118c-35 6 -56 25 -56 64c0 7 1 16 3 28c-49 -65 -120 -97 -187 -97c-116 0 -186 91 -186 213c0 177 134 332 286 332c68 0 119 -38 137 -96l18 83h161l-74 -342c-1 -9 -2 -15 -2 -21c0 -16 7 -23 25 -24l-28 -135
c-59 -34 -89 -62 -89 -88c0 -19 18 -32 56 -33zM269 125c40 0 84 28 115 73l23 110c-7 53 -44 91 -87 91c-73 0 -140 -83 -140 -170c0 -60 33 -104 89 -104z" />
    <glyph glyph-name="apostrophe" unicode="&#x2bc;" horiz-adv-x="515" 
d="M327 572l-95 28l49 80v50h172z" />
    <glyph glyph-name="aring" unicode="&#xe5;" horiz-adv-x="634" 
d="M197 -10c-116 0 -186 91 -186 213c0 177 134 332 286 332c68 0 119 -38 137 -96l18 83h161l-74 -342c-1 -9 -2 -15 -2 -21c0 -16 7 -23 25 -24l-28 -135c-30 -6 -52 -8 -68 -8c-52 0 -85 19 -85 67c0 7 1 16 3 28c-49 -65 -120 -97 -187 -97zM269 125c40 0 84 28 115 73
l23 110c-7 53 -44 91 -87 91c-73 0 -140 -83 -140 -170c0 -60 33 -104 89 -104zM233 632c0 63 51 98 124 98c55 0 88 -23 88 -66c0 -62 -51 -97 -123 -97c-55 0 -89 23 -89 65zM346 683c-24 0 -45 -17 -45 -40c0 -17 12 -29 31 -29c23 0 46 17 46 41c0 16 -13 28 -32 28z
" />
    <glyph glyph-name="aringacute" unicode="&#x1fb;" horiz-adv-x="634" 
d="M197 -10c-116 0 -186 91 -186 213c0 177 134 332 286 332c68 0 119 -38 137 -96l18 83h161l-74 -342c-1 -9 -2 -15 -2 -21c0 -16 7 -23 25 -24l-28 -135c-30 -6 -52 -8 -68 -8c-52 0 -85 19 -85 67c0 7 1 16 3 28c-49 -65 -120 -97 -187 -97zM269 125c40 0 84 28 115 73
l23 110c-7 53 -44 91 -87 91c-73 0 -140 -83 -140 -170c0 -60 33 -104 89 -104zM521 886l-115 -144l-106 14l77 130h144zM231 632c0 63 51 98 124 98c55 0 88 -23 88 -66c0 -62 -51 -97 -123 -97c-55 0 -89 23 -89 65zM344 683c-24 0 -45 -17 -45 -40c0 -17 12 -29 31 -29
c23 0 46 17 46 41c0 16 -13 28 -32 28z" />
    <glyph glyph-name="asciicircum" unicode="^" horiz-adv-x="608" 
d="M174 303h-128l198 407h133l197 -407h-130l-133 275z" />
    <glyph glyph-name="asciitilde" unicode="~" horiz-adv-x="565" 
d="M37 222c1 28 43 145 157 145c76 0 116 -53 177 -53c57 0 71 47 71 51h86c-1 -17 -43 -143 -162 -143c-73 0 -116 51 -176 51c-58 0 -66 -49 -66 -51h-87z" />
    <glyph glyph-name="asterisk" unicode="*" horiz-adv-x="346" 
d="M165 471l-51 39l61 75l-63 21l35 67l63 -34l11 80h82l-22 -80l77 34l6 -67l-73 -21l31 -75l-68 -39l-28 79z" />
    <glyph glyph-name="at" unicode="@" horiz-adv-x="816" 
d="M582 53c64 0 117 134 117 241c0 144 -93 248 -249 248c-198 0 -366 -167 -366 -378c0 -151 86 -249 228 -249c50 0 95 12 153 38l7 -59c-57 -26 -115 -40 -173 -40c-170 0 -281 119 -281 302c0 254 212 447 448 447c183 0 298 -117 298 -291c0 -144 -80 -328 -212 -328
c-46 0 -78 22 -78 65c0 6 0 11 2 15c-52 -46 -103 -69 -156 -69c-99 0 -161 77 -161 184c0 151 121 286 252 286c63 0 108 -33 120 -80l12 65h75l-64 -326c-2 -10 -4 -24 -4 -33c0 -24 12 -38 32 -38zM352 72c56 0 98 38 122 95l19 122c-9 51 -42 87 -89 87
c-72 0 -151 -82 -151 -186c0 -66 33 -118 99 -118z" />
    <glyph glyph-name="atilde" unicode="&#xe3;" horiz-adv-x="634" 
d="M197 -10c-116 0 -186 91 -186 213c0 177 134 332 286 332c68 0 119 -38 137 -96l18 83h161l-74 -342c-1 -9 -2 -15 -2 -21c0 -16 7 -23 25 -24l-28 -135c-30 -6 -52 -8 -68 -8c-52 0 -85 19 -85 67c0 7 1 16 3 28c-49 -65 -120 -97 -187 -97zM269 125c40 0 84 28 115 73
l23 110c-7 53 -44 91 -87 91c-73 0 -140 -83 -140 -170c0 -60 33 -104 89 -104zM390 588c-58 0 -75 46 -117 46c-43 0 -54 -45 -54 -48h-87c6 30 63 142 154 142c61 0 73 -48 117 -48c43 0 59 47 60 50h85c-4 -21 -64 -142 -158 -142z" />
    <glyph glyph-name="b" unicode="b" horiz-adv-x="619" 
d="M293 -10c-76 0 -126 36 -145 97l-18 -87h-140l155 730h160l-62 -291c43 58 109 96 178 96c110 0 170 -92 170 -212c0 -184 -143 -333 -298 -333zM279 125c75 0 144 76 144 166c0 60 -30 108 -81 108c-45 0 -95 -39 -126 -91l-24 -110c13 -45 42 -73 87 -73z" />
    <glyph glyph-name="backslash" unicode="\" horiz-adv-x="632" 
d="M107 710h177l262 -710h-176z" />
    <glyph glyph-name="bar" unicode="|" horiz-adv-x="342" 
d="M243 -130h-135v905h135v-905z" />
    <glyph glyph-name="braceleft" unicode="{" horiz-adv-x="332" 
d="M353 613h-52l-38 -181c-7 -31 -28 -53 -52 -72c12 -14 23 -33 23 -55c0 -6 -1 -12 -2 -17l-40 -192h52l-27 -127h-174c-7 0 -17 4 -17 20c0 3 0 6 1 10l50 235c1 6 2 11 2 16c0 30 -19 51 -40 56l23 110c27 0 62 38 69 70l47 224c5 24 22 30 29 30h174z" />
    <glyph glyph-name="braceright" unicode="}" horiz-adv-x="335" 
d="M168 613h-53l27 127h173c7 0 17 -5 17 -20c0 -3 0 -6 -1 -10l-48 -224c-1 -5 -2 -9 -2 -14c0 -29 18 -56 41 -56l-24 -110c-27 -6 -60 -34 -68 -72l-50 -235c-5 -24 -21 -30 -29 -30h-173l27 127h52l41 192c7 30 29 54 51 72c-11 15 -22 32 -22 54c0 6 0 12 2 18z" />
    <glyph glyph-name="bracketleft" unicode="[" horiz-adv-x="322" 
d="M208 -40h-212l166 780h211l-27 -127h-64l-111 -526h63z" />
    <glyph glyph-name="bracketright" unicode="]" horiz-adv-x="323" 
d="M182 -40h-212l27 127h65l111 526h-64l27 127h211z" />
    <glyph glyph-name="brokenbar" unicode="&#xa6;" horiz-adv-x="334" 
d="M104 260h136v-390h-136v390zM104 775h136v-390h-136v390z" />
    <glyph glyph-name="bullet" unicode="&#x2022;" horiz-adv-x="358" 
d="M298 371c0 -70 -65 -130 -133 -130c-51 0 -85 40 -85 91c0 69 66 129 132 129c52 0 86 -40 86 -90z" />
    <glyph glyph-name="c" unicode="c" horiz-adv-x="548" 
d="M230 -10c-146 0 -219 101 -219 221c0 164 136 324 334 324c116 0 185 -57 207 -139l-165 -47c-12 32 -37 50 -72 50c-70 0 -138 -72 -138 -170c0 -62 32 -104 80 -104c35 0 72 21 93 52l146 -48c-56 -81 -150 -139 -266 -139z" />
    <glyph glyph-name="c_t" horiz-adv-x="937" 
d="M230 -10c-145 0 -219 102 -219 221c0 160 130 324 339 324c61 0 93 -14 129 -39c-3 11 -5 33 -5 47c0 120 81 191 226 191c123 0 153 -50 153 -113c0 -30 -7 -63 -14 -96h100l-25 -121h-101l-46 -219c-2 -6 -2 -12 -2 -16c0 -23 13 -33 34 -33s51 10 73 19v-127
c-48 -19 -110 -38 -164 -38c-67 0 -117 27 -117 99c0 13 1 26 4 41l58 274h-63l26 121h63c7 34 11 62 11 83c0 39 -14 57 -52 57c-81 0 -101 -72 -101 -140c0 -47 11 -104 16 -129l-166 -47c-12 33 -37 50 -72 50c-71 0 -137 -77 -137 -170c0 -62 32 -104 80 -104
c34 0 71 19 93 52l146 -48c-56 -83 -152 -139 -267 -139z" />
    <glyph glyph-name="cacute" unicode="&#x107;" horiz-adv-x="548" 
d="M498 730l-115 -144l-106 14l77 130h144zM230 -10c-146 0 -219 101 -219 221c0 164 136 324 334 324c116 0 185 -57 207 -139l-165 -47c-12 32 -37 50 -72 50c-70 0 -138 -72 -138 -170c0 -62 32 -104 80 -104c35 0 72 21 93 52l146 -48c-56 -81 -150 -139 -266 -139z" />
    <glyph glyph-name="ccaron" unicode="&#x10d;" horiz-adv-x="548" 
d="M296 586l-82 107l89 37l67 -63l94 63l75 -37l-128 -107h-115zM230 -10c-146 0 -219 101 -219 221c0 164 136 324 334 324c116 0 185 -57 207 -139l-165 -47c-12 32 -37 50 -72 50c-70 0 -138 -72 -138 -170c0 -62 32 -104 80 -104c35 0 72 21 93 52l146 -48
c-56 -81 -150 -139 -266 -139z" />
    <glyph glyph-name="ccedilla" unicode="&#xe7;" horiz-adv-x="548" 
d="M78 -183l42 56c12 -9 47 -20 82 -20c34 0 60 10 60 38c0 19 -17 26 -45 26c-26 0 -62 -7 -78 -11l59 86c-125 13 -187 108 -187 219c0 164 136 324 334 324c116 0 185 -57 207 -139l-165 -47c-12 32 -37 50 -72 50c-70 0 -138 -72 -138 -170c0 -62 32 -104 80 -104
c35 0 72 21 93 52l146 -48c-51 -74 -133 -128 -234 -137l-25 -30c8 2 18 3 28 3c39 0 72 -18 72 -60c0 -58 -52 -109 -158 -109c-44 0 -78 10 -101 21z" />
    <glyph glyph-name="ccircumflex" unicode="&#x109;" horiz-adv-x="548" 
d="M280 586l-74 36l128 108h114l82 -108l-89 -36l-67 63zM230 -10c-146 0 -219 101 -219 221c0 164 136 324 334 324c116 0 185 -57 207 -139l-165 -47c-12 32 -37 50 -72 50c-70 0 -138 -72 -138 -170c0 -62 32 -104 80 -104c35 0 72 21 93 52l146 -48
c-56 -81 -150 -139 -266 -139z" />
    <glyph glyph-name="cdotaccent" unicode="&#x10b;" horiz-adv-x="548" 
d="M230 -10c-146 0 -219 101 -219 221c0 164 136 324 334 324c116 0 185 -57 207 -139l-165 -47c-12 32 -37 50 -72 50c-70 0 -138 -72 -138 -170c0 -62 32 -104 80 -104c35 0 72 21 93 52l146 -48c-56 -81 -150 -139 -266 -139zM429 593h-144l29 137h144z" />
    <glyph glyph-name="cent" unicode="&#xa2;" horiz-adv-x="584" 
d="M247 -120h-69l24 111c-111 9 -176 113 -176 221c0 145 107 291 291 321l24 112h69l-24 -112c85 -3 156 -48 183 -137l-166 -47c-7 25 -27 42 -46 45l-57 -265c27 8 53 25 67 48l146 -48c-61 -93 -180 -139 -242 -139zM192 225c0 -38 14 -74 41 -88l53 250
c-53 -19 -94 -96 -94 -162z" />
    <glyph glyph-name="colon" unicode=":" horiz-adv-x="269" 
d="M211 356h-130l35 163h130zM136 0h-130l34 163h131z" />
    <glyph glyph-name="comma" unicode="," horiz-adv-x="242" 
d="M50 -135h-70l60 137h-49l34 161h135l-35 -161z" />
    <glyph glyph-name="copyright" unicode="&#xa9;" horiz-adv-x="858" 
d="M437 -7c-217 0 -378 155 -378 362c0 206 161 360 378 360c222 0 386 -154 386 -360c0 -207 -164 -362 -386 -362zM437 49c182 0 324 125 324 305c0 171 -138 305 -324 305c-180 0 -316 -134 -316 -304c0 -171 135 -306 316 -306zM446 114c-161 0 -260 108 -260 240
c0 125 89 241 259 241c113 0 195 -54 233 -135l-155 -48c-18 34 -49 48 -79 48c-56 0 -94 -45 -94 -106c0 -67 47 -105 95 -105c32 0 63 18 79 48l156 -47c-35 -75 -117 -136 -234 -136z" />
    <glyph glyph-name="d" unicode="d" horiz-adv-x="634" 
d="M197 -10c-116 0 -186 91 -186 213c0 177 134 332 286 332c68 0 119 -38 137 -96l62 291h161l-118 -550c-1 -9 -2 -15 -2 -21c0 -16 7 -23 25 -24l-28 -135c-30 -6 -52 -8 -68 -8c-51 0 -86 19 -86 64c0 8 1 17 4 31c-49 -65 -120 -97 -187 -97zM269 125
c40 0 84 28 115 73l23 110c-7 53 -44 91 -87 91c-73 0 -140 -83 -140 -170c0 -60 33 -104 89 -104z" />
    <glyph glyph-name="d.alt" horiz-adv-x="619" 
d="M197 -10c-116 0 -186 91 -186 213c0 178 136 332 285 332c70 0 120 -38 138 -96l62 291h160l-155 -730h-159l16 76c-42 -56 -94 -86 -161 -86zM268 125c42 0 85 28 116 73l23 110c-7 54 -45 91 -88 91c-72 0 -139 -84 -139 -169c0 -61 34 -105 88 -105z" />
    <glyph glyph-name="dagger" unicode="&#x2020;" horiz-adv-x="471" 
d="M220 -130h-152l70 329h-125l31 144h125l92 432h152l-93 -432h125l-30 -144h-125z" />
    <glyph glyph-name="daggerdbl" unicode="&#x2021;" horiz-adv-x="489" 
d="M230 -130h-151l44 209h-125l30 144h126l24 112h-126l30 144h126l63 296h152l-63 -296h124l-30 -144h-125l-24 -112h125l-31 -144h-125z" />
    <glyph glyph-name="dcaron" unicode="&#x10f;" horiz-adv-x="634" 
d="M766 572l-96 28l77 130h144zM197 -10c-116 0 -186 91 -186 213c0 177 134 332 286 332c68 0 119 -38 137 -96l62 291h161l-118 -550c-1 -9 -2 -15 -2 -21c0 -16 7 -23 25 -24l-28 -135c-30 -6 -52 -8 -68 -8c-51 0 -86 19 -86 64c0 8 1 17 4 31
c-49 -65 -120 -97 -187 -97zM269 125c40 0 84 28 115 73l23 110c-7 53 -44 91 -87 91c-73 0 -140 -83 -140 -170c0 -60 33 -104 89 -104z" />
    <glyph glyph-name="dcroat" unicode="&#x111;" horiz-adv-x="634" 
d="M389 585l20 94h76l11 51h161l-11 -51h67l-20 -94h-67l-87 -405c-1 -9 -2 -15 -2 -21c0 -16 7 -23 25 -24l-28 -135c-30 -6 -52 -8 -68 -8c-56 0 -84 22 -84 65c0 2 0 21 2 30c-49 -65 -120 -97 -187 -97c-116 0 -186 91 -186 213c0 177 134 332 286 332
c68 0 119 -38 137 -96l31 146h-76zM269 125c40 0 84 28 115 73l23 110c-7 53 -44 91 -87 91c-73 0 -140 -83 -140 -170c0 -60 33 -104 89 -104z" />
    <glyph glyph-name="degree" unicode="&#xb0;" horiz-adv-x="285" 
d="M183 504c-53 0 -86 34 -86 84c0 69 58 136 134 136c53 0 86 -37 86 -87c0 -75 -60 -133 -134 -133zM200 579c19 0 40 20 40 42c0 19 -12 27 -26 27c-20 0 -41 -19 -41 -40c0 -16 10 -29 27 -29z" />
    <glyph glyph-name="divide" unicode="&#xf7;" horiz-adv-x="513" 
d="M325 426h-135v143h135v-143zM325 38h-135v143h135v-143zM459 240h-404v127h404v-127z" />
    <glyph glyph-name="dollar" unicode="$" horiz-adv-x="620" 
d="M629 638l-100 -136c-4 9 -66 55 -137 66l-28 -135l30 -9c102 -33 169 -73 169 -172c0 -179 -141 -252 -281 -259l-24 -116h-70l25 117c-85 8 -169 39 -227 86l102 143c5 -13 79 -68 168 -81l28 131l-46 16c-95 34 -143 77 -143 155c0 159 129 257 272 270l21 101h68
l-21 -101c80 -8 148 -44 194 -76zM379 203c0 25 -21 41 -53 54l-25 -117c55 3 78 28 78 63zM275 500c0 -24 16 -38 47 -51l25 120c-46 -4 -72 -30 -72 -69z" />
    <glyph glyph-name="dotlessi" unicode="&#x131;" horiz-adv-x="268" 
d="M-10 0l112 525h160l-112 -525h-160z" />
    <glyph glyph-name="dotlessj" unicode="&#x237;" horiz-adv-x="268" 
d="M-80 -202c-50 0 -95 17 -125 50l90 109c9 -14 26 -21 44 -21c28 0 52 22 59 55l113 534h161l-111 -522c-26 -121 -123 -205 -231 -205z" />
    <glyph glyph-name="e" unicode="e" horiz-adv-x="558" 
d="M232 -10c-136 0 -220 91 -220 222c0 177 149 323 338 323c120 0 194 -55 194 -150c0 -114 -105 -174 -312 -174c-17 0 -35 0 -54 1c0 -70 24 -107 83 -107c48 0 91 24 116 64l126 -40c-56 -83 -165 -139 -271 -139zM324 420c-60 0 -104 -47 -128 -110h36
c117 0 158 20 158 61c0 31 -27 49 -66 49z" />
    <glyph glyph-name="eacute" unicode="&#xe9;" horiz-adv-x="558" 
d="M500 730l-115 -144l-106 14l77 130h144zM232 -10c-136 0 -220 91 -220 222c0 177 149 323 338 323c120 0 194 -55 194 -150c0 -114 -105 -174 -312 -174c-17 0 -35 0 -54 1c0 -70 24 -107 83 -107c48 0 91 24 116 64l126 -40c-56 -83 -165 -139 -271 -139zM324 420
c-60 0 -104 -47 -128 -110h36c117 0 158 20 158 61c0 31 -27 49 -66 49z" />
    <glyph glyph-name="ebreve" unicode="&#x115;" horiz-adv-x="558" 
d="M232 -10c-136 0 -220 91 -220 222c0 177 149 323 338 323c120 0 194 -55 194 -150c0 -114 -105 -174 -312 -174c-17 0 -35 0 -54 1c0 -70 24 -107 83 -107c48 0 91 24 116 64l126 -40c-56 -83 -165 -139 -271 -139zM324 420c-60 0 -104 -47 -128 -110h36
c117 0 158 20 158 61c0 31 -27 49 -66 49zM365 653c28 0 59 32 73 77h84c-18 -86 -90 -147 -172 -147c-71 0 -115 44 -115 110c0 12 2 24 5 37h84c-2 -7 -3 -15 -3 -21c0 -32 18 -56 44 -56z" />
    <glyph glyph-name="ecaron" unicode="&#x11b;" horiz-adv-x="558" 
d="M296 586l-82 107l89 37l67 -63l94 63l75 -37l-128 -107h-115zM232 -10c-136 0 -220 91 -220 222c0 177 149 323 338 323c120 0 194 -55 194 -150c0 -114 -105 -174 -312 -174c-17 0 -35 0 -54 1c0 -70 24 -107 83 -107c48 0 91 24 116 64l126 -40
c-56 -83 -165 -139 -271 -139zM324 420c-60 0 -104 -47 -128 -110h36c117 0 158 20 158 61c0 31 -27 49 -66 49z" />
    <glyph glyph-name="ecircumflex" unicode="&#xea;" horiz-adv-x="558" 
d="M283 586l-74 36l128 108h114l82 -108l-89 -36l-67 63zM232 -10c-136 0 -220 91 -220 222c0 177 149 323 338 323c120 0 194 -55 194 -150c0 -114 -105 -174 -312 -174c-17 0 -35 0 -54 1c0 -70 24 -107 83 -107c48 0 91 24 116 64l126 -40c-56 -83 -165 -139 -271 -139z
M324 420c-60 0 -104 -47 -128 -110h36c117 0 158 20 158 61c0 31 -27 49 -66 49z" />
    <glyph glyph-name="edieresis" unicode="&#xeb;" horiz-adv-x="558" 
d="M325 593h-132l28 129h132zM530 593h-132l28 129h131zM232 -10c-136 0 -220 91 -220 222c0 177 149 323 338 323c120 0 194 -55 194 -150c0 -114 -105 -174 -312 -174c-17 0 -35 0 -54 1c0 -70 24 -107 83 -107c48 0 91 24 116 64l126 -40c-56 -83 -165 -139 -271 -139z
M324 420c-60 0 -104 -47 -128 -110h36c117 0 158 20 158 61c0 31 -27 49 -66 49z" />
    <glyph glyph-name="edotaccent" unicode="&#x117;" horiz-adv-x="558" 
d="M232 -10c-136 0 -220 91 -220 222c0 177 149 323 338 323c120 0 194 -55 194 -150c0 -114 -105 -174 -312 -174c-17 0 -35 0 -54 1c0 -70 24 -107 83 -107c48 0 91 24 116 64l126 -40c-56 -83 -165 -139 -271 -139zM324 420c-60 0 -104 -47 -128 -110h36
c117 0 158 20 158 61c0 31 -27 49 -66 49zM432 593h-144l29 137h144z" />
    <glyph glyph-name="egrave" unicode="&#xe8;" horiz-adv-x="558" 
d="M232 -10c-136 0 -220 91 -220 222c0 177 149 323 338 323c120 0 194 -55 194 -150c0 -114 -105 -174 -312 -174c-17 0 -35 0 -54 1c0 -70 24 -107 83 -107c48 0 91 24 116 64l126 -40c-56 -83 -165 -139 -271 -139zM324 420c-60 0 -104 -47 -128 -110h36
c117 0 158 20 158 61c0 31 -27 49 -66 49zM319 584l-55 146h144l22 -130z" />
    <glyph glyph-name="eight" unicode="8" horiz-adv-x="587" 
d="M226 -9c-118 0 -207 76 -207 190c0 102 74 166 130 198c-29 19 -47 61 -47 103c0 144 162 228 277 228c93 0 194 -59 194 -170c0 -70 -52 -134 -104 -161c31 -24 60 -71 60 -131c0 -149 -147 -257 -303 -257zM257 136c56 0 110 47 110 107c0 45 -31 70 -72 70
c-57 0 -109 -44 -109 -105c0 -42 31 -72 71 -72zM320 433c38 0 87 29 87 82c0 32 -23 54 -58 54c-44 0 -85 -35 -85 -81c0 -36 28 -55 56 -55z" />
    <glyph glyph-name="eight.lnum" horiz-adv-x="587" 
d="M529 248c0 -149 -147 -257 -303 -257c-118 0 -207 76 -207 190c0 102 74 166 130 198c-29 19 -47 61 -47 103c0 144 162 228 277 228c93 0 194 -59 194 -170c0 -70 -52 -134 -104 -161c31 -24 60 -71 60 -131zM367 243c0 45 -31 70 -72 70c-57 0 -109 -44 -109 -105
c0 -42 31 -72 71 -72c56 0 110 47 110 107zM264 488c0 -36 28 -55 56 -55c38 0 87 29 87 82c0 32 -23 54 -58 54c-44 0 -85 -35 -85 -81z" />
    <glyph glyph-name="eightinferior" unicode="&#x2088;" horiz-adv-x="416" 
d="M332 58c0 -85 -102 -151 -207 -151c-88 0 -152 50 -152 117c0 64 47 95 101 119c-25 12 -46 34 -46 67c0 77 105 133 188 133c70 0 140 -42 140 -104c0 -46 -37 -78 -81 -96c34 -18 57 -46 57 -85zM239 56c0 28 -35 45 -74 45c-49 0 -95 -23 -95 -56c0 -27 36 -45 75 -45
c46 0 94 24 94 56zM120 211c0 -21 31 -34 61 -34c35 0 79 16 79 42c0 21 -28 34 -63 34c-39 0 -77 -16 -77 -42z" />
    <glyph glyph-name="eightsuperior" unicode="&#x2078;" horiz-adv-x="414" 
d="M432 532c0 -85 -102 -151 -207 -151c-88 0 -152 50 -152 117c0 64 47 95 101 119c-26 12 -46 34 -46 67c0 78 105 133 188 133c70 0 140 -42 140 -104c0 -46 -37 -78 -81 -96c34 -18 57 -46 57 -85zM339 530c0 28 -35 45 -74 45c-49 0 -95 -23 -95 -55
c0 -28 36 -46 75 -46c46 0 94 24 94 56zM220 685c0 -21 31 -34 61 -34c35 0 79 16 79 43c0 20 -29 33 -63 33c-39 0 -77 -16 -77 -42z" />
    <glyph glyph-name="ellipsis" unicode="&#x2026;" horiz-adv-x="649" 
d="M121 0h-130l34 163h131zM327 0h-131l35 163h130zM532 0h-130l34 163h131z" />
    <glyph glyph-name="emacron" unicode="&#x113;" horiz-adv-x="558" 
d="M232 -10c-136 0 -220 91 -220 222c0 177 149 323 338 323c120 0 194 -55 194 -150c0 -114 -105 -174 -312 -174c-17 0 -35 0 -54 1c0 -70 24 -107 83 -107c48 0 91 24 116 64l126 -40c-56 -83 -165 -139 -271 -139zM324 420c-60 0 -104 -47 -128 -110h36
c117 0 158 20 158 61c0 31 -27 49 -66 49zM508 620h-290l20 97h291z" />
    <glyph glyph-name="emdash" unicode="&#x2014;" horiz-adv-x="900" 
d="M825 203h-793l31 144h793z" />
    <glyph glyph-name="endash" unicode="&#x2013;" horiz-adv-x="595" 
d="M520 203h-488l31 144h488z" />
    <glyph glyph-name="eng" unicode="&#x14b;" horiz-adv-x="590" 
d="M247 -202c-51 0 -95 17 -125 50l90 109c9 -14 26 -21 44 -21c27 0 53 21 60 55l65 304c3 15 4 28 4 40c0 41 -19 59 -48 59c-38 0 -94 -39 -123 -93l-64 -301h-160l112 525h144l-19 -88c49 62 126 98 213 98c93 0 118 -56 118 -119c0 -26 -4 -54 -10 -80l-71 -333
c-26 -121 -124 -205 -230 -205z" />
    <glyph glyph-name="eogonek" unicode="&#x119;" horiz-adv-x="558" 
d="M209 -209c-76 10 -112 43 -112 82s34 81 100 119c-115 14 -185 100 -185 220c0 177 149 323 338 323c120 0 194 -55 194 -150c0 -114 -105 -174 -312 -174c-17 0 -35 0 -54 1c0 -70 24 -107 83 -107c48 0 91 24 116 64l126 -40c-46 -68 -127 -118 -213 -133
c-59 -34 -88 -62 -88 -88c0 -19 18 -32 56 -33zM324 420c-60 0 -104 -47 -128 -110h36c117 0 158 20 158 61c0 31 -27 49 -66 49z" />
    <glyph glyph-name="equal" unicode="=" horiz-adv-x="488" 
d="M397 124h-318v102h318v-102zM397 326h-318v102h318v-102z" />
    <glyph glyph-name="eth" unicode="&#xf0;" horiz-adv-x="597" 
d="M561 712l32 -61l-77 -38c38 -69 58 -154 58 -236c0 -234 -147 -387 -345 -387c-135 0 -221 84 -221 201c0 151 138 281 284 281c56 0 105 -25 132 -64c-1 22 -3 44 -7 64c-7 30 -17 59 -32 86l-84 -42l-32 61l78 39c-33 40 -78 77 -136 114h197c26 -15 49 -36 69 -60z
M175 212c0 -51 32 -87 84 -87c72 0 131 60 131 133c0 51 -31 86 -84 86c-72 0 -131 -58 -131 -132z" />
    <glyph glyph-name="etilde" unicode="&#x1ebd;" horiz-adv-x="558" 
d="M232 -10c-136 0 -220 91 -220 222c0 177 149 323 338 323c120 0 194 -55 194 -150c0 -114 -105 -174 -312 -174c-17 0 -35 0 -54 1c0 -70 24 -107 83 -107c48 0 91 24 116 64l126 -40c-56 -83 -165 -139 -271 -139zM324 420c-60 0 -104 -47 -128 -110h36
c117 0 158 20 158 61c0 31 -27 49 -66 49zM420 588c-58 0 -75 46 -117 46c-43 0 -54 -45 -54 -48h-87c6 30 63 142 154 142c61 0 73 -48 117 -48c43 0 59 47 60 50h85c-4 -21 -64 -142 -158 -142z" />
    <glyph glyph-name="exclam" unicode="!" horiz-adv-x="309" 
d="M231 282h-160l91 435h160zM170 0h-160l36 166h160z" />
    <glyph glyph-name="exclamdown" unicode="&#xa1;" horiz-adv-x="309" 
d="M102 429h160l-93 -435h-160zM161 711h160l-35 -166h-160z" />
    <glyph glyph-name="f" unicode="f" horiz-adv-x="376" 
d="M-24 -213l122 574h-63l26 121h63l9 43c27 131 116 215 223 215c42 0 84 -11 126 -31l-55 -120c-17 9 -44 16 -64 16c-35 0 -59 -26 -69 -74l-11 -49h115l-26 -121h-114l-122 -574h-160z" />
    <glyph glyph-name="five" unicode="5" horiz-adv-x="536" 
d="M153 -149c-98 0 -172 44 -198 118l110 99c25 -47 71 -77 119 -77c65 0 115 51 115 121c0 44 -25 73 -65 73c-33 0 -66 -17 -87 -46h-138c47 113 128 328 171 432h336l-31 -146h-220l-43 -121c8 9 30 18 64 18c111 0 181 -74 181 -183c0 -166 -141 -288 -314 -288z" />
    <glyph glyph-name="five.lnum" horiz-adv-x="552" 
d="M190 -9c-98 0 -172 44 -198 118l110 99c26 -47 71 -77 119 -77c65 0 115 51 115 120c0 44 -24 74 -65 74c-32 0 -66 -17 -87 -46h-137c46 113 127 328 170 432h336l-31 -146h-220l-43 -121c8 9 30 18 65 18c110 0 180 -75 180 -183c0 -166 -141 -288 -314 -288z" />
    <glyph glyph-name="fiveeighths" unicode="&#x215d;" horiz-adv-x="899" 
d="M271 580c81 0 135 -47 135 -115c0 -98 -98 -171 -217 -171c-68 0 -122 27 -143 71l67 63c20 -27 55 -44 101 -44c52 0 97 23 97 74c0 37 -33 53 -61 53c-30 0 -70 -18 -90 -44h-80c32 82 83 186 113 264h238l-19 -93h-173l-34 -71c13 6 35 13 66 13zM168 -9l-57 65
l337 324l314 339l58 -64l-327 -315zM619 -6c-88 0 -152 50 -152 117c0 64 48 95 102 119c-26 12 -47 34 -47 67c0 78 105 133 189 133c70 0 140 -42 140 -104c0 -46 -37 -78 -82 -96c34 -18 58 -46 58 -85c0 -85 -102 -151 -208 -151zM639 87c46 0 94 24 94 56
c0 28 -34 45 -74 45c-48 0 -94 -23 -94 -56c0 -27 36 -45 74 -45zM676 264c35 0 78 16 78 43c0 20 -28 33 -62 33c-40 0 -78 -16 -78 -42c0 -21 31 -34 62 -34z" />
    <glyph glyph-name="five.numerator" horiz-adv-x="389" 
d="M261 580c81 0 135 -47 135 -115c0 -98 -98 -171 -217 -171c-68 0 -122 27 -143 71l67 63c20 -27 55 -44 101 -44c52 0 97 23 97 74c0 37 -33 53 -61 53c-30 0 -70 -18 -90 -44h-80c32 82 83 186 113 264h238l-19 -93h-173l-34 -71c13 6 35 13 66 13z" />
    <glyph glyph-name="fraction" unicode="&#x2044;" horiz-adv-x="219" 
d="M-176 -9l-57 65l337 324l314 339l58 -64l-327 -315z" />
    <glyph glyph-name="eight.denominator" horiz-adv-x="416" 
d="M143 -6c-88 0 -152 50 -152 117c0 64 48 95 102 119c-26 12 -47 34 -47 67c0 78 105 133 189 133c70 0 140 -42 140 -104c0 -46 -37 -78 -82 -96c34 -18 58 -46 58 -85c0 -85 -102 -151 -208 -151zM163 87c46 0 94 24 94 56c0 28 -34 45 -74 45c-48 0 -94 -23 -94 -56
c0 -27 36 -45 74 -45zM200 264c35 0 78 16 78 43c0 20 -28 33 -62 33c-40 0 -78 -16 -78 -42c0 -21 31 -34 62 -34z" />
    <glyph glyph-name="fivesuperior" unicode="&#x2075;" horiz-adv-x="388" 
d="M279 668c81 0 134 -48 134 -116c0 -98 -97 -171 -216 -171c-68 0 -123 27 -144 71l68 63c19 -27 55 -44 101 -44c51 0 96 23 96 74c0 37 -32 53 -60 53c-30 0 -71 -18 -90 -44h-80c32 82 82 186 112 264h239l-20 -93h-172l-34 -71c13 6 34 14 66 14z" />
    <glyph glyph-name="fiveinferior" unicode="&#x2085;" horiz-adv-x="389" 
d="M179 193c81 0 135 -47 135 -115c0 -98 -98 -171 -216 -171c-69 0 -123 27 -145 70l68 64c20 -27 55 -44 101 -44c51 0 96 23 96 74c0 37 -32 53 -60 53c-30 0 -71 -18 -90 -44h-80c32 82 82 186 113 264h238l-19 -93h-173l-34 -71c13 6 34 13 66 13z" />
    <glyph glyph-name="florin" unicode="&#x192;" horiz-adv-x="535" 
d="M58 -202c-51 0 -96 17 -126 50l90 109c9 -14 27 -21 45 -21c27 0 51 22 58 55l75 352h-63l26 121h63l13 61c28 131 116 215 222 215c42 0 84 -11 126 -31l-54 -120c-18 9 -45 16 -65 16c-35 0 -58 -26 -68 -74l-15 -67h115l-26 -121h-114l-74 -348
c-25 -117 -123 -197 -228 -197z" />
    <glyph glyph-name="four" unicode="4" horiz-adv-x="561" 
d="M189 -127l29 137h-257l31 143l396 418h110l-89 -417h84l-31 -144h-84l-29 -137h-160zM151 154h116l38 177z" />
    <glyph glyph-name="four.lnum" horiz-adv-x="569" 
d="M383 1h-160l32 149h-260l30 143l399 418h110l-89 -418h84l-30 -143h-84zM184 293h119l38 178z" />
    <glyph glyph-name="fourinferior" unicode="&#x2084;" horiz-adv-x="405" 
d="M237 -86h-92l18 88h-206l19 91l289 251h63l-53 -251h60l-20 -91h-59zM216 231l-152 -138h122z" />
    <glyph glyph-name="foursuperior" unicode="&#x2074;" horiz-adv-x="406" 
d="M338 388h-92l18 88h-206l20 91l288 251h64l-54 -251h60l-20 -91h-59zM317 706l-152 -139h123z" />
    <glyph glyph-name="g" unicode="g" horiz-adv-x="618" 
d="M160 -223c-107 0 -174 38 -217 105l104 87c27 -44 78 -72 138 -72c72 0 143 40 163 139l10 51c-41 -58 -110 -89 -175 -89c-108 0 -171 91 -171 207c0 178 138 330 298 330c73 0 123 -36 144 -96l19 86h139l-104 -489c-34 -160 -174 -259 -348 -259zM267 125
c43 0 85 30 115 73l24 110c-8 55 -45 91 -88 91c-73 0 -139 -86 -139 -170c0 -59 34 -104 88 -104z" />
    <glyph glyph-name="gbreve" unicode="&#x11f;" horiz-adv-x="618" 
d="M160 -223c-107 0 -174 38 -217 105l104 87c27 -44 78 -72 138 -72c72 0 143 40 163 139l10 51c-41 -58 -110 -89 -175 -89c-108 0 -171 91 -171 207c0 178 138 330 298 330c73 0 123 -36 144 -96l19 86h139l-104 -489c-34 -160 -174 -259 -348 -259zM267 125
c43 0 85 30 115 73l24 110c-8 55 -45 91 -88 91c-73 0 -139 -86 -139 -170c0 -59 34 -104 88 -104zM358 653c28 0 59 32 73 77h84c-18 -86 -90 -147 -172 -147c-71 0 -115 44 -115 110c0 12 2 24 5 37h84c-2 -7 -3 -15 -3 -21c0 -32 18 -56 44 -56z" />
    <glyph glyph-name="gcircumflex" unicode="&#x11d;" horiz-adv-x="618" 
d="M270 586l-74 36l128 108h114l82 -108l-89 -36l-67 63zM160 -223c-107 0 -174 38 -217 105l104 87c27 -44 78 -72 138 -72c72 0 143 40 163 139l10 51c-41 -58 -110 -89 -175 -89c-108 0 -171 91 -171 207c0 178 138 330 298 330c73 0 123 -36 144 -96l19 86h139
l-104 -489c-34 -160 -174 -259 -348 -259zM267 125c43 0 85 30 115 73l24 110c-8 55 -45 91 -88 91c-73 0 -139 -86 -139 -170c0 -59 34 -104 88 -104z" />
    <glyph glyph-name="gcommaaccent" unicode="&#x123;" horiz-adv-x="618" 
d="M361 745h70l-45 -67h47l-21 -99h-133l21 99zM160 -223c-107 0 -174 38 -217 105l104 87c27 -44 78 -72 138 -72c72 0 143 40 163 139l10 51c-41 -58 -110 -89 -175 -89c-108 0 -171 91 -171 207c0 178 138 330 298 330c73 0 123 -36 144 -96l19 86h139l-104 -489
c-34 -160 -174 -259 -348 -259zM267 125c43 0 85 30 115 73l24 110c-8 55 -45 91 -88 91c-73 0 -139 -86 -139 -170c0 -59 34 -104 88 -104z" />
    <glyph glyph-name="gdotaccent" unicode="&#x121;" horiz-adv-x="618" 
d="M160 -223c-107 0 -174 38 -217 105l104 87c27 -44 78 -72 138 -72c72 0 143 40 163 139l10 51c-41 -58 -110 -89 -175 -89c-108 0 -171 91 -171 207c0 178 138 330 298 330c73 0 123 -36 144 -96l19 86h139l-104 -489c-34 -160 -174 -259 -348 -259zM267 125
c43 0 85 30 115 73l24 110c-8 55 -45 91 -88 91c-73 0 -139 -86 -139 -170c0 -59 34 -104 88 -104zM424 593h-144l29 137h144z" />
    <glyph glyph-name="germandbls" unicode="&#xdf;" horiz-adv-x="542" 
d="M178 -6l31 147c68 0 126 37 126 108c0 46 -35 70 -66 70h-21l31 143h19c45 0 65 39 65 71c0 30 -19 46 -44 46c-39 0 -61 -34 -71 -82l-106 -497h-152l112 525c23 109 136 189 261 189c96 0 160 -51 160 -135c0 -80 -57 -155 -108 -176c55 -21 87 -76 87 -148
c0 -194 -172 -259 -324 -261z" />
    <glyph glyph-name="greater" unicode="&#x3e;" horiz-adv-x="552" 
d="M504 293v-76l-422 -250v179l190 113l-190 120v170z" />
    <glyph glyph-name="guillemotleft" unicode="&#xab;" horiz-adv-x="659" 
d="M15 217l17 76l299 193l-27 -129l-154 -98l113 -91l-27 -129zM327 217l16 76l299 193l-27 -129l-153 -98l113 -91l-27 -129z" />
    <glyph glyph-name="guillemotright" unicode="&#xbb;" horiz-adv-x="659" 
d="M623 293l-16 -76l-296 -178l27 129l152 91l-112 98l28 129zM312 293l-16 -76l-296 -178l27 129l152 91l-112 98l27 129z" />
    <glyph glyph-name="guilsinglleft" unicode="&#x2039;" horiz-adv-x="347" 
d="M15 217l17 76l299 193l-27 -129l-154 -98l113 -91l-27 -129z" />
    <glyph glyph-name="guilsinglright" unicode="&#x203a;" horiz-adv-x="347" 
d="M312 293l-16 -76l-296 -178l27 129l152 91l-112 98l27 129z" />
    <glyph glyph-name="h" unicode="h" 
d="M-10 0l155 730h160l-62 -293c49 62 119 98 192 98c96 0 123 -56 123 -121c0 -25 -4 -52 -9 -78l-71 -336h-160l63 295c2 15 4 27 4 39c0 41 -20 60 -52 60s-89 -37 -119 -93l-64 -301h-160z" />
    <glyph glyph-name="hbar" unicode="&#x127;" 
d="M62 585l19 94h53l11 51h160l-11 -51h92l-20 -94h-92l-31 -148c49 62 119 98 192 98c96 0 123 -56 123 -121c0 -25 -4 -52 -9 -78l-71 -336h-160l63 295c2 15 4 27 4 39c0 41 -20 60 -52 60s-89 -37 -119 -93l-64 -301h-160l124 585h-52z" />
    <glyph glyph-name="hcircumflex" unicode="&#x125;" 
d="M375 587l-68 35l118 107h106l76 -107l-82 -35l-63 62zM-10 0l155 730h160l-62 -293c49 62 119 98 192 98c96 0 123 -56 123 -121c0 -25 -4 -52 -9 -78l-71 -336h-160l63 295c2 15 4 27 4 39c0 41 -20 60 -52 60s-89 -37 -119 -93l-64 -301h-160z" />
    <glyph glyph-name="hyphen" unicode="-" horiz-adv-x="400" 
d="M326 203h-294l31 144h294z" />
    <glyph glyph-name="i" unicode="i" horiz-adv-x="268" 
d="M-10 0l112 525h160l-112 -525h-160zM114 585l31 145h160l-31 -145h-160z" />
    <glyph glyph-name="iacute" unicode="&#xed;" horiz-adv-x="268" 
d="M343 730l-115 -144l-106 14l77 130h144zM-10 0l112 525h160l-112 -525h-160z" />
    <glyph glyph-name="ibreve" unicode="&#x12d;" horiz-adv-x="268" 
d="M-10 0l112 525h160l-112 -525h-160zM200 653c28 0 59 32 73 77h84c-18 -86 -90 -147 -172 -147c-71 0 -115 44 -115 110c0 12 2 24 5 37h84c-2 -7 -3 -15 -3 -21c0 -32 18 -56 44 -56z" />
    <glyph glyph-name="icircumflex" unicode="&#xee;" horiz-adv-x="268" 
d="M120 586l-74 36l128 108h114l82 -108l-89 -36l-67 63zM-10 0l112 525h160l-112 -525h-160z" />
    <glyph glyph-name="idieresis" unicode="&#xef;" horiz-adv-x="268" 
d="M159 593h-132l28 129h132zM364 593h-132l28 129h131zM-10 0l112 525h160l-112 -525h-160z" />
    <glyph glyph-name="igrave" unicode="&#xec;" horiz-adv-x="268" 
d="M-10 0l112 525h160l-112 -525h-160zM153 584l-55 146h144l22 -130z" />
    <glyph glyph-name="ij" unicode="&#x133;" horiz-adv-x="541" 
d="M-10 0l112 525h160l-112 -525h-160zM114 585l31 145h160l-31 -145h-160zM193 -202c-50 0 -95 17 -125 50l90 109c9 -14 26 -21 44 -21c27 0 52 21 59 55l113 534h160l-110 -522c-26 -121 -123 -205 -231 -205zM387 585l31 145h160l-31 -145h-160z" />
    <glyph glyph-name="j" unicode="j" horiz-adv-x="273" 
d="M-75 -202c-50 0 -95 17 -125 50l90 109c9 -14 26 -21 44 -21c27 0 52 21 59 55l113 534h160l-110 -522c-26 -121 -123 -205 -231 -205zM119 585l31 145h160l-31 -145h-160z" />
    <glyph glyph-name="imacron" unicode="&#x12b;" horiz-adv-x="268" 
d="M-10 0l112 525h160l-112 -525h-160zM345 620h-290l20 97h291z" />
    <glyph glyph-name="iogonek" unicode="&#x12f;" horiz-adv-x="268" 
d="M-10 0l112 525h160l-112 -525c-59 -34 -89 -62 -89 -88c0 -19 18 -32 56 -33l-49 -84c-76 10 -112 43 -112 82c0 41 36 84 106 123h-72zM114 585l31 145h160l-31 -145h-160z" />
    <glyph glyph-name="itilde" unicode="&#x129;" horiz-adv-x="268" 
d="M-10 0l112 525h160l-112 -525h-160zM260 588c-58 0 -75 46 -117 46c-43 0 -54 -45 -54 -48h-87c6 30 63 142 154 142c61 0 73 -48 117 -48c43 0 59 47 60 50h85c-4 -21 -64 -142 -158 -142z" />
    <glyph glyph-name="j.alt" horiz-adv-x="268" 
d="M-55 -213l155 730h160l-155 -730h-160zM114 585l31 143h159l-30 -143h-160z" />
    <glyph glyph-name="jcircumflex" unicode="&#x135;" horiz-adv-x="268" 
d="M-80 -202c-50 0 -95 17 -125 50l90 109c9 -14 26 -21 44 -21c28 0 52 22 59 55l113 534h161l-111 -522c-26 -121 -123 -205 -231 -205zM112 586l-74 36l128 108h114l82 -108l-89 -36l-67 63z" />
    <glyph glyph-name="k" unicode="k" horiz-adv-x="570" 
d="M-10 0l155 730h159l-71 -336c53 85 123 137 203 137c73 0 112 -44 112 -118c0 -88 -51 -166 -142 -215l89 -198h-170l-88 227c105 20 167 69 167 123c0 29 -18 45 -44 45c-57 0 -127 -70 -160 -156l-51 -239h-159z" />
    <glyph glyph-name="kcommaaccent" unicode="&#x137;" horiz-adv-x="570" 
d="M215 -213h-70l45 67h-47l21 99h133l-21 -99zM-10 0l155 730h159l-71 -336c53 85 123 137 203 137c73 0 112 -44 112 -118c0 -88 -51 -166 -142 -215l89 -198h-170l-88 227c105 20 167 69 167 123c0 29 -18 45 -44 45c-57 0 -127 -70 -160 -156l-51 -239h-159z" />
    <glyph glyph-name="kgreenlandic" unicode="&#x138;" horiz-adv-x="550" 
d="M-10 0l112 525h160l-47 -218l206 218h168l-225 -226l130 -299h-170l-80 211l-61 -58l-33 -153h-160z" />
    <glyph glyph-name="l" unicode="l" horiz-adv-x="326" 
d="M126 -9c-75 0 -115 35 -115 98c0 13 2 26 5 42l127 599h160l-116 -543c-1 -7 -2 -15 -2 -21c0 -25 13 -39 38 -39c15 0 36 5 53 14l-5 -120c-43 -18 -101 -30 -145 -30z" />
    <glyph glyph-name="l.alt" horiz-adv-x="271" 
d="M-8 0l155 730h160l-155 -730h-160z" />
    <glyph glyph-name="lacute" unicode="&#x13a;" horiz-adv-x="326" 
d="M373 891l-115 -144l-106 14l77 130h144zM126 -9c-75 0 -115 35 -115 98c0 13 2 26 5 42l127 599h160l-116 -543c-1 -7 -2 -15 -2 -21c0 -25 13 -39 38 -39c15 0 36 5 53 14l-5 -120c-43 -18 -101 -30 -145 -30z" />
    <glyph glyph-name="lcaron" unicode="&#x13e;" horiz-adv-x="323" 
d="M409 572l-96 28l77 130h144zM126 -9c-75 0 -115 35 -115 98c0 13 2 26 5 42l127 599h160l-116 -543c-1 -7 -2 -15 -2 -21c0 -25 13 -39 38 -39c15 0 36 5 53 14l-5 -120c-43 -18 -101 -30 -145 -30z" />
    <glyph glyph-name="lcommaaccent" unicode="&#x13c;" horiz-adv-x="326" 
d="M89 -213h-70l45 67h-47l21 99h133l-21 -99zM126 -9c-75 0 -115 35 -115 98c0 13 2 26 5 42l127 599h160l-116 -543c-1 -7 -2 -15 -2 -21c0 -25 13 -39 38 -39c15 0 36 5 53 14l-5 -120c-43 -18 -101 -30 -145 -30z" />
    <glyph glyph-name="ldot" unicode="&#x140;" horiz-adv-x="431" 
d="M126 -9c-75 0 -115 35 -115 98c0 13 2 26 5 42l127 599h160l-116 -543c-1 -7 -2 -15 -2 -21c0 -25 13 -39 38 -39c15 0 36 5 53 14l-5 -120c-43 -18 -101 -30 -145 -30zM409 264h-131l35 166h131z" />
    <glyph glyph-name="less" unicode="&#x3c;" horiz-adv-x="552" 
d="M29 217v76l422 256v-170l-190 -120l190 -113v-179z" />
    <glyph glyph-name="logicalnot" unicode="&#xac;" horiz-adv-x="602" 
d="M76 415h488l-67 -317h-135l37 173h-353z" />
    <glyph glyph-name="lslash" unicode="&#x142;" horiz-adv-x="367" 
d="M26 261l-19 86l105 52l70 331h160l-51 -241l73 37l20 -86l-116 -58l-40 -189c-2 -11 -4 -20 -4 -27c0 -25 13 -39 39 -39c14 0 36 5 53 14l-5 -120c-44 -18 -102 -30 -145 -30c-75 0 -116 35 -116 98c0 13 2 27 5 42l34 161z" />
    <glyph glyph-name="m" unicode="m" horiz-adv-x="897" 
d="M-10 0l112 525h144l-19 -88c48 62 125 98 201 98c85 0 115 -44 119 -102c52 65 125 102 200 102c92 0 118 -56 118 -120c0 -16 -2 -42 -10 -79l-72 -336h-160l63 295c3 16 5 30 5 42c0 39 -18 57 -44 57c-39 0 -89 -40 -117 -93l-63 -301h-160l63 295c3 16 5 30 5 42
c0 39 -18 57 -45 57c-38 0 -88 -40 -116 -93l-64 -301h-160z" />
    <glyph glyph-name="minus" unicode="&#x2212;" horiz-adv-x="549" 
d="M483 277h-404v127h404v-127z" />
    <glyph glyph-name="mu" unicode="&#xb5;" horiz-adv-x="650" 
d="M-44 -213l157 738h160l-64 -301c-3 -15 -5 -29 -5 -40c0 -39 17 -59 53 -59c32 0 75 21 116 76l68 324h160l-73 -345c-1 -7 -2 -13 -2 -19c0 -18 9 -25 33 -26l-29 -135c-33 -6 -57 -8 -75 -8c-56 0 -84 22 -84 64c0 3 0 21 3 35c-23 -39 -97 -101 -156 -101
c-37 0 -57 19 -59 48l-43 -251h-160z" />
    <glyph glyph-name="multiply" unicode="&#xd7;" horiz-adv-x="496" 
d="M339 277l96 -96l-100 -99l-96 95l-95 -95l-99 99l95 95l-90 91l100 99l90 -90l90 90l99 -99z" />
    <glyph glyph-name="n" unicode="n" 
d="M-10 0l112 525h144l-19 -88c49 62 126 98 213 98c93 0 118 -57 118 -121c0 -26 -4 -53 -9 -78l-71 -336h-160l63 295c3 15 4 28 4 40c0 41 -19 59 -48 59c-38 0 -94 -39 -123 -93l-64 -301h-160z" />
    <glyph glyph-name="nacute" unicode="&#x144;" 
d="M501 730l-115 -144l-106 14l77 130h144zM-10 0l112 525h144l-19 -88c49 62 126 98 213 98c93 0 118 -57 118 -121c0 -26 -4 -53 -9 -78l-71 -336h-160l63 295c3 15 4 28 4 40c0 41 -19 59 -48 59c-38 0 -94 -39 -123 -93l-64 -301h-160z" />
    <glyph glyph-name="napostrophe" unicode="&#x149;" 
d="M21 572l-95 28l49 80v50h172zM-10 0l112 525h144l-19 -88c49 62 126 98 213 98c93 0 118 -57 118 -121c0 -26 -4 -53 -9 -78l-71 -336h-160l63 295c3 15 4 28 4 40c0 41 -19 59 -48 59c-38 0 -94 -39 -123 -93l-64 -301h-160z" />
    <glyph glyph-name="ncaron" unicode="&#x148;" 
d="M291 586l-82 107l89 37l67 -63l94 63l75 -37l-128 -107h-115zM-10 0l112 525h144l-19 -88c49 62 126 98 213 98c93 0 118 -57 118 -121c0 -26 -4 -53 -9 -78l-71 -336h-160l63 295c3 15 4 28 4 40c0 41 -19 59 -48 59c-38 0 -94 -39 -123 -93l-64 -301h-160z" />
    <glyph glyph-name="ncommaaccent" unicode="&#x146;" 
d="M209 -213h-70l45 67h-47l21 99h133l-21 -99zM-10 0l112 525h144l-19 -88c49 62 126 98 213 98c93 0 118 -57 118 -121c0 -26 -4 -53 -9 -78l-71 -336h-160l63 295c3 15 4 28 4 40c0 41 -19 59 -48 59c-38 0 -94 -39 -123 -93l-64 -301h-160z" />
    <glyph glyph-name="ndotaccent" unicode="&#x1e45;" 
d="M422 593h-144l29 137h144zM-10 0l112 525h144l-19 -88c49 62 126 98 213 98c93 0 118 -57 118 -121c0 -26 -4 -53 -9 -78l-71 -336h-160l63 295c3 15 4 28 4 40c0 41 -19 59 -48 59c-38 0 -94 -39 -123 -93l-64 -301h-160z" />
    <glyph glyph-name="nine" unicode="9" horiz-adv-x="574" 
d="M169 -155c-83 0 -149 37 -191 105l112 102c22 -43 63 -68 111 -68c70 0 127 59 152 161c-34 -36 -79 -57 -130 -57c-117 0 -192 82 -192 192c0 157 146 291 308 291c125 0 194 -90 194 -239c0 -270 -149 -487 -364 -487zM263 214c62 0 123 60 123 130c0 51 -31 92 -76 92
c-59 0 -124 -64 -124 -134c0 -50 31 -88 77 -88z" />
    <glyph glyph-name="nine.lnum" horiz-adv-x="593" 
d="M70 425c0 157 147 291 310 291c125 0 193 -90 193 -239c0 -270 -148 -487 -364 -487c-82 0 -148 37 -190 105l112 102c22 -43 62 -68 110 -68c71 0 127 59 152 161c-33 -37 -78 -58 -130 -58c-117 0 -193 83 -193 193zM351 581c-60 0 -124 -64 -124 -134
c0 -50 31 -88 77 -88c61 0 123 59 123 130c0 51 -31 92 -76 92z" />
    <glyph glyph-name="nineinferior" unicode="&#x2089;" horiz-adv-x="421" 
d="M2 173c0 95 101 174 215 174c91 0 142 -58 142 -154c0 -164 -100 -286 -248 -286c-59 0 -109 22 -135 62l67 65c16 -24 50 -39 91 -39c60 0 107 33 120 90c-24 -21 -69 -32 -105 -32c-90 0 -147 52 -147 120zM197 261c-53 0 -104 -35 -104 -72c0 -31 33 -54 78 -54
c53 0 104 31 104 69c0 31 -33 57 -78 57z" />
    <glyph glyph-name="ninesuperior" unicode="&#x2079;" horiz-adv-x="422" 
d="M102 644c0 94 101 173 215 173c90 0 142 -58 142 -154c0 -164 -100 -286 -248 -286c-59 0 -108 22 -135 63l67 65c16 -25 50 -40 90 -40c61 0 108 34 121 90c-24 -20 -69 -31 -105 -31c-90 0 -147 51 -147 120zM297 731c-53 0 -104 -34 -104 -72c0 -30 33 -54 78 -54
c53 0 104 31 104 69c0 31 -33 57 -78 57z" />
    <glyph glyph-name="ntilde" unicode="&#xf1;" 
d="M-10 0l112 525h144l-19 -88c49 62 126 98 213 98c93 0 118 -57 118 -121c0 -26 -4 -53 -9 -78l-71 -336h-160l63 295c3 15 4 28 4 40c0 41 -19 59 -48 59c-38 0 -94 -39 -123 -93l-64 -301h-160zM417 588c-58 0 -75 46 -117 46c-43 0 -54 -45 -54 -48h-87
c6 30 63 142 154 142c61 0 73 -48 117 -48c43 0 59 47 60 50h85c-4 -21 -64 -142 -158 -142z" />
    <glyph glyph-name="numbersign" unicode="#" horiz-adv-x="708" 
d="M720 522l-24 -110h-146l-47 -114h122l-25 -119h-151l-79 -179h-128l80 179h-79l-78 -179h-128l79 179h-106l25 119h135l48 114h-112l24 110h139l83 188h128l-84 -188h79l82 188h128l-84 -188h119zM297 298h79l47 114h-78z" />
    <glyph glyph-name="o" unicode="o" 
d="M229 -10c-146 0 -218 100 -218 219c0 165 134 326 334 326c145 0 218 -100 218 -219c0 -164 -134 -326 -334 -326zM258 125c72 0 138 75 138 171c0 62 -31 103 -80 103c-72 0 -138 -75 -138 -171c0 -62 31 -103 80 -103z" />
    <glyph glyph-name="oacute" unicode="&#xf3;" 
d="M510 730l-115 -144l-106 14l77 130h144zM229 -10c-146 0 -218 100 -218 219c0 165 134 326 334 326c145 0 218 -100 218 -219c0 -164 -134 -326 -334 -326zM258 125c72 0 138 75 138 171c0 62 -31 103 -80 103c-72 0 -138 -75 -138 -171c0 -62 31 -103 80 -103z" />
    <glyph glyph-name="obreve" unicode="&#x14f;" 
d="M229 -10c-146 0 -218 100 -218 219c0 165 134 326 334 326c145 0 218 -100 218 -219c0 -164 -134 -326 -334 -326zM258 125c72 0 138 75 138 171c0 62 -31 103 -80 103c-72 0 -138 -75 -138 -171c0 -62 31 -103 80 -103zM369 653c28 0 59 32 73 77h84
c-18 -86 -90 -147 -172 -147c-71 0 -115 44 -115 110c0 12 2 24 5 37h84c-2 -7 -3 -15 -3 -21c0 -32 18 -56 44 -56z" />
    <glyph glyph-name="ocircumflex" unicode="&#xf4;" 
d="M283 586l-74 36l128 108h114l82 -108l-89 -36l-67 63zM229 -10c-146 0 -218 100 -218 219c0 165 134 326 334 326c145 0 218 -100 218 -219c0 -164 -134 -326 -334 -326zM258 125c72 0 138 75 138 171c0 62 -31 103 -80 103c-72 0 -138 -75 -138 -171
c0 -62 31 -103 80 -103z" />
    <glyph glyph-name="odieresis" unicode="&#xf6;" 
d="M326 593h-132l28 129h132zM531 593h-132l28 129h131zM229 -10c-146 0 -218 100 -218 219c0 165 134 326 334 326c145 0 218 -100 218 -219c0 -164 -134 -326 -334 -326zM258 125c72 0 138 75 138 171c0 62 -31 103 -80 103c-72 0 -138 -75 -138 -171
c0 -62 31 -103 80 -103z" />
    <glyph glyph-name="oe" unicode="&#x153;" horiz-adv-x="956" 
d="M228 -10c-134 0 -217 91 -217 218c0 183 153 327 331 327c80 0 134 -37 167 -106c70 72 135 106 213 106c133 0 215 -91 215 -220c0 -50 -13 -82 -22 -102h-363c-1 -8 -2 -14 -2 -20c0 -53 35 -91 86 -91c46 0 96 28 117 66l124 -38c-60 -86 -163 -140 -270 -140
c-72 0 -119 32 -170 100c-80 -70 -138 -100 -209 -100zM258 125c75 0 138 77 138 172c0 60 -30 102 -80 102c-74 0 -138 -77 -138 -172c0 -60 30 -102 80 -102zM568 310h205c1 7 2 13 2 18c0 56 -32 92 -82 92c-56 0 -107 -45 -125 -110z" />
    <glyph glyph-name="ograve" unicode="&#xf2;" 
d="M229 -10c-146 0 -218 100 -218 219c0 165 134 326 334 326c145 0 218 -100 218 -219c0 -164 -134 -326 -334 -326zM258 125c72 0 138 75 138 171c0 62 -31 103 -80 103c-72 0 -138 -75 -138 -171c0 -62 31 -103 80 -103zM327 584l-55 146h144l22 -130z" />
    <glyph glyph-name="ohungarumlaut" unicode="&#x151;" 
d="M405 730l-106 -142l-81 12l68 130h119zM575 730l-106 -142l-81 12l67 130h120zM229 -10c-146 0 -218 100 -218 219c0 165 134 326 334 326c145 0 218 -100 218 -219c0 -164 -134 -326 -334 -326zM258 125c72 0 138 75 138 171c0 62 -31 103 -80 103
c-72 0 -138 -75 -138 -171c0 -62 31 -103 80 -103z" />
    <glyph glyph-name="omacron" unicode="&#x14d;" 
d="M512 620h-290l20 97h291zM229 -10c-146 0 -218 100 -218 219c0 165 134 326 334 326c145 0 218 -100 218 -219c0 -164 -134 -326 -334 -326zM258 125c72 0 138 75 138 171c0 62 -31 103 -80 103c-72 0 -138 -75 -138 -171c0 -62 31 -103 80 -103z" />
    <glyph glyph-name="one" unicode="1" horiz-adv-x="503" 
d="M-2 0l30 144h135l55 255c-29 -31 -120 -71 -169 -71l31 148c41 0 155 68 174 95h163l-90 -427h121l-31 -144h-419z" />
    <glyph glyph-name="one.lnum" horiz-adv-x="502" 
d="M0 0l30 144h134l88 415c-27 -31 -123 -86 -174 -86l32 147c68 0 173 92 175 96h164l-122 -572h121l-31 -144h-417z" />
    <glyph glyph-name="oneeighth" unicode="&#x215b;" horiz-adv-x="877" 
d="M139 -9l-57 65l337 324l314 339l58 -64l-327 -315zM241 389h65l-19 -92h-232l20 92h73l52 243c-18 -19 -71 -52 -101 -52l20 93c39 0 100 56 101 58h95zM599 -6c-88 0 -152 50 -152 117c0 64 48 95 102 119c-26 12 -47 34 -47 67c0 78 105 133 189 133
c70 0 140 -42 140 -104c0 -46 -37 -78 -82 -96c34 -18 58 -46 58 -85c0 -85 -102 -151 -208 -151zM619 87c46 0 94 24 94 56c0 28 -34 45 -74 45c-48 0 -94 -23 -94 -56c0 -27 36 -45 74 -45zM656 264c35 0 78 16 78 43c0 20 -28 33 -62 33c-40 0 -78 -16 -78 -42
c0 -21 31 -34 62 -34z" />
    <glyph glyph-name="one.numerator" horiz-adv-x="300" 
d="M232 389h65l-19 -92h-232l20 92h73l52 243c-18 -19 -71 -52 -101 -52l20 93c39 0 100 56 101 58h95z" />
    <glyph glyph-name="onesuperior" unicode="&#xb9;" horiz-adv-x="299" 
d="M250 476h65l-20 -92h-231l20 92h73l51 243c-17 -19 -70 -52 -100 -52l20 93c39 0 100 56 101 58h94z" />
    <glyph glyph-name="onehalf" unicode="&#xbd;" horiz-adv-x="881" 
d="M438 0c22 111 60 161 163 204c69 28 139 47 139 102c0 26 -23 38 -62 38c-49 0 -93 -24 -121 -47l-43 69c31 32 104 69 196 69c87 0 134 -40 134 -110c0 -102 -76 -143 -148 -166c-54 -17 -85 -39 -92 -68h195l-19 -91h-342zM125 -9l-57 65l337 324l314 339l58 -64
l-327 -315zM239 389h65l-19 -92h-232l20 92h73l52 243c-18 -19 -71 -52 -101 -52l20 93c39 0 100 56 101 58h95z" />
    <glyph glyph-name="two.denominator" horiz-adv-x="419" 
d="M-35 0c23 111 62 161 169 204c71 28 144 47 144 102c0 26 -24 38 -64 38c-51 0 -97 -24 -126 -47l-44 69c32 32 107 69 203 69c90 0 139 -40 139 -110c0 -102 -79 -143 -154 -166c-56 -17 -88 -39 -95 -68h202l-19 -91h-355z" />
    <glyph glyph-name="twoinferior" unicode="&#x2082;" horiz-adv-x="420" 
d="M301 -87h-355c24 111 63 161 170 203c71 28 144 48 144 103c0 26 -25 38 -65 38c-51 0 -96 -24 -125 -47l-44 69c31 32 106 69 202 69c91 0 139 -40 139 -110c0 -102 -79 -144 -153 -166c-56 -17 -89 -39 -95 -68h202z" />
    <glyph glyph-name="oneinferior" unicode="&#x2081;" horiz-adv-x="339" 
d="M172 4h87l-19 -91h-277l20 91h95l52 243c-20 -19 -85 -52 -122 -52l19 93c49 0 123 56 124 59h94z" />
    <glyph glyph-name="onequarter" unicode="&#xbc;" horiz-adv-x="848" 
d="M597 1l18 88h-206l20 91l288 251h63l-53 -251h60l-20 -91h-59l-19 -88h-92zM516 180h122l30 138zM160 -9l-57 65l337 324l314 339l58 -64l-327 -315zM239 389h65l-19 -92h-232l20 92h73l52 243c-18 -19 -71 -52 -101 -52l20 93c39 0 100 56 101 58h95z" />
    <glyph glyph-name="four.denominator" horiz-adv-x="406" 
d="M164 1l18 88h-206l20 91l288 251h63l-53 -251h60l-20 -91h-59l-19 -88h-92zM83 180h122l30 138z" />
    <glyph glyph-name="onethird" unicode="&#x2153;" horiz-adv-x="871" 
d="M127 -9l-57 65l337 324l314 339l58 -64l-327 -315zM241 389h65l-19 -92h-232l20 92h73l52 243c-18 -19 -71 -52 -101 -52l20 93c39 0 100 56 101 58h95zM588 -6c-79 0 -133 25 -144 76l64 70c2 -11 29 -52 98 -52c53 0 99 16 99 49c0 31 -48 44 -130 44h-24l18 85h23
c80 0 138 14 138 51c0 23 -37 32 -63 32c-50 0 -84 -19 -116 -47l-42 76c39 38 111 58 175 58c89 0 148 -44 148 -103c0 -54 -45 -93 -114 -104c53 -8 81 -47 81 -92c0 -100 -110 -143 -211 -143z" />
    <glyph glyph-name="three.denominator" horiz-adv-x="399" 
d="M120 -6c-79 0 -133 25 -144 76l64 70c2 -11 29 -52 98 -52c53 0 99 16 99 49c0 31 -48 44 -130 44h-24l18 85h23c80 0 138 14 138 51c0 23 -37 32 -63 32c-50 0 -84 -19 -116 -47l-42 76c39 38 111 58 175 58c89 0 148 -44 148 -103c0 -54 -45 -93 -114 -104
c53 -8 81 -47 81 -92c0 -100 -110 -143 -211 -143z" />
    <glyph glyph-name="threeinferior" unicode="&#x2083;" horiz-adv-x="398" 
d="M101 -93c-79 0 -133 25 -144 76l63 70c3 -11 30 -52 99 -52c52 0 99 16 99 49c0 31 -48 44 -130 44h-24l18 85h23c79 0 138 14 138 51c0 23 -37 32 -63 32c-50 0 -85 -19 -116 -47l-42 76c39 37 111 58 175 58c88 0 148 -44 148 -103c0 -54 -45 -93 -114 -104
c52 -8 81 -47 81 -92c0 -100 -111 -143 -211 -143z" />
    <glyph glyph-name="oogonek" unicode="&#x1eb;" horiz-adv-x="590" 
d="M209 -209c-76 10 -112 43 -112 82s33 81 99 119c-124 13 -185 107 -185 217c0 165 134 326 334 326c145 0 218 -100 218 -219c0 -147 -108 -293 -274 -321c-58 -33 -87 -61 -87 -87c0 -19 18 -32 56 -33zM258 125c72 0 138 75 138 171c0 62 -31 103 -80 103
c-72 0 -138 -75 -138 -171c0 -62 31 -103 80 -103z" />
    <glyph glyph-name="ordfeminine" unicode="&#xaa;" horiz-adv-x="429" 
d="M158 336c-56 0 -93 40 -93 94c0 83 76 144 170 144c28 0 52 -5 68 -15l3 15c1 8 2 14 2 20c0 28 -15 42 -50 42c-37 0 -70 -14 -112 -40l-18 71c51 32 102 47 157 47c87 0 134 -38 134 -110c0 -13 -2 -28 -5 -43l-18 -89c-1 -5 -2 -9 -2 -13c0 -13 7 -18 22 -19l-21 -97
c-19 -4 -38 -6 -51 -6c-41 0 -58 16 -58 46c0 1 0 13 1 18c-39 -42 -84 -65 -129 -65zM209 419c27 0 68 23 74 47l7 33c-13 8 -33 12 -48 12c-37 0 -69 -25 -69 -57c0 -20 15 -35 36 -35z" />
    <glyph glyph-name="ordmasculine" unicode="&#xba;" horiz-adv-x="426" 
d="M219 336c-97 0 -144 69 -144 150c0 116 89 228 225 228c97 0 144 -68 144 -150c0 -114 -88 -228 -225 -228zM240 433c46 0 88 52 88 116c0 41 -18 68 -49 68c-46 0 -88 -52 -88 -117c0 -40 19 -67 49 -67z" />
    <glyph glyph-name="oslash" unicode="&#xf8;" 
d="M-33 -5l84 78c-27 37 -40 85 -40 136c0 165 135 326 334 326c55 0 99 -15 133 -39l36 34h87l-80 -75c28 -38 42 -87 42 -139c0 -164 -134 -326 -334 -326c-57 0 -103 15 -137 41l-39 -36h-86zM258 125c72 0 139 75 139 171c0 14 -2 27 -5 38l-186 -189
c14 -13 31 -20 52 -20zM178 228c0 -12 1 -23 3 -34l183 187c-13 12 -29 18 -48 18c-72 0 -138 -75 -138 -171z" />
    <glyph glyph-name="oslashacute" unicode="&#x1ff;" 
d="M-33 -5l84 78c-27 37 -40 85 -40 136c0 165 135 326 334 326c55 0 99 -15 133 -39l36 34h87l-80 -75c28 -38 42 -87 42 -139c0 -164 -134 -326 -334 -326c-57 0 -103 15 -137 41l-39 -36h-86zM258 125c72 0 139 75 139 171c0 14 -2 27 -5 38l-186 -189
c14 -13 31 -20 52 -20zM178 228c0 -12 1 -23 3 -34l183 187c-13 12 -29 18 -48 18c-72 0 -138 -75 -138 -171zM507 730l-115 -144l-106 14l77 130h144z" />
    <glyph glyph-name="otilde" unicode="&#xf5;" 
d="M229 -10c-146 0 -218 100 -218 219c0 165 134 326 334 326c145 0 218 -100 218 -219c0 -164 -134 -326 -334 -326zM258 125c72 0 138 75 138 171c0 62 -31 103 -80 103c-72 0 -138 -75 -138 -171c0 -62 31 -103 80 -103zM422 588c-58 0 -75 46 -117 46
c-43 0 -54 -45 -54 -48h-87c6 30 63 142 154 142c61 0 73 -48 117 -48c43 0 59 47 60 50h85c-4 -21 -64 -142 -158 -142z" />
    <glyph glyph-name="p" unicode="p" horiz-adv-x="618" 
d="M-56 -213l157 738h140l-19 -85c49 59 111 95 186 95c113 0 182 -93 182 -214c0 -176 -133 -331 -281 -331c-74 0 -124 36 -141 95l-64 -298h-160zM283 125c72 0 140 84 140 170c0 60 -34 104 -90 104c-39 0 -83 -28 -114 -72l-23 -108c9 -53 43 -94 87 -94z" />
    <glyph glyph-name="paragraph" unicode="&#xb6;" horiz-adv-x="657" 
d="M61 387c0 196 128 323 332 323h307l-25 -119h-67l-143 -671h-135l59 279h-36l-59 -279h-136l60 279c-99 0 -157 76 -157 188zM195 399c0 -47 20 -78 48 -82l59 274c-56 -5 -107 -96 -107 -192zM415 317l59 274h-38l-58 -274h37z" />
    <glyph glyph-name="parenleft" unicode="(" horiz-adv-x="319" 
d="M31 265c0 174 108 323 244 499l111 -50c-124 -161 -205 -315 -205 -441c0 -83 20 -183 50 -275l-130 -57c-39 93 -70 216 -70 324z" />
    <glyph glyph-name="parenright" unicode=")" horiz-adv-x="318" 
d="M308 431c0 -180 -119 -342 -244 -490l-104 57c111 151 197 275 197 427c0 114 -33 244 -49 289l133 50c37 -109 67 -230 67 -333z" />
    <glyph glyph-name="percent" unicode="%" horiz-adv-x="790" 
d="M223 411c-81 0 -135 57 -135 129c0 97 97 180 200 180c81 0 135 -57 135 -129c0 -97 -97 -180 -200 -180zM239 489c35 0 73 45 73 95c0 33 -16 58 -40 58c-35 0 -73 -45 -73 -95c0 -32 16 -58 40 -58zM525 -10c-81 0 -135 57 -135 129c0 97 97 180 201 180
c80 0 134 -57 134 -129c0 -97 -96 -180 -200 -180zM542 68c34 0 72 45 72 95c0 32 -16 58 -40 58c-35 0 -73 -45 -73 -95c0 -33 16 -58 41 -58zM110 -9l-58 65l338 324l313 339l58 -64l-326 -315z" />
    <glyph glyph-name="period" unicode="." horiz-adv-x="238" 
d="M121 0h-130l34 163h131z" />
    <glyph glyph-name="perthousand" unicode="&#x2030;" horiz-adv-x="1168" 
d="M228 411c-83 0 -136 57 -136 129c0 97 98 180 198 180c84 0 137 -57 137 -129c0 -97 -98 -180 -199 -180zM244 489c33 0 72 45 72 95c0 33 -16 58 -42 58c-33 0 -71 -45 -71 -95c0 -32 16 -58 41 -58zM531 -10c-84 0 -137 57 -137 129c0 97 98 180 199 180
c83 0 136 -57 136 -129c0 -97 -97 -180 -198 -180zM546 68c34 0 72 45 72 96c0 31 -16 57 -41 57c-34 0 -72 -45 -72 -95c0 -33 16 -58 41 -58zM908 -10c-84 0 -138 57 -138 128c0 98 98 181 199 181c84 0 137 -57 137 -129c0 -97 -98 -180 -198 -180zM923 68
c34 0 72 45 72 96c0 31 -16 57 -41 57c-34 0 -72 -45 -72 -95c0 -33 16 -58 41 -58zM114 -9l-58 65l338 324l313 339l58 -64l-326 -315z" />
    <glyph glyph-name="plus" unicode="+" horiz-adv-x="433" 
d="M298 419h95v-128h-95v-104h-144v104h-94v128h94v104h144v-104z" />
    <glyph glyph-name="plusminus" unicode="&#xb1;" horiz-adv-x="525" 
d="M434 16h-366v127h366v-127zM324 445h111v-127h-111v-121h-144v121h-111v127h111v121h144v-121z" />
    <glyph glyph-name="q" unicode="q" horiz-adv-x="618" 
d="M176 -10c-103 0 -165 91 -165 211c0 184 143 334 298 334c76 0 122 -38 145 -96l18 86h140l-117 -550c-2 -7 -3 -13 -3 -18c0 -18 10 -25 34 -26l-29 -136c-29 -5 -64 -8 -88 -8c-55 0 -95 31 -95 81c0 8 1 15 3 22l41 195c-45 -62 -109 -95 -182 -95zM267 125
c41 0 80 28 115 71l24 111c-6 52 -43 92 -87 92c-72 0 -141 -83 -141 -170c0 -60 33 -104 89 -104z" />
    <glyph glyph-name="q.alt" horiz-adv-x="618" 
d="M295 -214l63 299c-45 -62 -109 -95 -182 -95c-103 0 -165 91 -165 211c0 184 143 334 298 334c76 0 122 -38 145 -96l18 86h140l-157 -739h-160zM267 125c41 0 80 28 115 71l24 111c-6 52 -43 92 -87 92c-72 0 -141 -83 -141 -170c0 -60 33 -104 89 -104z" />
    <glyph glyph-name="question" unicode="?" horiz-adv-x="476" 
d="M223 245h-131c12 61 32 114 108 152c90 45 147 77 147 137c0 35 -25 56 -57 56c-48 0 -83 -44 -105 -72l-88 72c50 81 137 129 227 129c84 0 167 -45 167 -158s-56 -163 -127 -205c-60 -36 -130 -54 -141 -111zM173 0h-131l32 150h131z" />
    <glyph glyph-name="questiondown" unicode="&#xbf;" horiz-adv-x="470" 
d="M230 261h131c-12 -61 -32 -114 -108 -152c-90 -45 -147 -77 -147 -137c0 -35 25 -56 57 -56c48 0 83 44 105 72l88 -72c-50 -81 -137 -129 -227 -129c-84 0 -167 45 -167 158s56 163 127 205c60 36 130 54 141 111zM280 506h131l-32 -150h-131z" />
    <glyph glyph-name="quotedbl" unicode="&#x22;" horiz-adv-x="427" 
d="M231 498h-135l49 228h135zM411 498h-135l49 228h135z" />
    <glyph glyph-name="quotedblbase" unicode="&#x201e;" horiz-adv-x="478" 
d="M88 -140h-105l53 140h-45l35 163h164l-35 -167zM293 -140h-105l54 140h-46l35 163h164l-35 -167z" />
    <glyph glyph-name="quotesinglbase" unicode="&#x201a;" horiz-adv-x="273" 
d="M88 -140h-105l53 140h-45l35 163h164l-35 -167z" />
    <glyph glyph-name="quotedblleft" unicode="&#x201c;" horiz-adv-x="468" 
d="M180 730h105l-50 -126h45l-31 -147h-164l31 150zM381 730h105l-50 -126h45l-31 -147h-164l31 150z" />
    <glyph glyph-name="quoteleft" unicode="&#x2018;" horiz-adv-x="267" 
d="M180 730h105l-50 -126h45l-31 -147h-164l31 150z" />
    <glyph glyph-name="quotedblright" unicode="&#x201d;" horiz-adv-x="563" 
d="M415 501h-105l50 126h-45l31 147h164l-31 -150zM214 501h-105l50 126h-45l31 147h164l-31 -150z" />
    <glyph glyph-name="quoteright" unicode="&#x2019;" horiz-adv-x="256" 
d="M214 501h-105l50 126h-45l31 147h164l-31 -150z" />
    <glyph glyph-name="quotesingle" unicode="'" horiz-adv-x="247" 
d="M231 497h-135l49 229h135z" />
    <glyph glyph-name="r" unicode="r" horiz-adv-x="392" 
d="M-10 0l112 525h147l-23 -106c50 70 116 113 176 113c14 0 19 0 23 -1l-30 -143c-72 -1 -140 -25 -178 -73l-67 -315h-160z" />
    <glyph glyph-name="racute" unicode="&#x155;" horiz-adv-x="392" 
d="M418 730l-115 -144l-106 14l77 130h144zM-10 0l112 525h147l-23 -106c50 70 116 113 176 113c14 0 19 0 23 -1l-30 -143c-72 -1 -140 -25 -178 -73l-67 -315h-160z" />
    <glyph glyph-name="rcaron" unicode="&#x159;" horiz-adv-x="392" 
d="M210 586l-82 107l89 37l67 -63l94 63l75 -37l-128 -107h-115zM-10 0l112 525h147l-23 -106c50 70 116 113 176 113c14 0 19 0 23 -1l-30 -143c-72 -1 -140 -25 -178 -73l-67 -315h-160z" />
    <glyph glyph-name="rcommaaccent" unicode="&#x157;" horiz-adv-x="392" 
d="M44 -213h-70l45 67h-47l21 99h133l-21 -99zM-10 0l112 525h147l-23 -106c50 70 116 113 176 113c14 0 19 0 23 -1l-30 -143c-72 -1 -140 -25 -178 -73l-67 -315h-160z" />
    <glyph glyph-name="registered" unicode="&#xae;" horiz-adv-x="858" 
d="M439 -7c-220 0 -380 155 -380 362c0 206 160 360 380 360c219 0 384 -154 384 -360c0 -207 -165 -362 -384 -362zM439 48c180 0 319 128 319 305c0 171 -135 306 -319 306s-315 -135 -315 -305s131 -306 315 -306zM273 140v434h197c82 0 142 -76 142 -148
c0 -52 -29 -102 -72 -125l100 -161h-125l-87 140h-43v-140h-112zM385 376h74c25 0 43 15 43 50c0 37 -22 50 -45 50h-72v-100z" />
    <glyph glyph-name="s" unicode="s" horiz-adv-x="482" 
d="M187 -10c-84 0 -167 30 -213 84l77 98c51 -44 105 -69 157 -69c42 0 64 20 64 50c0 23 -20 36 -74 53c-110 35 -156 64 -156 125c0 117 111 204 243 204c74 0 134 -19 185 -74l-82 -96c-49 41 -87 59 -127 59c-36 0 -63 -18 -63 -52c0 -23 21 -34 73 -49
c114 -33 162 -67 162 -133c0 -118 -100 -200 -246 -200z" />
    <glyph glyph-name="s_t" unicode="&#xfb06;" horiz-adv-x="852" 
d="M191 -10c-83 0 -177 29 -227 66l82 109c55 -40 111 -62 163 -62c43 0 72 17 72 48c0 29 -24 36 -85 54c-102 30 -150 53 -150 128c0 118 121 202 231 202c30 0 85 -6 120 -31c-5 14 -7 34 -7 50c0 96 63 180 229 180c114 0 149 -40 149 -107c0 -27 -6 -63 -15 -102h101
l-25 -121h-101l-46 -219c-2 -7 -2 -11 -2 -14c0 -26 12 -35 33 -35c22 0 50 10 73 19v-127c-48 -19 -110 -38 -164 -38c-66 0 -116 27 -116 99c0 13 1 30 5 47l57 268h-63l26 121h62c8 38 12 66 12 88c0 37 -13 52 -49 52c-64 0 -100 -49 -100 -110c0 -30 9 -64 20 -80
l-81 -101c-53 37 -94 50 -130 50c-40 0 -71 -17 -71 -52c0 -32 28 -40 85 -54c113 -28 154 -59 154 -130c0 -118 -103 -198 -242 -198z" />
    <glyph glyph-name="sacute" unicode="&#x15b;" horiz-adv-x="482" 
d="M449 730l-115 -144l-106 14l77 130h144zM187 -10c-84 0 -167 30 -213 84l77 98c51 -44 105 -69 157 -69c42 0 64 20 64 50c0 23 -20 36 -74 53c-110 35 -156 64 -156 125c0 117 111 204 243 204c74 0 134 -19 185 -74l-82 -96c-49 41 -87 59 -127 59
c-36 0 -63 -18 -63 -52c0 -23 21 -34 73 -49c114 -33 162 -67 162 -133c0 -118 -100 -200 -246 -200z" />
    <glyph glyph-name="scaron" unicode="&#x161;" horiz-adv-x="482" 
d="M241 586l-82 107l89 37l67 -63l94 63l75 -37l-128 -107h-115zM187 -10c-84 0 -167 30 -213 84l77 98c51 -44 105 -69 157 -69c42 0 64 20 64 50c0 23 -20 36 -74 53c-110 35 -156 64 -156 125c0 117 111 204 243 204c74 0 134 -19 185 -74l-82 -96c-49 41 -87 59 -127 59
c-36 0 -63 -18 -63 -52c0 -23 21 -34 73 -49c114 -33 162 -67 162 -133c0 -118 -100 -200 -246 -200z" />
    <glyph glyph-name="schwa" unicode="&#x259;" horiz-adv-x="584" 
d="M223 -10c-147 0 -219 91 -219 207c0 37 9 81 22 115h364c1 7 1 14 1 21c0 56 -38 86 -83 86c-44 0 -93 -25 -114 -63l-128 39c56 81 154 140 272 140c145 0 219 -99 219 -218c0 -166 -133 -327 -334 -327zM249 105c55 0 103 43 123 109h-201c-1 -6 -1 -13 -1 -20
c0 -55 30 -89 79 -89z" />
    <glyph glyph-name="scircumflex" unicode="&#x15d;" horiz-adv-x="482" 
d="M232 586l-74 36l128 108h114l82 -108l-89 -36l-67 63zM187 -10c-84 0 -167 30 -213 84l77 98c51 -44 105 -69 157 -69c42 0 64 20 64 50c0 23 -20 36 -74 53c-110 35 -156 64 -156 125c0 117 111 204 243 204c74 0 134 -19 185 -74l-82 -96c-49 41 -87 59 -127 59
c-36 0 -63 -18 -63 -52c0 -23 21 -34 73 -49c114 -33 162 -67 162 -133c0 -118 -100 -200 -246 -200z" />
    <glyph glyph-name="section" unicode="&#xa7;" horiz-adv-x="524" 
d="M438 223c7 -12 12 -34 12 -60c0 -184 -170 -251 -272 -251c-105 0 -170 72 -190 109l123 98c26 -40 57 -55 92 -55c38 0 74 22 74 61c0 27 -23 30 -44 32c-114 9 -168 68 -168 149c0 61 25 90 33 105c-7 12 -15 41 -15 75c0 117 120 229 254 229c118 0 165 -85 187 -134
l-135 -58c-10 29 -32 50 -71 50c-40 0 -71 -24 -71 -63c0 -29 22 -35 48 -36c85 -3 180 -38 180 -142c0 -51 -27 -95 -37 -109zM218 308c0 -46 57 -36 80 -46c12 9 21 28 21 44c0 30 -25 40 -45 40c-16 0 -33 4 -36 7c-10 -9 -20 -26 -20 -45z" />
    <glyph glyph-name="semicolon" unicode=";" horiz-adv-x="272" 
d="M212 356h-130l34 163h131zM64 -135h-70l60 137h-49l35 161h134l-35 -161z" />
    <glyph glyph-name="seven" unicode="7" horiz-adv-x="563" 
d="M-46 -126l381 564h-277l31 146h529l-483 -710h-181z" />
    <glyph glyph-name="seven.lnum" horiz-adv-x="564" 
d="M-13 1l380 564h-276l31 146h529l-484 -710h-180z" />
    <glyph glyph-name="seveneighths" unicode="&#x215e;" horiz-adv-x="867" 
d="M98 -9l-57 65l337 324l314 339l58 -64l-327 -315zM590 -6c-88 0 -152 50 -152 117c0 64 48 95 102 119c-26 12 -47 34 -47 67c0 78 105 133 189 133c70 0 140 -42 140 -104c0 -46 -37 -78 -82 -96c34 -18 58 -46 58 -85c0 -85 -102 -151 -208 -151zM610 87
c46 0 94 24 94 56c0 28 -34 45 -74 45c-48 0 -94 -23 -94 -56c0 -27 36 -45 74 -45zM647 264c35 0 78 16 78 43c0 20 -28 33 -62 33c-40 0 -78 -16 -78 -42c0 -21 31 -34 62 -34zM59 301l274 337h-222l19 93h367l-334 -430h-104z" />
    <glyph glyph-name="seven.numerator" horiz-adv-x="388" 
d="M42 301l274 337h-222l19 93h367l-334 -430h-104z" />
    <glyph glyph-name="sevensuperior" unicode="&#x2077;" horiz-adv-x="391" 
d="M61 388l274 337h-222l20 93h366l-333 -430h-105z" />
    <glyph glyph-name="seveninferior" unicode="&#x2087;" horiz-adv-x="390" 
d="M-40 -86l274 337h-222l20 93h367l-334 -430h-105z" />
    <glyph glyph-name="six" unicode="6" horiz-adv-x="592" 
d="M235 -10c-125 0 -194 90 -194 239c0 270 149 487 365 487c83 0 148 -37 190 -105l-112 -102c-23 43 -63 68 -110 68c-71 0 -128 -59 -152 -161c33 36 78 57 130 57c116 0 192 -82 192 -192c0 -157 -147 -291 -309 -291zM264 125c60 0 124 64 124 134c0 50 -31 88 -77 88
c-62 0 -123 -60 -123 -130c0 -51 31 -92 76 -92z" />
    <glyph glyph-name="six.lnum" horiz-adv-x="592" 
d="M235 -10c-125 0 -194 90 -194 239c0 270 149 487 365 487c83 0 148 -37 190 -105l-112 -102c-23 43 -63 68 -110 68c-71 0 -128 -59 -152 -161c33 36 78 57 130 57c116 0 192 -82 192 -192c0 -157 -147 -291 -309 -291zM264 125c60 0 124 64 124 134c0 50 -31 88 -77 88
c-62 0 -123 -60 -123 -130c0 -51 31 -92 76 -92z" />
    <glyph glyph-name="sixinferior" unicode="&#x2086;" horiz-adv-x="421" 
d="M345 80c0 -94 -101 -173 -215 -173c-90 0 -142 57 -142 153c0 165 101 287 248 287c59 0 108 -22 135 -62l-67 -66c-16 25 -51 39 -91 39c-60 0 -107 -32 -120 -89c24 20 70 30 104 30c91 0 148 -51 148 -119zM150 -7c53 0 105 33 105 72c0 31 -33 54 -78 54
c-55 0 -105 -31 -105 -70c0 -31 34 -56 78 -56z" />
    <glyph glyph-name="sixsuperior" unicode="&#x2076;" horiz-adv-x="421" 
d="M445 550c0 -94 -101 -173 -215 -173c-91 0 -142 57 -142 154c0 164 101 286 248 286c59 0 108 -21 135 -62l-67 -65c-16 24 -51 38 -91 38c-60 0 -107 -32 -121 -89c25 21 71 31 105 31c91 0 148 -52 148 -120zM250 463c53 0 105 34 105 72c0 31 -33 54 -78 54
c-55 0 -105 -31 -105 -69c0 -31 34 -57 78 -57z" />
    <glyph glyph-name="space" unicode=" " horiz-adv-x="230" 
 />
    <glyph glyph-name="sterling" unicode="&#xa3;" horiz-adv-x="544" 
d="M51 265l24 119h59c-7 39 -16 79 -16 116c0 120 121 215 250 215c81 0 151 -39 188 -105l-102 -98c-23 42 -71 74 -114 74c-46 0 -82 -37 -82 -88c0 -33 12 -71 19 -114h179l-26 -119h-157c-14 -46 -44 -88 -104 -142c32 10 55 14 77 14c42 0 80 -16 122 -16
c22 0 40 5 67 14l14 -118c-33 -19 -81 -32 -118 -32c-59 0 -116 31 -179 31c-35 0 -88 -10 -136 -25l-9 114c62 43 110 99 127 160h-83z" />
    <glyph glyph-name="t" unicode="t" horiz-adv-x="392" 
d="M163 -10c-67 0 -117 27 -117 99c0 13 1 26 4 41l58 274h-63l27 121h62l36 167h160l-36 -167h101l-26 -121h-101l-46 -219c-1 -6 -2 -12 -2 -17c0 -23 14 -32 34 -32c21 0 51 10 73 19v-127c-48 -21 -109 -38 -164 -38z" />
    <glyph glyph-name="t.alt" horiz-adv-x="397" 
d="M38 0l81 381h-75l30 144h75l36 167h165l-37 -167h115l-30 -144h-115l-81 -381h-164z" />
    <glyph glyph-name="tbar" unicode="&#x167;" horiz-adv-x="394" 
d="M14 247l19 93h63l14 64h-63l26 121h63l36 167h160l-36 -167h100l-25 -121h-101l-14 -64h101l-19 -93h-102l-12 -57c-2 -9 -2 -15 -2 -21c0 -23 13 -33 34 -33s51 10 73 19v-127c-48 -21 -110 -38 -165 -38c-66 0 -117 27 -117 99c0 13 2 25 5 41l25 117h-63z" />
    <glyph glyph-name="tcaron" unicode="&#x165;" horiz-adv-x="392" 
d="M460 572l-96 28l77 130h144zM163 -10c-67 0 -117 27 -117 99c0 13 1 26 4 41l58 274h-63l27 121h62l36 167h160l-36 -167h101l-26 -121h-101l-46 -219c-1 -6 -2 -12 -2 -17c0 -23 14 -32 34 -32c21 0 51 10 73 19v-127c-48 -21 -109 -38 -164 -38z" />
    <glyph glyph-name="thorn" unicode="&#xfe;" horiz-adv-x="576" 
d="M-56 -213l196 923h165c-28 -131 -44 -207 -44 -207c17 22 48 38 94 38c129 0 195 -107 195 -219c0 -156 -130 -349 -314 -349c-55 0 -74 19 -81 35c0 0 -20 -93 -46 -221h-165zM260 116c77 0 125 89 125 179c0 61 -23 103 -69 103c-37 0 -65 -28 -92 -66l-33 -155
c0 -3 -1 -4 -1 -8c0 -21 23 -53 70 -53z" />
    <glyph glyph-name="three" unicode="3" horiz-adv-x="549" 
d="M156 -147c-96 0 -165 30 -208 89l109 114c26 -37 63 -57 122 -57c86 0 124 37 124 102c0 47 -35 72 -113 72h-28l24 115h32c76 0 129 41 129 98c0 34 -23 53 -62 53c-49 0 -98 -27 -138 -75l-76 116c55 57 160 96 261 96c121 0 195 -59 195 -147
c0 -90 -75 -177 -161 -192c62 -12 100 -69 100 -142c0 -145 -127 -242 -310 -242z" />
    <glyph glyph-name="three.lnum" horiz-adv-x="563" 
d="M190 -9c-106 0 -172 44 -192 128l106 109c4 -25 24 -90 111 -90c62 0 119 33 119 87c0 55 -56 76 -165 76h-31l28 133h31c99 0 184 28 184 92c0 41 -33 53 -60 53c-70 0 -125 -46 -145 -74l-77 118c60 62 167 96 254 96c123 0 203 -70 203 -167c0 -88 -66 -156 -159 -176
c66 -12 103 -72 103 -147c0 -163 -170 -238 -310 -238z" />
    <glyph glyph-name="threeeighths" unicode="&#x215c;" horiz-adv-x="889" 
d="M193 289c-79 0 -133 26 -144 76l64 70c3 -11 29 -52 98 -52c53 0 100 16 100 49c0 32 -49 44 -131 44h-23l17 85h23c80 0 138 15 138 51c0 24 -36 33 -63 33c-49 0 -84 -19 -116 -47l-42 75c39 38 111 58 176 58c88 0 147 -44 147 -102c0 -55 -45 -94 -114 -105
c53 -8 81 -47 81 -92c0 -100 -110 -143 -211 -143zM169 -9l-57 65l337 324l314 339l58 -64l-327 -315zM609 -6c-88 0 -152 50 -152 117c0 64 48 95 102 119c-26 12 -47 34 -47 67c0 78 105 133 189 133c70 0 140 -42 140 -104c0 -46 -37 -78 -82 -96c34 -18 58 -46 58 -85
c0 -85 -102 -151 -208 -151zM629 87c46 0 94 24 94 56c0 28 -34 45 -74 45c-48 0 -94 -23 -94 -56c0 -27 36 -45 74 -45zM666 264c35 0 78 16 78 43c0 20 -28 33 -62 33c-40 0 -78 -16 -78 -42c0 -21 31 -34 62 -34z" />
    <glyph glyph-name="three.numerator" horiz-adv-x="399" 
d="M182 289c-79 0 -133 26 -144 76l64 70c3 -11 29 -52 98 -52c53 0 100 16 100 49c0 32 -49 44 -131 44h-23l17 85h23c80 0 138 15 138 51c0 24 -36 33 -63 33c-49 0 -84 -19 -116 -47l-42 75c39 38 111 58 176 58c88 0 147 -44 147 -102c0 -55 -45 -94 -114 -105
c53 -8 81 -47 81 -92c0 -100 -110 -143 -211 -143z" />
    <glyph glyph-name="threesuperior" unicode="&#xb3;" horiz-adv-x="399" 
d="M203 376c-74 0 -118 26 -147 76l64 70c7 -14 28 -52 102 -52c47 0 96 16 96 48c0 33 -48 45 -131 45h-23l18 85h22c80 0 138 16 138 50c0 26 -35 34 -62 34c-49 0 -85 -19 -116 -47l-43 75c40 38 112 58 174 58c91 0 149 -43 149 -104c0 -54 -48 -93 -113 -103
c53 -9 80 -46 80 -93c0 -97 -111 -142 -208 -142z" />
    <glyph glyph-name="threequarters" unicode="&#xbe;" horiz-adv-x="864" 
d="M193 289c-79 0 -133 26 -144 76l64 70c3 -11 29 -52 98 -52c53 0 100 16 100 49c0 32 -49 44 -131 44h-23l17 85h23c80 0 138 15 138 51c0 24 -36 33 -63 33c-49 0 -84 -19 -116 -47l-42 75c39 38 111 58 176 58c88 0 147 -44 147 -102c0 -55 -45 -94 -114 -105
c53 -8 81 -47 81 -92c0 -100 -110 -143 -211 -143zM610 1l18 88h-206l20 91l288 251h63l-53 -251h60l-20 -91h-59l-19 -88h-92zM529 180h122l30 138zM196 -9l-57 65l337 324l314 339l58 -64l-327 -315z" />
    <glyph glyph-name="trademark" unicode="&#x2122;" horiz-adv-x="841" 
d="M428 712l-22 -102h-90l-43 -203h-102l43 203h-90l22 102h282zM407 407l64 303h154l10 -145l72 145h154l-64 -303h-103l38 174l-80 -132h-82l-24 132l-37 -174h-102z" />
    <glyph glyph-name="two" unicode="2" horiz-adv-x="563" 
d="M-28 0c26 125 76 197 201 258c141 69 181 88 181 134c0 30 -20 50 -58 50c-48 0 -92 -30 -139 -74l-76 118c53 47 162 95 273 95c120 0 183 -55 183 -141c0 -106 -73 -158 -150 -203c-41 -23 -96 -54 -133 -93h232l-30 -144h-484z" />
    <glyph glyph-name="two.lnum" horiz-adv-x="600" 
d="M-23 0c39 185 84 268 240 336c100 43 193 82 193 178c0 40 -25 62 -62 62c-58 0 -123 -42 -165 -79l-77 106c55 50 167 115 295 115s195 -67 195 -173c0 -140 -72 -199 -198 -266c-80 -42 -144 -77 -156 -135h274l-31 -144h-508z" />
    <glyph glyph-name="twosuperior" unicode="&#xb2;" horiz-adv-x="414" 
d="M385 383h-339c24 111 63 162 170 204c71 28 144 47 144 102c0 26 -25 38 -65 38c-51 0 -97 -24 -125 -46l-44 68c31 32 106 69 202 69c91 0 139 -40 139 -110c0 -102 -81 -144 -154 -166c-56 -17 -88 -39 -95 -68h187z" />
    <glyph glyph-name="twothirds" unicode="&#x2154;" horiz-adv-x="891" 
d="M605 -6c-79 0 -133 25 -144 76l64 70c2 -11 29 -52 98 -52c53 0 99 16 99 49c0 31 -48 44 -130 44h-24l18 85h23c80 0 138 14 138 51c0 23 -37 32 -63 32c-50 0 -84 -19 -116 -47l-34 62l-351 -373l-57 65l337 324l314 339l58 -64l-248 -240c35 14 76 21 114 21
c89 0 148 -44 148 -103c0 -54 -45 -93 -114 -104c53 -8 81 -47 81 -92c0 -100 -110 -143 -211 -143zM364 296h-327c22 111 60 162 163 204c70 29 139 47 139 102c0 26 -23 38 -62 38c-49 0 -93 -24 -121 -46l-42 68c30 32 103 69 194 69c88 0 135 -40 135 -110
c0 -101 -77 -144 -148 -166c-54 -17 -86 -39 -92 -68h180z" />
    <glyph glyph-name="two.numerator" horiz-adv-x="415" 
d="M367 296h-339c23 111 62 161 169 204c72 28 144 47 144 102c0 26 -24 38 -64 38c-51 0 -97 -24 -126 -46l-43 68c31 32 106 69 201 69c91 0 140 -40 140 -110c0 -101 -80 -144 -154 -166c-56 -17 -89 -39 -95 -68h187z" />
    <glyph glyph-name="u" unicode="u" horiz-adv-x="606" 
d="M139 -10c-81 0 -123 44 -123 126c0 22 3 46 9 73l72 336h159l-64 -301c-3 -15 -5 -28 -5 -39c0 -40 18 -60 50 -60c36 0 78 21 119 76l69 324h160l-73 -345c-2 -9 -3 -15 -3 -21c0 -16 8 -23 26 -24l-29 -135c-29 -6 -51 -8 -68 -8c-51 0 -86 19 -86 64c0 8 2 17 5 35
c-60 -69 -135 -101 -218 -101z" />
    <glyph glyph-name="u.alt" 
d="M149 -10c-91 0 -133 44 -133 126c0 22 3 46 9 73l72 336h160l-64 -301c-3 -15 -5 -28 -5 -40c0 -37 16 -59 53 -59c33 0 75 23 116 76l68 324h160l-112 -525h-153l17 81c-48 -64 -121 -91 -188 -91z" />
    <glyph glyph-name="uacute" unicode="&#xfa;" horiz-adv-x="606" 
d="M493 730l-115 -144l-106 14l77 130h144zM139 -10c-81 0 -123 44 -123 126c0 22 3 46 9 73l72 336h159l-64 -301c-3 -15 -5 -28 -5 -39c0 -40 18 -60 50 -60c36 0 78 21 119 76l69 324h160l-73 -345c-2 -9 -3 -15 -3 -21c0 -16 8 -23 26 -24l-29 -135
c-29 -6 -51 -8 -68 -8c-51 0 -86 19 -86 64c0 8 2 17 5 35c-60 -69 -135 -101 -218 -101z" />
    <glyph glyph-name="ubreve" unicode="&#x16d;" horiz-adv-x="606" 
d="M139 -10c-81 0 -123 44 -123 126c0 22 3 46 9 73l72 336h159l-64 -301c-3 -15 -5 -28 -5 -39c0 -40 18 -60 50 -60c36 0 78 21 119 76l69 324h160l-73 -345c-2 -9 -3 -15 -3 -21c0 -16 8 -23 26 -24l-29 -135c-29 -6 -51 -8 -68 -8c-51 0 -86 19 -86 64c0 8 2 17 5 35
c-60 -69 -135 -101 -218 -101zM355 653c28 0 59 32 73 77h84c-18 -86 -90 -147 -172 -147c-71 0 -115 44 -115 110c0 12 2 24 5 37h84c-2 -7 -3 -15 -3 -21c0 -32 18 -56 44 -56z" />
    <glyph glyph-name="ucircumflex" unicode="&#xfb;" horiz-adv-x="606" 
d="M277 586l-74 36l128 108h114l82 -108l-89 -36l-67 63zM139 -10c-81 0 -123 44 -123 126c0 22 3 46 9 73l72 336h159l-64 -301c-3 -15 -5 -28 -5 -39c0 -40 18 -60 50 -60c36 0 78 21 119 76l69 324h160l-73 -345c-2 -9 -3 -15 -3 -21c0 -16 8 -23 26 -24l-29 -135
c-29 -6 -51 -8 -68 -8c-51 0 -86 19 -86 64c0 8 2 17 5 35c-60 -69 -135 -101 -218 -101z" />
    <glyph glyph-name="udieresis" unicode="&#xfc;" horiz-adv-x="606" 
d="M313 593h-132l28 129h132zM518 593h-132l28 129h131zM139 -10c-81 0 -123 44 -123 126c0 22 3 46 9 73l72 336h159l-64 -301c-3 -15 -5 -28 -5 -39c0 -40 18 -60 50 -60c36 0 78 21 119 76l69 324h160l-73 -345c-2 -9 -3 -15 -3 -21c0 -16 8 -23 26 -24l-29 -135
c-29 -6 -51 -8 -68 -8c-51 0 -86 19 -86 64c0 8 2 17 5 35c-60 -69 -135 -101 -218 -101z" />
    <glyph glyph-name="ugrave" unicode="&#xf9;" horiz-adv-x="606" 
d="M139 -10c-81 0 -123 44 -123 126c0 22 3 46 9 73l72 336h159l-64 -301c-3 -15 -5 -28 -5 -39c0 -40 18 -60 50 -60c36 0 78 21 119 76l69 324h160l-73 -345c-2 -9 -3 -15 -3 -21c0 -16 8 -23 26 -24l-29 -135c-29 -6 -51 -8 -68 -8c-51 0 -86 19 -86 64c0 8 2 17 5 35
c-60 -69 -135 -101 -218 -101zM313 584l-55 146h144l22 -130z" />
    <glyph glyph-name="uhungarumlaut" unicode="&#x171;" horiz-adv-x="606" 
d="M139 -10c-81 0 -123 44 -123 126c0 22 3 46 9 73l72 336h159l-64 -301c-3 -15 -5 -28 -5 -39c0 -40 18 -60 50 -60c36 0 78 21 119 76l69 324h160l-73 -345c-2 -9 -3 -15 -3 -21c0 -16 8 -23 26 -24l-29 -135c-29 -6 -51 -8 -68 -8c-51 0 -86 19 -86 64c0 8 2 17 5 35
c-60 -69 -135 -101 -218 -101zM375 730l-106 -142l-81 12l68 130h119zM545 730l-106 -142l-81 12l67 130h120z" />
    <glyph glyph-name="umacron" unicode="&#x16b;" horiz-adv-x="606" 
d="M139 -10c-81 0 -123 44 -123 126c0 22 3 46 9 73l72 336h159l-64 -301c-3 -15 -5 -28 -5 -39c0 -40 18 -60 50 -60c36 0 78 21 119 76l69 324h160l-73 -345c-2 -9 -3 -15 -3 -21c0 -16 8 -23 26 -24l-29 -135c-29 -6 -51 -8 -68 -8c-51 0 -86 19 -86 64c0 8 2 17 5 35
c-60 -69 -135 -101 -218 -101zM500 620h-290l20 97h291z" />
    <glyph glyph-name="underscore" unicode="_" horiz-adv-x="441" 
d="M296 -144h-340l30 144h340z" />
    <glyph glyph-name="uni00A0" unicode="&#xa0;" horiz-adv-x="230" 
 />
    <glyph glyph-name="uni00AD" unicode="&#xad;" horiz-adv-x="595" 
d="M520 203h-488l31 144h488z" />
    <glyph glyph-name="uni015E" unicode="&#x15e;" horiz-adv-x="594" 
d="M93 -183l42 56c12 -9 47 -20 82 -20c34 0 60 10 60 38c0 19 -17 26 -45 26c-26 0 -62 -7 -78 -11l60 87c-90 6 -179 37 -241 87l102 143c6 -14 99 -83 203 -83c63 0 88 26 88 63c0 45 -64 59 -141 86c-95 34 -143 77 -143 155c0 172 150 272 305 272
c96 0 177 -41 229 -78l-100 -136c-4 11 -84 68 -165 68c-56 0 -89 -26 -89 -70c0 -39 44 -52 119 -76c102 -33 170 -73 170 -172c0 -174 -135 -249 -272 -259l-27 -31c8 2 18 3 28 3c39 0 72 -18 72 -60c0 -58 -52 -109 -158 -109c-44 0 -78 10 -101 21z" />
    <glyph glyph-name="uni015F" unicode="&#x15f;" horiz-adv-x="482" 
d="M26 -183l42 56c12 -9 47 -20 82 -20c34 0 60 10 60 38c0 19 -17 26 -45 26c-26 0 -62 -7 -78 -11l59 86c-69 8 -134 36 -172 82l77 98c51 -44 105 -69 157 -69c42 0 64 20 64 50c0 23 -20 36 -74 53c-110 35 -156 64 -156 125c0 117 111 204 243 204
c74 0 134 -19 185 -74l-82 -96c-49 41 -87 59 -127 59c-36 0 -63 -18 -63 -52c0 -23 21 -34 73 -49c114 -33 162 -67 162 -133c0 -112 -90 -191 -223 -199l-25 -29c8 2 18 3 28 3c39 0 72 -18 72 -60c0 -58 -52 -109 -158 -109c-44 0 -78 10 -101 21z" />
    <glyph glyph-name="uni0162" unicode="&#x162;" horiz-adv-x="596" 
d="M152 0l121 566h-203l30 144h569l-30 -144h-202l-121 -566h-53l-33 -38c8 2 18 3 28 3c39 0 72 -18 72 -60c0 -58 -52 -109 -158 -109c-44 0 -78 10 -101 21l42 56c12 -9 47 -20 82 -20c34 0 60 10 60 38c0 19 -17 26 -45 26c-26 0 -62 -7 -78 -11l65 94h-45z" />
    <glyph glyph-name="uni0163" unicode="&#x163;" horiz-adv-x="392" 
d="M-5 -183l42 56c12 -9 47 -20 82 -20c34 0 60 10 60 38c0 19 -17 26 -45 26c-26 0 -62 -7 -78 -11l61 89c-43 11 -71 39 -71 94c0 13 1 26 4 41l58 274h-63l27 121h62l36 167h160l-36 -167h101l-26 -121h-101l-46 -219c-1 -6 -2 -12 -2 -17c0 -23 14 -32 34 -32
c21 0 51 10 73 19v-127c-44 -19 -98 -34 -149 -37l-24 -29c8 2 18 3 28 3c39 0 72 -18 72 -60c0 -58 -52 -109 -158 -109c-44 0 -78 10 -101 21z" />
    <glyph glyph-name="uni0218" unicode="&#x218;" horiz-adv-x="594" 
d="M216 -213h-70l45 67h-47l21 99h133l-21 -99zM244 -8c-99 0 -202 33 -271 88l102 143c6 -14 99 -83 203 -83c63 0 88 26 88 63c0 45 -64 59 -141 86c-95 34 -143 77 -143 155c0 172 150 272 305 272c96 0 177 -41 229 -78l-100 -136c-4 11 -84 68 -165 68
c-56 0 -89 -26 -89 -70c0 -39 44 -52 119 -76c102 -33 170 -73 170 -172c0 -189 -159 -260 -307 -260z" />
    <glyph glyph-name="uni0219" unicode="&#x219;" horiz-adv-x="482" 
d="M150 -213h-70l45 67h-47l21 99h133l-21 -99zM187 -10c-84 0 -167 30 -213 84l77 98c51 -44 105 -69 157 -69c42 0 64 20 64 50c0 23 -20 36 -74 53c-110 35 -156 64 -156 125c0 117 111 204 243 204c74 0 134 -19 185 -74l-82 -96c-49 41 -87 59 -127 59
c-36 0 -63 -18 -63 -52c0 -23 21 -34 73 -49c114 -33 162 -67 162 -133c0 -118 -100 -200 -246 -200z" />
    <glyph glyph-name="uni021A" unicode="&#x21a;" horiz-adv-x="596" 
d="M207 -213h-70l45 67h-47l21 99h133l-21 -99zM152 0l121 566h-203l30 144h569l-30 -144h-202l-121 -566h-164z" />
    <glyph glyph-name="uni021B" unicode="&#x21b;" horiz-adv-x="392" 
d="M140 -213h-70l45 67h-47l21 99h133l-21 -99zM163 -10c-67 0 -117 27 -117 99c0 13 1 26 4 41l58 274h-63l27 121h62l36 167h160l-36 -167h101l-26 -121h-101l-46 -219c-1 -6 -2 -12 -2 -17c0 -23 14 -32 34 -32c21 0 51 10 73 19v-127c-48 -21 -109 -38 -164 -38z" />
    <glyph glyph-name="uni03BC" unicode="&#x3bc;" horiz-adv-x="618" 
d="M-56 -213l157 738h160l-64 -301c-3 -15 -5 -29 -5 -40c0 -39 18 -59 53 -59c33 0 75 21 116 76l69 324h160l-73 -345c-2 -7 -3 -13 -3 -19c0 -18 10 -25 34 -26l-29 -135c-33 -6 -57 -8 -76 -8c-55 0 -84 22 -84 64c0 3 0 21 4 35c-24 -39 -97 -101 -156 -101
c-38 0 -58 19 -59 48l-44 -251h-160z" />
    <glyph glyph-name="uni2215" unicode="&#x2215;" horiz-adv-x="611" 
d="M12 -9l-75 76l685 652l75 -75z" />
    <glyph glyph-name="uni2219" unicode="&#x2219;" horiz-adv-x="238" 
d="M171 240h-131l35 166h131z" />
    <glyph glyph-name="uogonek" unicode="&#x173;" horiz-adv-x="606" 
d="M139 -10c-81 0 -123 44 -123 126c0 22 3 46 9 73l72 336h159l-64 -301c-3 -15 -5 -28 -5 -39c0 -40 18 -60 50 -60c36 0 78 21 119 76l69 324h160l-73 -345c-2 -9 -3 -15 -3 -21c0 -16 8 -23 26 -24l-29 -135c-59 -34 -89 -62 -89 -88c0 -19 18 -32 56 -33l-49 -84
c-76 10 -112 43 -112 82s32 80 97 118c-35 6 -57 25 -57 61c0 8 2 17 5 35c-60 -69 -135 -101 -218 -101z" />
    <glyph glyph-name="uring" unicode="&#x16f;" horiz-adv-x="606" 
d="M255 632c0 63 51 98 124 98c55 0 88 -23 88 -66c0 -62 -51 -97 -123 -97c-55 0 -89 23 -89 65zM368 683c-24 0 -45 -17 -45 -40c0 -17 12 -29 31 -29c23 0 46 17 46 41c0 16 -13 28 -32 28zM139 -10c-81 0 -123 44 -123 126c0 22 3 46 9 73l72 336h159l-64 -301
c-3 -15 -5 -28 -5 -39c0 -40 18 -60 50 -60c36 0 78 21 119 76l69 324h160l-73 -345c-2 -9 -3 -15 -3 -21c0 -16 8 -23 26 -24l-29 -135c-29 -6 -51 -8 -68 -8c-51 0 -86 19 -86 64c0 8 2 17 5 35c-60 -69 -135 -101 -218 -101z" />
    <glyph glyph-name="utilde" unicode="&#x169;" horiz-adv-x="606" 
d="M139 -10c-81 0 -123 44 -123 126c0 22 3 46 9 73l72 336h159l-64 -301c-3 -15 -5 -28 -5 -39c0 -40 18 -60 50 -60c36 0 78 21 119 76l69 324h160l-73 -345c-2 -9 -3 -15 -3 -21c0 -16 8 -23 26 -24l-29 -135c-29 -6 -51 -8 -68 -8c-51 0 -86 19 -86 64c0 8 2 17 5 35
c-60 -69 -135 -101 -218 -101zM413 588c-58 0 -75 46 -117 46c-43 0 -54 -45 -54 -48h-87c6 30 63 142 154 142c61 0 73 -48 117 -48c43 0 59 47 60 50h85c-4 -21 -64 -142 -158 -142z" />
    <glyph glyph-name="v" unicode="v" horiz-adv-x="536" 
d="M109 0l-62 525h166l17 -397c89 148 136 249 183 397h145c-48 -174 -148 -351 -283 -525h-166z" />
    <glyph glyph-name="w" unicode="w" horiz-adv-x="802" 
d="M136 0l-98 525h154l51 -380c13 16 61 112 71 128l-48 252h133l18 -159c9 17 67 142 72 159h123c-36 -95 -73 -170 -128 -251l17 -93c107 142 140 201 197 344h145c-65 -174 -180 -351 -333 -525h-105l-25 184c-10 -14 -95 -170 -106 -184h-138z" />
    <glyph glyph-name="w.alt" horiz-adv-x="849" 
d="M107 0l-58 525h165l28 -335l152 335h150l11 -335l169 335h165l-281 -525h-182l-10 275l-135 -275h-174z" />
    <glyph glyph-name="wacute" unicode="&#x1e83;" horiz-adv-x="802" 
d="M602 730l-115 -144l-106 14l77 130h144zM136 0l-98 525h154l51 -380c13 16 61 112 71 128l-48 252h133l18 -159c9 17 67 142 72 159h123c-36 -95 -73 -170 -128 -251l17 -93c107 142 140 201 197 344h145c-65 -174 -180 -351 -333 -525h-105l-25 184
c-10 -14 -95 -170 -106 -184h-138z" />
    <glyph glyph-name="wcircumflex" unicode="&#x175;" horiz-adv-x="802" 
d="M376 586l-74 36l128 108h114l82 -108l-89 -36l-67 63zM136 0l-98 525h154l51 -380c13 16 61 112 71 128l-48 252h133l18 -159c9 17 67 142 72 159h123c-36 -95 -73 -170 -128 -251l17 -93c107 142 140 201 197 344h145c-65 -174 -180 -351 -333 -525h-105l-25 184
c-10 -14 -95 -170 -106 -184h-138z" />
    <glyph glyph-name="wdieresis" unicode="&#x1e85;" horiz-adv-x="802" 
d="M420 593h-132l28 129h132zM625 593h-132l28 129h131zM136 0l-98 525h154l51 -380c13 16 61 112 71 128l-48 252h133l18 -159c9 17 67 142 72 159h123c-36 -95 -73 -170 -128 -251l17 -93c107 142 140 201 197 344h145c-65 -174 -180 -351 -333 -525h-105l-25 184
c-10 -14 -95 -170 -106 -184h-138z" />
    <glyph glyph-name="wgrave" unicode="&#x1e81;" horiz-adv-x="802" 
d="M136 0l-98 525h154l51 -380c13 16 61 112 71 128l-48 252h133l18 -159c9 17 67 142 72 159h123c-36 -95 -73 -170 -128 -251l17 -93c107 142 140 201 197 344h145c-65 -174 -180 -351 -333 -525h-105l-25 184c-10 -14 -95 -170 -106 -184h-138zM416 584l-55 146h144
l22 -130z" />
    <glyph glyph-name="x" unicode="x" horiz-adv-x="522" 
d="M-64 0l230 262l-114 263h162l54 -148l5 -19l12 19l120 148h161l-227 -263l119 -262h-163l-58 147l-5 19l-12 -19l-120 -147h-164z" />
    <glyph glyph-name="y" unicode="y" horiz-adv-x="531" 
d="M-31 -231l-19 120c79 4 107 15 144 63l29 37l-78 536h163l29 -388l34 56c67 109 107 211 133 332h154c-36 -129 -74 -209 -206 -422l-80 -129c-94 -152 -176 -204 -303 -205z" />
    <glyph glyph-name="y.alt" horiz-adv-x="521" 
d="M-4 -213c32 51 77 131 125 213l-76 525h171l21 -388l176 388h150l-381 -738h-186z" />
    <glyph glyph-name="yacute" unicode="&#xfd;" horiz-adv-x="531" 
d="M-31 -231l-19 120c79 4 107 15 144 63l29 37l-78 536h163l29 -388l34 56c67 109 107 211 133 332h154c-36 -129 -74 -209 -206 -422l-80 -129c-94 -152 -176 -204 -303 -205zM464 730l-115 -144l-106 14l77 130h144z" />
    <glyph glyph-name="ycircumflex" unicode="&#x177;" horiz-adv-x="531" 
d="M-31 -231l-19 120c79 4 107 15 144 63l29 37l-78 536h163l29 -388l34 56c67 109 107 211 133 332h154c-36 -129 -74 -209 -206 -422l-80 -129c-94 -152 -176 -204 -303 -205zM247 586l-74 36l128 108h114l82 -108l-89 -36l-67 63z" />
    <glyph glyph-name="ydieresis" unicode="&#xff;" horiz-adv-x="531" 
d="M-31 -231l-19 120c79 4 107 15 144 63l29 37l-78 536h163l29 -388l34 56c67 109 107 211 133 332h154c-36 -129 -74 -209 -206 -422l-80 -129c-94 -152 -176 -204 -303 -205zM287 593h-132l28 129h132zM492 593h-132l28 129h131z" />
    <glyph glyph-name="yen" unicode="&#xa5;" horiz-adv-x="700" 
d="M751 710l-211 -294h64l-22 -103h-117l-51 -71l-7 -31h154l-21 -103h-155l-23 -108h-163l22 108h-152l22 103h153l7 33l-20 69h-118l22 103h66l-86 294h178l69 -326l210 326h179z" />
    <glyph glyph-name="ygrave" unicode="&#x1ef3;" horiz-adv-x="531" 
d="M-31 -231l-19 120c79 4 107 15 144 63l29 37l-78 536h163l29 -388l34 56c67 109 107 211 133 332h154c-36 -129 -74 -209 -206 -422l-80 -129c-94 -152 -176 -204 -303 -205zM279 584l-55 146h144l22 -130z" />
    <glyph glyph-name="ytilde" unicode="&#x1ef9;" horiz-adv-x="531" 
d="M-31 -231l-19 120c79 4 107 15 144 63l29 37l-78 536h163l29 -388l34 56c67 109 107 211 133 332h154c-36 -129 -74 -209 -206 -422l-80 -129c-94 -152 -176 -204 -303 -205zM382 588c-58 0 -75 46 -117 46c-43 0 -54 -45 -54 -48h-87c6 30 63 142 154 142
c61 0 73 -48 117 -48c43 0 59 47 60 50h85c-4 -21 -64 -142 -158 -142z" />
    <glyph glyph-name="z" unicode="z" horiz-adv-x="471" 
d="M-40 0l21 96l312 318h-232l24 111h401l-21 -96l-312 -318h252l-24 -111h-421z" />
    <glyph glyph-name="zacute" unicode="&#x17a;" horiz-adv-x="471" 
d="M434 730l-115 -144l-106 14l77 130h144zM-40 0l21 96l312 318h-232l24 111h401l-21 -96l-312 -318h252l-24 -111h-421z" />
    <glyph glyph-name="zcaron" unicode="&#x17e;" horiz-adv-x="471" 
d="M225 586l-82 107l89 37l67 -63l94 63l75 -37l-128 -107h-115zM-40 0l21 96l312 318h-232l24 111h401l-21 -96l-312 -318h252l-24 -111h-421z" />
    <glyph glyph-name="zdotaccent" unicode="&#x17c;" horiz-adv-x="471" 
d="M-40 0l21 96l312 318h-232l24 111h401l-21 -96l-312 -318h252l-24 -111h-421zM363 593h-144l29 137h144z" />
    <glyph glyph-name="zero" unicode="0" horiz-adv-x="595" 
d="M231 -10c-119 0 -194 98 -194 235c0 206 155 372 324 372c118 0 193 -98 193 -236c0 -206 -155 -371 -323 -371zM262 137c66 0 128 95 128 207c0 63 -22 106 -60 106c-70 0 -131 -98 -131 -208c0 -63 23 -105 63 -105z" />
    <glyph glyph-name="zero.lnum" horiz-adv-x="682" 
d="M275 -10c-164 0 -234 152 -234 290c0 196 174 430 386 430c165 0 234 -156 234 -292c0 -196 -173 -428 -386 -428zM306 136c118 0 188 169 188 274c0 77 -28 154 -97 154c-121 0 -189 -184 -189 -290c0 -73 27 -138 98 -138z" />
    <glyph glyph-name="zeroinferior" unicode="&#x2080;" horiz-adv-x="482" 
d="M158 -93c-119 0 -171 96 -171 181c0 118 116 255 264 255c118 0 169 -98 169 -183c0 -116 -114 -253 -262 -253zM84 101c0 -49 28 -101 94 -101c93 0 145 89 145 148c0 50 -29 102 -93 102c-94 0 -146 -90 -146 -149z" />
    <glyph glyph-name="zerosuperior" unicode="&#x2070;" horiz-adv-x="482" 
d="M258 381c-119 0 -170 96 -170 181c0 118 116 255 263 255c119 0 169 -98 169 -183c0 -116 -114 -253 -262 -253zM185 575c0 -49 27 -101 93 -101c93 0 145 90 145 148c0 51 -28 102 -92 102c-94 0 -146 -89 -146 -149z" />
    <glyph glyph-name="emspace" unicode="&#x2003;" horiz-adv-x="889" 
 />
    <glyph glyph-name="enspace" unicode="&#x2002;" horiz-adv-x="583" 
 />
    <glyph glyph-name="uni030F" unicode="&#x30f;" horiz-adv-x="366" 
d="M255 584l-47 146h118l14 -130zM85 584l-47 146h119l13 -130z" />
    <glyph glyph-name="uni0311" unicode="&#x311;" horiz-adv-x="335" 
d="M32 583c18 86 90 147 172 147c72 0 113 -50 113 -114c0 -11 -1 -21 -3 -33h-84c2 11 3 21 3 30c0 32 -14 47 -44 47c-35 0 -63 -21 -74 -77h-83z" />
    <glyph glyph-name="uni02C9" unicode="&#x2c9;" horiz-adv-x="410" 
d="M60 620l20 97h291l-21 -97h-290z" />
    <glyph glyph-name="dotbelow" horiz-adv-x="239" 
d="M148 -204h-144l29 137h144z" />
    <glyph glyph-name="currency" unicode="&#xa4;" horiz-adv-x="580" 
d="M125 572l69 -71c29 16 64 26 105 26c40 0 74 -10 103 -25l69 70l62 -62l-66 -66c20 -30 31 -68 31 -106c0 -40 -11 -77 -32 -108l67 -66l-57 -57l-72 67c-28 -16 -64 -25 -105 -25c-42 0 -78 10 -107 26l-72 -68l-57 57l67 68c-19 31 -30 67 -30 106c0 38 10 74 29 104
l-66 68zM215 337c0 -54 36 -91 84 -91s84 37 84 92s-36 91 -84 91s-84 -36 -84 -92z" />
    <glyph glyph-name="colonmonetary" unicode="&#x20a1;" horiz-adv-x="555" 
d="M101 -120l27 131c-76 36 -114 113 -114 200c0 130 86 259 222 305l27 129h72l-24 -112c12 1 25 2 38 2c6 0 13 0 19 -1l24 111h72l-27 -124c63 -21 102 -67 119 -125l-166 -47c-12 32 -36 50 -71 50c-71 0 -138 -72 -138 -170c0 -62 32 -104 80 -104c35 0 71 21 93 52
l146 -48c-40 -58 -100 -104 -173 -126l-26 -123h-72l24 111c-7 -1 -13 -1 -20 -1c-13 0 -25 1 -37 3l-24 -113h-71z" />
    <glyph glyph-name="uni20A9" unicode="&#x20a9;" horiz-adv-x="1104" 
d="M10 162l22 100h170l-16 98h-133l21 100h96l-41 250h177l25 -250h119l-31 249h151l18 -227l114 227h152l-138 -249h120l131 250h178l-147 -250h99l-21 -100h-137l-58 -98h174l-21 -100h-212l-95 -162h-138l-45 278l-162 -278h-137l-27 162h-208zM673 360l11 -98h48l51 98
h-110zM341 360l10 -98h47l52 98h-109z" />
    <glyph glyph-name="franc" unicode="&#x20a3;" horiz-adv-x="583" 
d="M202 0h-164l19 91h-68l23 105h68l109 514h460l-32 -144h-294l-33 -153h243l-29 -133h-242l-18 -84h102l-22 -105h-103z" />
    <glyph glyph-name="uni20A6" unicode="&#x20a6;" horiz-adv-x="827" 
d="M834 516l-22 -100h-77l-29 -137h77l-20 -100h-78l-38 -179h-132l-94 179h-166l-38 -179h-164l38 179h-79l22 100h78l29 137h-78l21 100h78l41 194h129l98 -194h162l41 194h165l-41 -194h77zM303 406l-27 -127h93zM481 416l63 -123l26 123h-89z" />
    <glyph glyph-name="lira" unicode="&#x20a4;" horiz-adv-x="533" 
d="M50 345l21 100h62c-3 18 -5 37 -5 55c0 120 122 215 251 215c81 0 150 -39 188 -105l-103 -98c-22 42 -71 74 -114 74c-46 0 -82 -37 -82 -88c0 -17 3 -34 7 -53h154l-21 -100h-117c1 -5 1 -10 1 -15c0 -8 -1 -16 -1 -24h109l-22 -100h-124c-17 -26 -41 -53 -74 -83
c31 10 55 14 76 14c43 0 80 -16 122 -16c22 0 40 5 68 14l13 -118c-33 -19 -81 -32 -118 -32c-58 0 -116 31 -179 31c-35 0 -88 -10 -136 -25l-8 114c41 28 75 63 99 101h-97l22 100h109c0 3 1 6 1 9c0 10 -1 20 -2 30h-100z" />
    <glyph glyph-name="uni20B9" unicode="&#x20b9;" horiz-adv-x="539" 
d="M551 542l-21 -100h-94c-23 -76 -83 -143 -160 -178l113 -264h-185l-145 358h130c30 0 64 35 80 84h-199l22 100h181c-8 24 -24 39 -41 39h-132l27 129h460l-22 -100h-141c10 -21 17 -44 20 -68h107z" />
    <glyph glyph-name="servicemark" unicode="&#x2120;" horiz-adv-x="792" 
d="M593 565l72 145h154l-64 -303h-102l37 174l-80 -132h-82l-24 132l-37 -174h-102l65 303h153zM380 682l-52 -72c-31 18 -55 29 -83 29c-22 0 -36 -6 -36 -19c0 -10 10 -16 47 -25c68 -18 97 -39 97 -80c0 -71 -61 -114 -147 -114c-50 0 -107 16 -139 39l54 74
c30 -21 66 -35 100 -35c24 0 36 5 36 17c0 10 -13 15 -51 26c-64 17 -91 38 -91 76c0 68 66 118 147 118c39 0 80 -13 118 -34z" />
    <glyph glyph-name="Schwa" unicode="&#x18f;" horiz-adv-x="724" 
d="M292 -5c-184 0 -273 147 -273 288c0 56 14 97 25 122h493c1 10 2 20 2 29c0 88 -55 135 -125 135c-60 0 -128 -37 -156 -95l-159 52c75 113 201 188 347 188c179 0 269 -144 269 -290c0 -201 -176 -429 -423 -429zM325 139c82 0 154 56 183 143h-315
c-3 -11 -4 -21 -4 -31c0 -67 55 -112 136 -112z" />
    <glyph glyph-name="uni01F1" unicode="&#x1f1;" horiz-adv-x="1278" 
d="M647 0l26 123l435 443h-327l30 144h518l-27 -123l-419 -443h329l-30 -144h-535zM4 0l151 710h254c185 0 272 -121 272 -276c0 -250 -182 -434 -423 -434h-254zM198 144h90c134 0 223 125 223 266c0 93 -46 156 -133 156h-90z" />
    <glyph glyph-name="uni01F2" unicode="&#x1f2;" horiz-adv-x="1160" 
d="M648 0l21 96l312 318h-232l24 111h401l-21 -96l-312 -318h252l-24 -111h-421zM4 0l151 710h254c185 0 272 -121 272 -276c0 -250 -182 -434 -423 -434h-254zM198 144h90c134 0 223 125 223 266c0 93 -46 156 -133 156h-90z" />
    <glyph glyph-name="uni01F3" unicode="&#x1f3;" horiz-adv-x="1105" 
d="M594 0l21 96l312 318h-232l24 111h401l-21 -96l-312 -318h252l-24 -111h-421zM197 -10c-116 0 -186 91 -186 213c0 177 134 332 286 332c68 0 119 -38 137 -96l62 291h161l-118 -550c-1 -9 -2 -15 -2 -21c0 -16 7 -23 25 -24l-28 -135c-30 -6 -52 -8 -68 -8
c-51 0 -86 19 -86 64c0 8 1 17 4 31c-49 -65 -120 -97 -187 -97zM269 125c40 0 84 28 115 73l23 110c-7 53 -44 91 -87 91c-73 0 -140 -83 -140 -170c0 -60 33 -104 89 -104z" />
    <glyph glyph-name="uni01C7" unicode="&#x1c7;" horiz-adv-x="1046" 
d="M655 -11c-58 0 -103 15 -137 44l63 134c9 -10 51 -32 105 -32c89 0 114 65 146 214l77 361h165l-77 -361c-46 -216 -106 -360 -342 -360zM4 0l151 710h164l-121 -566h321l-30 -144h-485z" />
    <glyph glyph-name="uni01C8" unicode="&#x1c8;" horiz-adv-x="835" 
d="M488 -202c-50 0 -95 17 -125 50l90 109c9 -14 26 -21 44 -21c27 0 52 21 59 55l113 534h160l-110 -522c-26 -121 -123 -205 -231 -205zM682 585l31 145h160l-31 -145h-160zM4 0l151 710h164l-121 -566h321l-30 -144h-485z" />
    <glyph glyph-name="uni01C9" unicode="&#x1c9;" horiz-adv-x="599" 
d="M251 -202c-50 0 -95 17 -125 50l90 109c9 -14 26 -21 44 -21c27 0 52 21 59 55l113 534h160l-110 -522c-26 -121 -123 -205 -231 -205zM445 585l31 145h160l-31 -145h-160zM126 -9c-75 0 -115 35 -115 98c0 13 2 26 5 42l127 599h160l-116 -543c-1 -7 -2 -15 -2 -21
c0 -25 13 -39 38 -39c15 0 36 5 53 14l-5 -120c-43 -18 -101 -30 -145 -30z" />
    <glyph glyph-name="uni01CA" unicode="&#x1ca;" horiz-adv-x="1212" 
d="M821 -11c-58 0 -103 15 -137 44l63 134c9 -10 51 -32 105 -32c89 0 114 65 146 214l77 361h165l-77 -361c-46 -216 -106 -360 -342 -360zM4 0l151 710h128l213 -417l88 417h164l-151 -710h-130l-213 406l-86 -406h-164z" />
    <glyph glyph-name="uni01CB" unicode="&#x1cb;" horiz-adv-x="1002" 
d="M654 -202c-50 0 -95 17 -125 50l90 109c9 -14 26 -21 44 -21c27 0 52 21 59 55l113 534h160l-110 -522c-26 -121 -123 -205 -231 -205zM848 585l31 145h160l-31 -145h-160zM4 0l151 710h128l213 -417l88 417h164l-151 -710h-130l-213 406l-86 -406h-164z" />
    <glyph glyph-name="uni01CC" unicode="&#x1cc;" horiz-adv-x="864" 
d="M516 -202c-50 0 -95 17 -125 50l90 109c9 -14 26 -21 44 -21c27 0 52 21 59 55l113 534h160l-110 -522c-26 -121 -123 -205 -231 -205zM710 585l31 145h160l-31 -145h-160zM-10 0l112 525h144l-19 -88c49 62 126 98 213 98c93 0 118 -57 118 -121c0 -26 -4 -53 -9 -78
l-71 -336h-160l63 295c3 15 4 28 4 40c0 41 -19 59 -48 59c-38 0 -94 -39 -123 -93l-64 -301h-160z" />
    <glyph glyph-name="uni01C4" unicode="&#x1c4;" horiz-adv-x="1288" 
d="M1023 772l-82 107l89 37l67 -63l94 63l75 -37l-128 -107h-115zM657 0l26 123l435 443h-327l30 144h518l-27 -123l-419 -443h329l-30 -144h-535zM4 0l151 710h254c185 0 272 -121 272 -276c0 -250 -182 -434 -423 -434h-254zM198 144h90c134 0 223 125 223 266
c0 93 -46 156 -133 156h-90z" />
    <glyph glyph-name="uni01C5" unicode="&#x1c5;" horiz-adv-x="1164" 
d="M918 586l-82 107l89 37l67 -63l94 63l75 -37l-128 -107h-115zM653 0l21 96l312 318h-232l24 111h401l-21 -96l-312 -318h252l-24 -111h-421zM4 0l151 710h254c185 0 272 -121 272 -276c0 -250 -182 -434 -423 -434h-254zM198 144h90c134 0 223 125 223 266
c0 93 -46 156 -133 156h-90z" />
    <glyph glyph-name="uni01C6" unicode="&#x1c6;" horiz-adv-x="1105" 
d="M859 586l-82 107l89 37l67 -63l94 63l75 -37l-128 -107h-115zM594 0l21 96l312 318h-232l24 111h401l-21 -96l-312 -318h252l-24 -111h-421zM197 -10c-116 0 -186 91 -186 213c0 177 134 332 286 332c68 0 119 -38 137 -96l62 291h161l-118 -550c-1 -9 -2 -15 -2 -21
c0 -16 7 -23 25 -24l-28 -135c-30 -6 -52 -8 -68 -8c-51 0 -86 19 -86 64c0 8 1 17 4 31c-49 -65 -120 -97 -187 -97zM269 125c40 0 84 28 115 73l23 110c-7 53 -44 91 -87 91c-73 0 -140 -83 -140 -170c0 -60 33 -104 89 -104z" />
    <glyph glyph-name="notequal" unicode="&#x2260;" horiz-adv-x="469" 
d="M69 319v102h192l63 128l57 -31l-48 -97h54v-102h-104l-42 -86h146v-102h-196l-60 -123l-57 29l46 94h-51v102h101l42 86h-143z" />
    <glyph glyph-name="approxequal" unicode="&#x2248;" horiz-adv-x="462" 
d="M335 410l72 -40c-20 -40 -57 -81 -114 -81c-61 0 -89 46 -133 46c-24 0 -36 -11 -42 -24l-74 44c19 39 54 77 110 77c62 0 86 -49 133 -49c26 0 40 13 48 27zM335 241l72 -42c-20 -38 -57 -79 -114 -79c-61 0 -89 47 -133 47c-24 0 -36 -12 -42 -24l-74 44
c19 38 54 76 110 76c62 0 86 -48 133 -48c26 0 40 12 48 26z" />
    <glyph glyph-name="lessequal" unicode="&#x2264;" horiz-adv-x="486" 
d="M415 16h-366v127h366v-127zM51 344v118l362 167v-154l-199 -68l199 -62v-154z" />
    <glyph glyph-name="greaterequal" unicode="&#x2265;" horiz-adv-x="516" 
d="M83 16v127h366v-127h-366zM85 191v154l199 62l-199 68v154l362 -167v-118z" />
    <glyph glyph-name="Adblgrave" unicode="&#x200;" horiz-adv-x="641" 
d="M-57 0l394 710h149l92 -710h-168l-15 159h-202l-81 -159h-169zM242 272h150l-20 251zM480 772l-47 146h118l14 -130zM310 772l-47 146h119l13 -130z" />
    <glyph glyph-name="Ainvertedbreve" unicode="&#x202;" horiz-adv-x="641" 
d="M-57 0l394 710h149l92 -710h-168l-15 159h-202l-81 -159h-169zM242 272h150l-20 251zM284 769c18 86 90 147 172 147c72 0 113 -50 113 -114c0 -11 -1 -21 -3 -33h-84c2 11 3 21 3 30c0 32 -14 47 -44 47c-35 0 -63 -21 -74 -77h-83z" />
    <glyph glyph-name="Ddotbelow" unicode="&#x1e0c;" horiz-adv-x="693" 
d="M299 -204h-144l29 137h144zM4 0l151 710h254c185 0 272 -121 272 -276c0 -250 -182 -434 -423 -434h-254zM198 144h90c134 0 223 125 223 266c0 93 -46 156 -133 156h-90z" />
    <glyph glyph-name="Edotbelow" unicode="&#x1eb8;" horiz-adv-x="576" 
d="M4 0l151 710h467l-31 -144h-303l-29 -138h260l-28 -133h-260l-33 -151h312l-30 -144h-476zM264 -204h-144l29 137h144z" />
    <glyph glyph-name="Edblgrave" unicode="&#x204;" horiz-adv-x="576" 
d="M462 772l-47 146h118l14 -130zM292 772l-47 146h119l13 -130zM4 0l151 710h467l-31 -144h-303l-29 -138h260l-28 -133h-260l-33 -151h312l-30 -144h-476z" />
    <glyph glyph-name="Einvertedbreve" unicode="&#x206;" horiz-adv-x="576" 
d="M260 769c18 86 90 147 172 147c72 0 113 -50 113 -114c0 -11 -1 -21 -3 -33h-84c2 11 3 21 3 30c0 32 -14 47 -44 47c-35 0 -63 -21 -74 -77h-83zM4 0l151 710h467l-31 -144h-303l-29 -138h260l-28 -133h-260l-33 -151h312l-30 -144h-476z" />
    <glyph glyph-name="Gacute" unicode="&#x1f4;" horiz-adv-x="704" 
d="M621 916l-115 -144l-106 14l77 130h144zM466 0l15 70c-63 -51 -123 -75 -190 -75c-151 0 -258 117 -258 290c0 235 206 430 425 430c123 0 211 -60 238 -155l-141 -92c-17 63 -70 101 -134 101c-117 0 -219 -124 -219 -265c0 -94 50 -163 134 -163c59 0 120 30 179 88
l5 23h-129l25 119h265l-79 -371h-136z" />
    <glyph glyph-name="Hdotbelow" unicode="&#x1e24;" horiz-adv-x="721" 
d="M4 0l151 710h164l-59 -275h257l59 275h164l-151 -710h-164l62 291h-257l-62 -291h-164zM323 -204h-144l29 137h144z" />
    <glyph glyph-name="Idotbelow" unicode="&#x1eca;" horiz-adv-x="300" 
d="M4 0l151 710h164l-151 -710h-164zM117 -204h-144l29 137h144z" />
    <glyph glyph-name="Idblgrave" unicode="&#x208;" horiz-adv-x="300" 
d="M4 0l151 710h164l-151 -710h-164zM313 772l-47 146h118l14 -130zM143 772l-47 146h119l13 -130z" />
    <glyph glyph-name="Iinvertedbreve" unicode="&#x20a;" horiz-adv-x="300" 
d="M4 0l151 710h164l-151 -710h-164zM109 769c18 86 90 147 172 147c72 0 113 -50 113 -114c0 -11 -1 -21 -3 -33h-84c2 11 3 21 3 30c0 32 -14 47 -44 47c-35 0 -63 -21 -74 -77h-83z" />
    <glyph glyph-name="Odotbelow" unicode="&#x1ecc;" horiz-adv-x="733" 
d="M334 -204h-144l29 137h144zM301 -6c-173 0 -268 142 -268 297c0 215 200 423 424 423c172 0 266 -144 266 -297c0 -213 -199 -423 -422 -423zM333 140c138 0 222 147 222 266c0 87 -41 162 -132 162c-137 0 -222 -144 -222 -264c0 -87 41 -164 132 -164z" />
    <glyph glyph-name="Odblgrave" unicode="&#x20c;" horiz-adv-x="733" 
d="M553 772l-47 146h118l14 -130zM383 772l-47 146h119l13 -130zM301 -6c-173 0 -268 142 -268 297c0 215 200 423 424 423c172 0 266 -144 266 -297c0 -213 -199 -423 -422 -423zM333 140c138 0 222 147 222 266c0 87 -41 162 -132 162c-137 0 -222 -144 -222 -264
c0 -87 41 -164 132 -164z" />
    <glyph glyph-name="Oinvertedbreve" unicode="&#x20e;" horiz-adv-x="733" 
d="M332 769c18 86 90 147 172 147c72 0 113 -50 113 -114c0 -11 -1 -21 -3 -33h-84c2 11 3 21 3 30c0 32 -14 47 -44 47c-35 0 -63 -21 -74 -77h-83zM301 -6c-173 0 -268 142 -268 297c0 215 200 423 424 423c172 0 266 -144 266 -297c0 -213 -199 -423 -422 -423zM333 140
c138 0 222 147 222 266c0 87 -41 162 -132 162c-137 0 -222 -144 -222 -264c0 -87 41 -164 132 -164z" />
    <glyph glyph-name="Rdotbelow" unicode="&#x1e5a;" horiz-adv-x="647" 
d="M168 0h-164l151 710h305c111 0 176 -98 176 -200c0 -98 -64 -198 -155 -246l91 -264h-185l-78 229h-93zM247 372h136c39 0 84 55 84 121c0 44 -22 73 -48 73h-131zM293 -204h-144l29 137h144z" />
    <glyph glyph-name="Rdblgrave" unicode="&#x210;" horiz-adv-x="647" 
d="M468 772l-47 146h118l14 -130zM298 772l-47 146h119l13 -130zM168 0h-164l151 710h305c111 0 176 -98 176 -200c0 -98 -64 -198 -155 -246l91 -264h-185l-78 229h-93zM247 372h136c39 0 84 55 84 121c0 44 -22 73 -48 73h-131z" />
    <glyph glyph-name="Rinvertedbreve" unicode="&#x212;" horiz-adv-x="647" 
d="M275 769c18 86 90 147 172 147c72 0 113 -50 113 -114c0 -11 -1 -21 -3 -33h-84c2 11 3 21 3 30c0 32 -14 47 -44 47c-35 0 -63 -21 -74 -77h-83zM168 0h-164l151 710h305c111 0 176 -98 176 -200c0 -98 -64 -198 -155 -246l91 -264h-185l-78 229h-93zM247 372h136
c39 0 84 55 84 121c0 44 -22 73 -48 73h-131z" />
    <glyph glyph-name="Sdotbelow" unicode="&#x1e62;" horiz-adv-x="594" 
d="M244 -8c-99 0 -202 33 -271 88l102 143c6 -14 99 -83 203 -83c63 0 88 26 88 63c0 45 -64 59 -141 86c-95 34 -143 77 -143 155c0 172 150 272 305 272c96 0 177 -41 229 -78l-100 -136c-4 11 -84 68 -165 68c-56 0 -89 -26 -89 -70c0 -39 44 -52 119 -76
c102 -33 170 -73 170 -172c0 -189 -159 -260 -307 -260zM273 -204h-144l29 137h144z" />
    <glyph glyph-name="Tdotbelow" unicode="&#x1e6c;" horiz-adv-x="596" 
d="M263 -204h-144l29 137h144zM152 0l121 566h-203l30 144h569l-30 -144h-202l-121 -566h-164z" />
    <glyph glyph-name="Udotbelow" unicode="&#x1ee4;" horiz-adv-x="716" 
d="M292 -6c-172 0 -238 105 -238 242c0 35 4 73 12 111l78 363h164l-78 -363c-6 -29 -9 -56 -9 -81c0 -72 28 -126 102 -126c102 0 158 102 181 207l77 363h164l-77 -363c-42 -196 -168 -353 -376 -353zM320 -204h-144l29 137h144z" />
    <glyph glyph-name="Udblgrave" unicode="&#x214;" horiz-adv-x="716" 
d="M520 772l-47 146h118l14 -130zM350 772l-47 146h119l13 -130zM292 -6c-172 0 -238 105 -238 242c0 35 4 73 12 111l78 363h164l-78 -363c-6 -29 -9 -56 -9 -81c0 -72 28 -126 102 -126c102 0 158 102 181 207l77 363h164l-77 -363c-42 -196 -168 -353 -376 -353z" />
    <glyph glyph-name="Uinvertedbreve" unicode="&#x216;" horiz-adv-x="716" 
d="M320 769c18 86 90 147 172 147c72 0 113 -50 113 -114c0 -11 -1 -21 -3 -33h-84c2 11 3 21 3 30c0 32 -14 47 -44 47c-35 0 -63 -21 -74 -77h-83zM292 -6c-172 0 -238 105 -238 242c0 35 4 73 12 111l78 363h164l-78 -363c-6 -29 -9 -56 -9 -81c0 -72 28 -126 102 -126
c102 0 158 102 181 207l77 363h164l-77 -363c-42 -196 -168 -353 -376 -353z" />
    <glyph glyph-name="Zdotbelow" unicode="&#x1e92;" horiz-adv-x="595" 
d="M-36 0l26 123l435 443h-327l30 144h518l-27 -123l-419 -443h329l-30 -144h-535zM263 -204h-144l29 137h144z" />
    <glyph glyph-name="zero.denominator" horiz-adv-x="482" 
d="M177 -6c-120 0 -171 96 -171 181c0 118 116 255 263 255c119 0 169 -98 169 -183c0 -116 -114 -253 -261 -253zM196 87c93 0 146 89 146 148c0 50 -29 102 -93 102c-94 0 -147 -89 -147 -149c0 -49 28 -101 94 -101z" />
    <glyph glyph-name="one.denominator" horiz-adv-x="339" 
d="M-17 0l19 91h96l51 243c-20 -19 -85 -52 -122 -52l19 93c49 0 123 56 124 59h94l-73 -343h87l-18 -91h-277z" />
    <glyph glyph-name="five.denominator" horiz-adv-x="389" 
d="M115 -6c-68 0 -123 27 -144 70l68 64c19 -27 55 -44 101 -44c51 0 96 23 96 74c0 37 -32 53 -60 53c-31 0 -71 -18 -90 -44h-80c32 82 82 186 112 264h239l-20 -93h-172l-34 -71c12 6 34 13 66 13c81 0 134 -47 134 -115c0 -98 -97 -171 -216 -171z" />
    <glyph glyph-name="six.denominator" horiz-adv-x="421" 
d="M148 -6c-90 0 -142 57 -142 154c0 164 101 286 249 286c58 0 108 -22 134 -62l-67 -65c-15 24 -50 38 -90 38c-61 0 -107 -32 -121 -89c25 21 70 31 104 31c92 0 148 -52 148 -120c0 -94 -101 -173 -215 -173zM168 80c53 0 105 33 105 72c0 31 -33 54 -78 54
c-55 0 -105 -31 -105 -70c0 -31 34 -56 78 -56z" />
    <glyph glyph-name="seven.denominator" horiz-adv-x="389" 
d="M-21 1l273 337h-221l20 93h366l-334 -430h-104z" />
    <glyph glyph-name="nine.denominator" horiz-adv-x="421" 
d="M130 -6c-60 0 -109 22 -136 62l67 65c16 -24 51 -39 91 -39c60 0 107 33 121 90c-24 -21 -70 -32 -106 -32c-89 0 -146 52 -146 120c0 95 100 174 214 174c91 0 143 -58 143 -154c0 -164 -101 -286 -248 -286zM189 222c54 0 104 31 104 69c0 31 -33 57 -77 57
c-53 0 -105 -34 -105 -72c0 -31 34 -54 78 -54z" />
    <glyph glyph-name="zero.numerator" horiz-adv-x="482" 
d="M241 294c-120 0 -171 96 -171 181c0 118 116 255 263 255c119 0 169 -98 169 -183c0 -116 -114 -253 -261 -253zM167 488c0 -49 27 -101 93 -101c93 0 146 89 146 148c0 50 -28 102 -93 102c-94 0 -146 -89 -146 -149z" />
    <glyph glyph-name="four.numerator" horiz-adv-x="406" 
d="M319 301h-91l18 88h-206l19 91l289 251h63l-53 -251h60l-20 -91h-60zM299 618l-152 -138h122z" />
    <glyph glyph-name="six.numerator" horiz-adv-x="421" 
d="M426 463c0 -94 -100 -173 -215 -173c-90 0 -142 57 -142 154c0 164 101 286 249 286c58 0 108 -21 135 -62l-67 -65c-16 24 -51 38 -91 38c-61 0 -107 -32 -121 -89c25 21 70 31 104 31c92 0 148 -52 148 -120zM231 376c53 0 105 34 105 72c0 31 -33 54 -78 54
c-55 0 -105 -31 -105 -69c0 -31 34 -57 78 -57z" />
    <glyph glyph-name="eight.numerator" horiz-adv-x="416" 
d="M415 445c0 -85 -102 -151 -208 -151c-88 0 -151 50 -151 117c0 64 47 95 101 119c-26 12 -46 34 -46 67c0 78 104 133 188 133c70 0 140 -42 140 -104c0 -46 -37 -78 -82 -96c34 -18 58 -46 58 -85zM322 443c0 28 -35 45 -75 45c-48 0 -94 -23 -94 -56
c0 -27 37 -45 75 -45c46 0 94 24 94 56zM202 598c0 -21 31 -34 62 -34c35 0 78 16 78 43c0 20 -28 33 -62 33c-40 0 -78 -16 -78 -42z" />
    <glyph glyph-name="nine.numerator" horiz-adv-x="421" 
d="M84 557c0 94 100 173 214 173c91 0 143 -58 143 -154c0 -164 -101 -286 -248 -286c-59 0 -109 22 -136 63l67 64c16 -24 51 -39 91 -39c61 0 107 34 121 90c-24 -20 -70 -31 -106 -31c-90 0 -146 51 -146 120zM279 644c-53 0 -105 -34 -105 -72c0 -30 34 -54 78 -54
c54 0 105 31 105 69c0 31 -34 57 -78 57z" />
    <glyph glyph-name="adblgrave" unicode="&#x201;" horiz-adv-x="634" 
d="M197 -10c-116 0 -186 91 -186 213c0 177 134 332 286 332c68 0 119 -38 137 -96l18 83h161l-74 -342c-1 -9 -2 -15 -2 -21c0 -16 7 -23 25 -24l-28 -135c-30 -6 -52 -8 -68 -8c-52 0 -85 19 -85 67c0 7 1 16 3 28c-49 -65 -120 -97 -187 -97zM269 125c40 0 84 28 115 73
l23 110c-7 53 -44 91 -87 91c-73 0 -140 -83 -140 -170c0 -60 33 -104 89 -104zM396 584l-47 146h118l14 -130zM226 584l-47 146h119l13 -130z" />
    <glyph glyph-name="ainvertedbreve" unicode="&#x203;" horiz-adv-x="634" 
d="M197 -10c-116 0 -186 91 -186 213c0 177 134 332 286 332c68 0 119 -38 137 -96l18 83h161l-74 -342c-1 -9 -2 -15 -2 -21c0 -16 7 -23 25 -24l-28 -135c-30 -6 -52 -8 -68 -8c-52 0 -85 19 -85 67c0 7 1 16 3 28c-49 -65 -120 -97 -187 -97zM269 125c40 0 84 28 115 73
l23 110c-7 53 -44 91 -87 91c-73 0 -140 -83 -140 -170c0 -60 33 -104 89 -104zM193 583c18 86 90 147 172 147c72 0 113 -50 113 -114c0 -11 -1 -21 -3 -33h-84c2 11 3 21 3 30c0 32 -14 47 -44 47c-35 0 -63 -21 -74 -77h-83z" />
    <glyph glyph-name="ddotbelow" unicode="&#x1e0d;" horiz-adv-x="634" 
d="M288 -204h-144l29 137h144zM197 -10c-116 0 -186 91 -186 213c0 177 134 332 286 332c68 0 119 -38 137 -96l62 291h161l-118 -550c-1 -9 -2 -15 -2 -21c0 -16 7 -23 25 -24l-28 -135c-30 -6 -52 -8 -68 -8c-51 0 -86 19 -86 64c0 8 1 17 4 31c-49 -65 -120 -97 -187 -97
zM269 125c40 0 84 28 115 73l23 110c-7 53 -44 91 -87 91c-73 0 -140 -83 -140 -170c0 -60 33 -104 89 -104z" />
    <glyph glyph-name="edotbelow" unicode="&#x1eb9;" horiz-adv-x="558" 
d="M232 -10c-136 0 -220 91 -220 222c0 177 149 323 338 323c120 0 194 -55 194 -150c0 -114 -105 -174 -312 -174c-17 0 -35 0 -54 1c0 -70 24 -107 83 -107c48 0 91 24 116 64l126 -40c-56 -83 -165 -139 -271 -139zM324 420c-60 0 -104 -47 -128 -110h36
c117 0 158 20 158 61c0 31 -27 49 -66 49zM266 -204h-144l29 137h144z" />
    <glyph glyph-name="edblgrave" unicode="&#x205;" horiz-adv-x="558" 
d="M419 584l-47 146h118l14 -130zM249 584l-47 146h119l13 -130zM232 -10c-136 0 -220 91 -220 222c0 177 149 323 338 323c120 0 194 -55 194 -150c0 -114 -105 -174 -312 -174c-17 0 -35 0 -54 1c0 -70 24 -107 83 -107c48 0 91 24 116 64l126 -40
c-56 -83 -165 -139 -271 -139zM324 420c-60 0 -104 -47 -128 -110h36c117 0 158 20 158 61c0 31 -27 49 -66 49z" />
    <glyph glyph-name="einvertedbreve" unicode="&#x207;" horiz-adv-x="558" 
d="M225 583c18 86 90 147 172 147c72 0 113 -50 113 -114c0 -11 -1 -21 -3 -33h-84c2 11 3 21 3 30c0 32 -14 47 -44 47c-35 0 -63 -21 -74 -77h-83zM232 -10c-136 0 -220 91 -220 222c0 177 149 323 338 323c120 0 194 -55 194 -150c0 -114 -105 -174 -312 -174
c-17 0 -35 0 -54 1c0 -70 24 -107 83 -107c48 0 91 24 116 64l126 -40c-56 -83 -165 -139 -271 -139zM324 420c-60 0 -104 -47 -128 -110h36c117 0 158 20 158 61c0 31 -27 49 -66 49z" />
    <glyph glyph-name="gacute" unicode="&#x1f5;" horiz-adv-x="618" 
d="M474 730l-115 -144l-106 14l77 130h144zM160 -223c-107 0 -174 38 -217 105l104 87c27 -44 78 -72 138 -72c72 0 143 40 163 139l10 51c-41 -58 -110 -89 -175 -89c-108 0 -171 91 -171 207c0 178 138 330 298 330c73 0 123 -36 144 -96l19 86h139l-104 -489
c-34 -160 -174 -259 -348 -259zM267 125c43 0 85 30 115 73l24 110c-8 55 -45 91 -88 91c-73 0 -139 -86 -139 -170c0 -59 34 -104 88 -104z" />
    <glyph glyph-name="hdotbelow" unicode="&#x1e25;" 
d="M-10 0l155 730h160l-62 -293c49 62 119 98 192 98c96 0 123 -56 123 -121c0 -25 -4 -52 -9 -78l-71 -336h-160l63 295c2 15 4 27 4 39c0 41 -20 60 -52 60s-89 -37 -119 -93l-64 -301h-160zM264 -204h-144l29 137h144z" />
    <glyph glyph-name="idotbelow" unicode="&#x1ecb;" horiz-adv-x="268" 
d="M-10 0l112 525h160l-112 -525h-160zM114 585l31 145h160l-31 -145h-160zM101 -204h-144l29 137h144z" />
    <glyph glyph-name="idblgrave" unicode="&#x209;" horiz-adv-x="268" 
d="M264 584l-47 146h118l14 -130zM94 584l-47 146h119l13 -130zM-10 0l112 525h160l-112 -525h-160z" />
    <glyph glyph-name="iinvertedbreve" unicode="&#x20b;" horiz-adv-x="268" 
d="M60 583c18 86 90 147 172 147c72 0 113 -50 113 -114c0 -11 -1 -21 -3 -33h-84c2 11 3 21 3 30c0 32 -14 47 -44 47c-35 0 -63 -21 -74 -77h-83zM-10 0l112 525h160l-112 -525h-160z" />
    <glyph glyph-name="odotbelow" unicode="&#x1ecd;" 
d="M267 -204h-144l29 137h144zM229 -10c-146 0 -218 100 -218 219c0 165 134 326 334 326c145 0 218 -100 218 -219c0 -164 -134 -326 -334 -326zM258 125c72 0 138 75 138 171c0 62 -31 103 -80 103c-72 0 -138 -75 -138 -171c0 -62 31 -103 80 -103z" />
    <glyph glyph-name="odblgrave" unicode="&#x20d;" 
d="M423 584l-47 146h118l14 -130zM253 584l-47 146h119l13 -130zM229 -10c-146 0 -218 100 -218 219c0 165 134 326 334 326c145 0 218 -100 218 -219c0 -164 -134 -326 -334 -326zM258 125c72 0 138 75 138 171c0 62 -31 103 -80 103c-72 0 -138 -75 -138 -171
c0 -62 31 -103 80 -103z" />
    <glyph glyph-name="oinvertedbreve" unicode="&#x20f;" 
d="M222 583c18 86 90 147 172 147c72 0 113 -50 113 -114c0 -11 -1 -21 -3 -33h-84c2 11 3 21 3 30c0 32 -14 47 -44 47c-35 0 -63 -21 -74 -77h-83zM229 -10c-146 0 -218 100 -218 219c0 165 134 326 334 326c145 0 218 -100 218 -219c0 -164 -134 -326 -334 -326zM258 125
c72 0 138 75 138 171c0 62 -31 103 -80 103c-72 0 -138 -75 -138 -171c0 -62 31 -103 80 -103z" />
    <glyph glyph-name="rdotbelow" unicode="&#x1e5b;" horiz-adv-x="392" 
d="M-10 0l112 525h147l-23 -106c50 70 116 113 176 113c14 0 19 0 23 -1l-30 -143c-72 -1 -140 -25 -178 -73l-67 -315h-160zM101 -204h-144l29 137h144z" />
    <glyph glyph-name="rdblgrave" unicode="&#x211;" horiz-adv-x="392" 
d="M314 584l-47 146h118l14 -130zM144 584l-47 146h119l13 -130zM-10 0l112 525h147l-23 -106c50 70 116 113 176 113c14 0 19 0 23 -1l-30 -143c-72 -1 -140 -25 -178 -73l-67 -315h-160z" />
    <glyph glyph-name="rinvertedbreve" unicode="&#x213;" horiz-adv-x="392" 
d="M127 583c18 86 90 147 172 147c72 0 113 -50 113 -114c0 -11 -1 -21 -3 -33h-84c2 11 3 21 3 30c0 32 -14 47 -44 47c-35 0 -63 -21 -74 -77h-83zM-10 0l112 525h147l-23 -106c50 70 116 113 176 113c14 0 19 0 23 -1l-30 -143c-72 -1 -140 -25 -178 -73l-67 -315h-160z
" />
    <glyph glyph-name="sdotbelow" unicode="&#x1e63;" horiz-adv-x="482" 
d="M187 -10c-84 0 -167 30 -213 84l77 98c51 -44 105 -69 157 -69c42 0 64 20 64 50c0 23 -20 36 -74 53c-110 35 -156 64 -156 125c0 117 111 204 243 204c74 0 134 -19 185 -74l-82 -96c-49 41 -87 59 -127 59c-36 0 -63 -18 -63 -52c0 -23 21 -34 73 -49
c114 -33 162 -67 162 -133c0 -118 -100 -200 -246 -200zM207 -204h-144l29 137h144z" />
    <glyph glyph-name="tdotbelow" unicode="&#x1e6d;" horiz-adv-x="392" 
d="M191 -204h-144l29 137h144zM163 -10c-67 0 -117 27 -117 99c0 13 1 26 4 41l58 274h-63l27 121h62l36 167h160l-36 -167h101l-26 -121h-101l-46 -219c-1 -6 -2 -12 -2 -17c0 -23 14 -32 34 -32c21 0 51 10 73 19v-127c-48 -21 -109 -38 -164 -38z" />
    <glyph glyph-name="udotbelow" unicode="&#x1ee5;" horiz-adv-x="606" 
d="M139 -10c-81 0 -123 44 -123 126c0 22 3 46 9 73l72 336h159l-64 -301c-3 -15 -5 -28 -5 -39c0 -40 18 -60 50 -60c36 0 78 21 119 76l69 324h160l-73 -345c-2 -9 -3 -15 -3 -21c0 -16 8 -23 26 -24l-29 -135c-29 -6 -51 -8 -68 -8c-51 0 -86 19 -86 64c0 8 2 17 5 35
c-60 -69 -135 -101 -218 -101zM261 -204h-144l29 137h144z" />
    <glyph glyph-name="udblgrave" unicode="&#x215;" horiz-adv-x="606" 
d="M411 584l-47 146h118l14 -130zM241 584l-47 146h119l13 -130zM139 -10c-81 0 -123 44 -123 126c0 22 3 46 9 73l72 336h159l-64 -301c-3 -15 -5 -28 -5 -39c0 -40 18 -60 50 -60c36 0 78 21 119 76l69 324h160l-73 -345c-2 -9 -3 -15 -3 -21c0 -16 8 -23 26 -24l-29 -135
c-29 -6 -51 -8 -68 -8c-51 0 -86 19 -86 64c0 8 2 17 5 35c-60 -69 -135 -101 -218 -101z" />
    <glyph glyph-name="uinvertedbreve" unicode="&#x217;" horiz-adv-x="606" 
d="M209 583c18 86 90 147 172 147c72 0 113 -50 113 -114c0 -11 -1 -21 -3 -33h-84c2 11 3 21 3 30c0 32 -14 47 -44 47c-35 0 -63 -21 -74 -77h-83zM139 -10c-81 0 -123 44 -123 126c0 22 3 46 9 73l72 336h159l-64 -301c-3 -15 -5 -28 -5 -39c0 -40 18 -60 50 -60
c36 0 78 21 119 76l69 324h160l-73 -345c-2 -9 -3 -15 -3 -21c0 -16 8 -23 26 -24l-29 -135c-29 -6 -51 -8 -68 -8c-51 0 -86 19 -86 64c0 8 2 17 5 35c-60 -69 -135 -101 -218 -101z" />
    <glyph glyph-name="zdotbelow" unicode="&#x1e93;" horiz-adv-x="471" 
d="M-40 0l21 96l312 318h-232l24 111h401l-21 -96l-312 -318h252l-24 -111h-421zM200 -204h-144l29 137h144z" />
    <glyph glyph-name="Omega" unicode="&#x2126;" horiz-adv-x="823" 
d="M40 0v115h158c-91 52 -148 145 -148 257c0 181 149 343 348 343c198 0 347 -162 347 -343c0 -112 -57 -205 -148 -257h158v-115h-317v115c89 35 145 148 145 257c0 98 -70 197 -185 197c-116 0 -186 -99 -186 -197c0 -109 56 -222 146 -257v-115h-318z" />
    <glyph glyph-name="uni03A9" unicode="&#x3a9;" horiz-adv-x="823" 
d="M40 0v114h158c-91 53 -148 146 -148 258c0 181 149 343 348 343c198 0 347 -162 347 -343c0 -112 -57 -205 -148 -258h158v-114h-317v114c89 35 145 149 145 258c0 98 -70 197 -185 197c-116 0 -186 -99 -186 -197c0 -109 56 -223 146 -258v-114h-318z" />
    <glyph glyph-name="partialdiff" unicode="&#x2202;" horiz-adv-x="576" 
d="M256 -10c-138 0 -238 92 -238 212c0 135 126 238 262 238c53 0 95 -18 118 -51c0 135 -35 195 -112 195c-35 0 -79 -13 -104 -34l-87 92c55 47 126 74 203 74c156 0 246 -113 246 -332c0 -246 -112 -394 -288 -394zM266 110c58 0 113 55 113 116c0 54 -42 95 -97 95
c-60 0 -111 -50 -111 -111c0 -56 42 -100 95 -100z" />
    <glyph glyph-name="Delta" unicode="&#x2206;" horiz-adv-x="670" 
d="M379 710l244 -584v-126h-622v126l245 584h133zM164 144h302l-153 385z" />
    <glyph glyph-name="uni0394" unicode="&#x394;" horiz-adv-x="643" 
d="M-14 0v126l245 584h133l244 -584v-126h-622zM148 144h302l-153 385z" />
    <glyph glyph-name="product" unicode="&#x220f;" horiz-adv-x="762" 
d="M495 -90v664h-190v-664h-155v664h-80v136h661v-136h-80v-664h-156z" />
    <glyph glyph-name="summation" unicode="&#x2211;" horiz-adv-x="629" 
d="M568 710v-120h-307v-4l175 -217l-188 -229v-4h324v-136h-503v107l209 249l-202 249v105h492z" />
    <glyph glyph-name="radical" unicode="&#x221a;" horiz-adv-x="530" 
d="M14 276v110h221l70 -274l112 678h140l-152 -790h-200l-80 276h-111z" />
    <glyph glyph-name="infinity" unicode="&#x221e;" horiz-adv-x="739" 
d="M226 545c82 0 122 -39 154 -85c32 46 71 85 154 85c105 0 173 -88 173 -194c0 -107 -75 -193 -174 -193c-79 0 -120 35 -151 76c-30 -41 -71 -76 -156 -76c-88 0 -174 88 -174 194c0 107 75 193 174 193zM240 277c46 0 69 33 91 73c-22 41 -44 75 -91 75
c-33 0 -69 -21 -69 -73c0 -53 36 -75 69 -75zM520 277c33 0 68 22 68 75c0 52 -35 73 -68 73c-49 0 -70 -36 -89 -79c20 -38 43 -69 89 -69z" />
    <glyph glyph-name="integral" unicode="&#x222b;" horiz-adv-x="386" 
d="M133 102l-27 484c-1 16 -5 106 -5 111c0 78 49 123 137 123c44 0 101 -12 143 -30l-25 -117c-15 8 -33 14 -46 14c-31 0 -50 -17 -50 -49c0 -5 4 -66 4 -80l27 -488c1 -14 5 -105 5 -108c0 -84 -49 -129 -137 -129c-44 0 -101 12 -142 30l24 117c16 -8 33 -14 47 -14
c31 0 49 20 49 55c0 1 -4 72 -4 81z" />
    <glyph glyph-name="lozenge" unicode="&#x25ca;" horiz-adv-x="589" 
d="M219 729h179l186 -364l-186 -366h-179l-186 366zM316 107l125 246l-134 266l-124 -245z" />
    <glyph glyph-name="pi" unicode="&#x3c0;" horiz-adv-x="725" 
d="M525 -9c-91 0 -143 50 -143 140v255h-103v-386h-158v386h-73v136h582v-136h-89v-199c0 -39 18 -60 52 -60c16 0 36 5 52 14l22 -120c-41 -18 -98 -30 -142 -30z" />
    <glyph glyph-name="estimated" unicode="&#x212e;" horiz-adv-x="622" 
d="M308 41c96 0 161 33 200 71l33 -39c-50 -47 -125 -83 -233 -83c-169 0 -280 125 -280 270c0 150 113 275 280 275c168 0 282 -130 282 -294h-427v-137c35 -37 89 -63 145 -63zM308 483c-56 0 -110 -25 -145 -73v-115h293v114c-36 49 -90 74 -148 74z" />
    <glyph glyph-name="uni2113" unicode="&#x2113;" horiz-adv-x="345" 
d="M184 -7c-78 0 -125 41 -125 110v507c0 74 65 130 150 130c83 0 140 -53 140 -130c0 -112 -89 -303 -183 -396v-51c0 -39 20 -62 53 -62c13 0 34 6 50 12l20 -99c-29 -12 -74 -21 -105 -21zM249 576c0 43 -14 67 -39 67c-26 0 -44 -25 -44 -61v-228c44 67 83 163 83 222z
" />
    <glyph glyph-name="afii61352" unicode="&#x2116;" horiz-adv-x="1092" 
d="M468 0l-212 406l-86 -406h-164l151 710h127l214 -417l88 417h164l-151 -710h-131zM908 336c-97 0 -144 69 -144 150c0 116 89 228 225 228c97 0 145 -68 145 -150c0 -114 -89 -228 -226 -228zM879 500c0 -40 20 -67 50 -67c46 0 89 52 89 116c0 41 -20 68 -50 68
c-46 0 -89 -52 -89 -117z" />
    </font>
</defs>
</svg>
